<?xml version="1.0" encoding="UTF-8" standalone="no"?>
<svg
   xmlns:dc="http://purl.org/dc/elements/1.1/"
   xmlns:cc="http://creativecommons.org/ns#"
   xmlns:rdf="http://www.w3.org/1999/02/22-rdf-syntax-ns#"
   xmlns:svg="http://www.w3.org/2000/svg"
   xmlns="http://www.w3.org/2000/svg"
   xmlns:sodipodi="http://sodipodi.sourceforge.net/DTD/sodipodi-0.dtd"
   xmlns:inkscape="http://www.inkscape.org/namespaces/inkscape"
   height="64"
   width="64"
   version="1.1"
   id="svg13"
   sodipodi:docname="battery.svg"
   inkscape:version="0.92.3 (2405546, 2018-03-11)">
  <metadata
     id="metadata19">
    <rdf:RDF>
      <cc:Work
         rdf:about="">
        <dc:format>image/svg+xml</dc:format>
        <dc:type
           rdf:resource="http://purl.org/dc/dcmitype/StillImage" />
      </cc:Work>
    </rdf:RDF>
  </metadata>
  <defs
     id="defs17">
    <pattern
       inkscape:stockid="Stripes 1:1"
       id="Strips1_1"
       patternTransform="translate(0,0) scale(10,10)"
       height="1"
       width="2"
       patternUnits="userSpaceOnUse"
       inkscape:collect="always">
      <rect
         id="rect1542"
         height="2"
         width="1"
         y="-0.5"
         x="0"
         style="fill:black;stroke:none" />
    </pattern>
  </defs>
  <sodipodi:namedview
     pagecolor="#ffffff"
     bordercolor="#666666"
     borderopacity="1"
     objecttolerance="10"
     gridtolerance="10"
     guidetolerance="10"
     inkscape:pageopacity="0"
     inkscape:pageshadow="2"
     inkscape:window-width="711"
     inkscape:window-height="480"
     id="namedview15"
     showgrid="false"
     inkscape:zoom="3.6875"
     inkscape:cx="22.359759"
     inkscape:cy="32"
     inkscape:window-x="0"
     inkscape:window-y="0"
     inkscape:window-maximized="0"
     inkscape:current-layer="svg13" />
  <linearGradient
     id="a"
     gradientUnits="userSpaceOnUse"
     x1="400.57144"
     x2="400.57144"
     y1="545.79797"
     y2="517.79797">
    <stop
       offset="0"
       stop-color="#ff9300"
       id="stop2" />
    <stop
       offset="1"
       stop-color="#ffd702"
       id="stop4" />
  </linearGradient>
  <rect
     fill="url(#a)"
     height="28.000027"
     ry="14.000006"
     transform="matrix(1.928569535212 0 0 1.928569535212 -740.529890321783 -993.743514845536)"
     width="28.000011"
     x="386.57144"
     y="517.79797"
     id="rect7"
     style="fill:url(#Strips1_1);fill-opacity:1.0" />
  <path
     d="m27.207947 1033.4817-4.932292 6 3.328334 1.8008-.862188 4.1992 4.932292-6-3.328334-1.8008z"
     fill-opacity=".795918"
     transform="matrix(2.166666664438 0 0 2.166666664438 -24.278903280192 -2220.34447849328)"
     id="path9" />
  <path
     d="m422.52092 486.38487c-1.12917-.0571-2.33103.004-3.61172.19167-13.1925 1.93145-14.27479 16.28486-21.95182 27.07292 8.91988 22.81857 31.02793 38.92632 57.08074 38.92632 20.20958 0 38.01925-9.72116 49.18048-24.71303-22.94725-28.69089-30.06544 3.8969-49.18048-5.28881-13.7216-8.4375-14.57959-35.33214-31.5172-36.18907z"
     fill="#342600"
     fill-rule="evenodd"
     transform="matrix(.418938959292 0 0 .38741357288 -158.128908842064 -154.941240085314)"
     id="path11" />
  <path
     id="path2260"
     transform="matrix(2.166666664438 0 0 2.166666664438 -24.278903280192 -2220.34447849328)"
     fill-opacity=".795918"
     d="m27.207947 1033.4817-4.932292 6 3.328334 1.8008-.862188 4.1992 4.932292-6-3.328334-1.8008z"
     style="fill:#863939;fill-opacity:0.79591799" />
</svg>
