<?xml version="1.0" encoding="UTF-8" standalone="no"?>
<svg
   xmlns:dc="http://purl.org/dc/elements/1.1/"
   xmlns:cc="http://creativecommons.org/ns#"
   xmlns:rdf="http://www.w3.org/1999/02/22-rdf-syntax-ns#"
   xmlns:svg="http://www.w3.org/2000/svg"
   xmlns="http://www.w3.org/2000/svg"
   xmlns:sodipodi="http://sodipodi.sourceforge.net/DTD/sodipodi-0.dtd"
   xmlns:inkscape="http://www.inkscape.org/namespaces/inkscape"
   width="64"
   height="64"
   viewBox="0 0 64 64"
   version="1.1"
   id="svg20"
   sodipodi:docname="face-angry.svg"
   inkscape:version="0.92.3 (2405546, 2018-03-11)">
  <metadata
     id="metadata26">
    <rdf:RDF>
      <cc:Work
         rdf:about="">
        <dc:format>image/svg+xml</dc:format>
        <dc:type
           rdf:resource="http://purl.org/dc/dcmitype/StillImage" />
      </cc:Work>
    </rdf:RDF>
  </metadata>
  <defs
     id="defs24">
    <pattern
       inkscape:stockid="Stripes 1:1"
       id="Strips1_1"
       patternTransform="translate(0,0) scale(10,10)"
       height="1"
       width="2"
       patternUnits="userSpaceOnUse"
       inkscape:collect="always">
      <rect
         id="rect1549"
         height="2"
         width="1"
         y="-0.5"
         x="0"
         style="fill:black;stroke:none" />
    </pattern>
  </defs>
  <sodipodi:namedview
     pagecolor="#ffffff"
     bordercolor="#666666"
     borderopacity="1"
     objecttolerance="10"
     gridtolerance="10"
     guidetolerance="10"
     inkscape:pageopacity="0"
     inkscape:pageshadow="2"
     inkscape:window-width="711"
     inkscape:window-height="480"
     id="namedview22"
     showgrid="false"
     inkscape:zoom="3.6875"
     inkscape:cx="27.43357"
     inkscape:cy="32"
     inkscape:window-x="0"
     inkscape:window-y="0"
     inkscape:window-maximized="0"
     inkscape:current-layer="svg20" />
  <circle
     fill="#EF5350"
     cx="32"
     cy="32"
     r="30"
     id="circle2"
     style="fill:url(#Strips1_1);fill-opacity:1.0" />
  <path
     fill="#302424"
     d="M40.988 49.665c-5.793-4.8-12.219-4.771-17.977 0-.693.573-1.318-.421-.849-1.339 1.755-3.435 5.299-6.492 9.837-6.492s8.081 3.058 9.836 6.492c.472.918-.153 1.912-.847 1.339z"
     id="path4" />
  <path
     fill="#FFF"
     d="M10.166 24.935c-1.548 4.728.646 9.975 5.27 12.128 4.615 2.154 10.039.467 12.668-3.746l-6.895-7.721-11.043-.661z"
     id="path6" />
  <path
     fill="#302424"
     d="M14.24 25.775a5.825 5.825 0 1 0 10.558 4.924c.862-1.851-9.694-6.775-10.558-4.924z"
     id="path8" />
  <path
     fill="#302424"
     d="M10.166 24.936c1.586-1.035 3.474-1.463 5.387-1.455 1.92.018 3.84.469 5.59 1.279 1.744.801 3.346 1.98 4.596 3.441 1.24 1.461 2.162 3.23 2.365 5.115-1.33-1.33-2.605-2.43-3.971-3.387a27.277 27.277 0 0 0-4.25-2.449 27.67 27.67 0 0 0-4.621-1.666c-1.615-.431-3.225-.697-5.096-.878z"
     id="path10" />
  <g
     id="g18">
    <path
       fill="#FFF"
       d="M53.834 24.935c1.547 4.728-.646 9.975-5.27 12.128-4.615 2.154-10.039.467-12.668-3.746l6.895-7.721 11.043-.661z"
       id="path12" />
    <path
       fill="#302424"
       d="M49.76 25.775a5.825 5.825 0 1 1-10.558 4.924c-.862-1.851 9.694-6.775 10.558-4.924z"
       id="path14" />
    <path
       fill="#302424"
       d="M53.834 24.936c-1.586-1.035-3.473-1.463-5.387-1.455-1.92.018-3.84.469-5.59 1.279-1.744.801-3.346 1.98-4.596 3.441-1.24 1.461-2.162 3.23-2.365 5.115 1.33-1.33 2.605-2.43 3.971-3.387a27.277 27.277 0 0 1 4.25-2.449 27.67 27.67 0 0 1 4.621-1.666c1.616-.431 3.225-.697 5.096-.878z"
       id="path16" />
  </g>
</svg>
