<?xml version="1.0" encoding="UTF-8" standalone="no"?>
<svg
   xmlns:dc="http://purl.org/dc/elements/1.1/"
   xmlns:cc="http://creativecommons.org/ns#"
   xmlns:rdf="http://www.w3.org/1999/02/22-rdf-syntax-ns#"
   xmlns:svg="http://www.w3.org/2000/svg"
   xmlns="http://www.w3.org/2000/svg"
   xmlns:sodipodi="http://sodipodi.sourceforge.net/DTD/sodipodi-0.dtd"
   xmlns:inkscape="http://www.inkscape.org/namespaces/inkscape"
   width="64"
   height="64"
   viewBox="0 0 64 64"
   version="1.1"
   id="svg28"
   sodipodi:docname="face-sick.svg"
   inkscape:version="0.92.3 (2405546, 2018-03-11)">
  <metadata
     id="metadata34">
    <rdf:RDF>
      <cc:Work
         rdf:about="">
        <dc:format>image/svg+xml</dc:format>
        <dc:type
           rdf:resource="http://purl.org/dc/dcmitype/StillImage" />
      </cc:Work>
    </rdf:RDF>
  </metadata>
  <defs
     id="defs32">
    <pattern
       inkscape:stockid="Stripes 1:1"
       id="Strips1_1"
       patternTransform="translate(0,0) scale(10,10)"
       height="1"
       width="2"
       patternUnits="userSpaceOnUse"
       inkscape:collect="always">
      <rect
         id="rect1557"
         height="2"
         width="1"
         y="-0.5"
         x="0"
         style="fill:black;stroke:none" />
    </pattern>
  </defs>
  <sodipodi:namedview
     pagecolor="#ffffff"
     bordercolor="#666666"
     borderopacity="1"
     objecttolerance="10"
     gridtolerance="10"
     guidetolerance="10"
     inkscape:pageopacity="0"
     inkscape:pageshadow="2"
     inkscape:window-width="711"
     inkscape:window-height="480"
     id="namedview30"
     showgrid="false"
     inkscape:zoom="3.6875"
     inkscape:cx="23.374522"
     inkscape:cy="32"
     inkscape:window-x="0"
     inkscape:window-y="0"
     inkscape:window-maximized="0"
     inkscape:current-layer="svg28" />
  <circle
     fill="#FFDD67"
     cx="32"
     cy="32"
     r="30"
     id="circle2"
     style="fill:url(#Strips1_1);fill-opacity:1.0" />
  <circle
     fill="#664E27"
     cx="43.497"
     cy="30.307"
     r="5"
     id="circle4" />
  <circle
     fill="#664E27"
     cx="20.497"
     cy="30.307"
     r="5"
     id="circle6" />
  <g
     fill="#917524"
     id="g10">
    <path
       d="M25.577 15.213a14.232 14.232 0 0 1-11.693 3.133c-.578-.113-1.088 2.021-.385 2.156a16.42 16.42 0 0 0 13.492-3.615c.541-.469-.97-2.061-1.414-1.674zM50.112 18.193c-4.168.748-8.455-.4-11.691-3.133-.443-.389-1.955 1.205-1.412 1.674a16.418 16.418 0 0 0 13.492 3.615c.703-.134.191-2.269-.389-2.156z"
       id="path8" />
  </g>
  <g
     id="g22">
    <path
       fill="#E5E5E5"
       d="M4.446 38.729l24.226 14.156 4.605-6.527-21.466-18.07c-6.368-4.494-13.737 5.95-7.365 10.441z"
       id="path12" />
    <path
       fill="#FFF"
       d="M5.785 36.548L29.593 51.58l2.761-3.916-22.149-17.381c-3.69-2.605-8.11 3.659-4.42 6.265z"
       id="path14" />
    <path
       fill="#ED4C5C"
       d="M7.478 36.178L29.64 50.639l1.841-2.612L10.424 32z"
       id="path16" />
    <ellipse
       transform="rotate(-54.808 8.95 34.09)"
       fill="#A5203C"
       cx="8.951"
       cy="34.089"
       rx="2.556"
       ry=".857"
       id="ellipse18" />
    <path
       fill="#51575B"
       d="M18.07 41.498l-1.996 2.831-.892-.566 1.996-2.828zM20.533 43.206l-1.915 2.712-.89-.564 1.913-2.713zM22.982 44.929l-1.838 2.606-.891-.568 1.839-2.606zM25.442 46.64l-1.66 2.35-.886-.573 1.658-2.349zM27.903 48.346L26.37 50.52l-.885-.577 1.533-2.172z"
       id="path20" />
  </g>
  <g
     id="g26">
    <path
       fill="#664E27"
       d="M41.467 43.933c-5.964.283-11.605 3.267-15.205 8.033-.882 1.195 2.231 3.514 3.106 2.315 2.378-3.143 6.784-6.198 12.268-6.481 1.469-.075 1.405-3.925-.169-3.867z"
       id="path24" />
  </g>
</svg>
