<?xml version="1.0" encoding="UTF-8" standalone="no"?>
<svg
   xmlns:dc="http://purl.org/dc/elements/1.1/"
   xmlns:cc="http://creativecommons.org/ns#"
   xmlns:rdf="http://www.w3.org/1999/02/22-rdf-syntax-ns#"
   xmlns:svg="http://www.w3.org/2000/svg"
   xmlns="http://www.w3.org/2000/svg"
   xmlns:sodipodi="http://sodipodi.sourceforge.net/DTD/sodipodi-0.dtd"
   xmlns:inkscape="http://www.inkscape.org/namespaces/inkscape"
   width="64"
   height="64"
   viewBox="0 0 64 64"
   version="1.1"
   id="svg26"
   sodipodi:docname="face-crying2.svg"
   inkscape:version="0.92.3 (2405546, 2018-03-11)">
  <metadata
     id="metadata32">
    <rdf:RDF>
      <cc:Work
         rdf:about="">
        <dc:format>image/svg+xml</dc:format>
        <dc:type
           rdf:resource="http://purl.org/dc/dcmitype/StillImage" />
      </cc:Work>
    </rdf:RDF>
  </metadata>
  <defs
     id="defs30">
    <pattern
       inkscape:stockid="Stripes 1:1"
       id="Strips1_1"
       patternTransform="translate(0,0) scale(10,10)"
       height="1"
       width="2"
       patternUnits="userSpaceOnUse"
       inkscape:collect="always">
      <rect
         id="rect1555"
         height="2"
         width="1"
         y="-0.5"
         x="0"
         style="fill:black;stroke:none" />
    </pattern>
  </defs>
  <sodipodi:namedview
     pagecolor="#ffffff"
     bordercolor="#666666"
     borderopacity="1"
     objecttolerance="10"
     gridtolerance="10"
     guidetolerance="10"
     inkscape:pageopacity="0"
     inkscape:pageshadow="2"
     inkscape:window-width="711"
     inkscape:window-height="480"
     id="namedview28"
     showgrid="false"
     inkscape:zoom="3.6875"
     inkscape:cx="25.404046"
     inkscape:cy="32"
     inkscape:window-x="0"
     inkscape:window-y="0"
     inkscape:window-maximized="0"
     inkscape:current-layer="svg26" />
  <g
     fill="#65B1EF"
     id="g6">
    <ellipse
       cx="17.472"
       cy="59.895"
       rx="12.472"
       ry="1.5"
       id="ellipse2" />
    <ellipse
       cx="43.952"
       cy="60.197"
       rx="18.048"
       ry="1.803"
       id="ellipse4" />
  </g>
  <circle
     fill="#FFDD67"
     cx="32"
     cy="32"
     r="30"
     id="circle8"
     style="fill:url(#Strips1_1);fill-opacity:1.0" />
  <path
     fill="#664E27"
     d="M44.736 46c-1.395-3.593-4.779-6-12.738-6-7.955 0-11.342 2.407-12.734 6-.744 1.92.32 5 .32 5 1.33 3.883 1.143 5 12.416 5 11.26 0 11.086-1.117 12.414-5 0 0 1.066-3.08.322-5z"
     id="path10" />
  <path
     fill="#FFF"
     d="M40.973 44.965c.072-.26-.004-.618-.17-.797 0 0-2.012-2.168-8.805-2.168-6.791 0-8.801 2.168-8.801 2.168-.164.179-.242.537-.172.797l.154.563c.073.259.307.472.524.472h16.592c.217 0 .453-.213.523-.473l.155-.562z"
     id="path12" />
  <g
     fill="#65B1EF"
     id="g16">
    <path
       d="M44.48 60.469h6.834c8.201-9.914-1.543-20.023.898-29.797-2.279 0-4.557 2.545-6.834 2.545-3.149 9.488 7.304 17.338-.898 27.252zM19.518 60.469h-6.834c-8.201-9.914 1.545-20.023-.896-29.797 2.277 0 4.555 2.545 6.834 2.545 3.148 9.488-7.306 17.338.896 27.252z"
       id="path14" />
  </g>
  <g
     fill="#917524"
     id="g20">
    <path
       d="M40.667 18.303a14.233 14.233 0 0 0 11.374 4.141c.588-.062.909 2.108.196 2.181a16.41 16.41 0 0 1-13.125-4.778c-.499-.514 1.145-1.968 1.555-1.544zM11.955 22.442a14.239 14.239 0 0 0 11.377-4.14c.408-.426 2.051 1.03 1.552 1.545a16.42 16.42 0 0 1-13.127 4.778c-.711-.074-.387-2.246.198-2.183z"
       id="path18" />
  </g>
  <g
     fill="#664E27"
     id="g24">
    <path
       d="M35.914 30.275c4.213 7.953 12.695 7.951 16.91 0 .209-.4-.34-.58-1.01-1.035-4.225 3.32-11.059 3.014-14.891.002-.669.453-1.216.633-1.009 1.033zM11.176 30.275c4.215 7.953 12.697 7.951 16.912 0 .207-.4-.34-.58-1.01-1.035-4.225 3.32-11.061 3.014-14.893.002-.669.453-1.216.633-1.009 1.033z"
       id="path22" />
  </g>
</svg>
