<?xml version="1.0" encoding="UTF-8" standalone="no"?>
<svg
   xmlns:dc="http://purl.org/dc/elements/1.1/"
   xmlns:cc="http://creativecommons.org/ns#"
   xmlns:rdf="http://www.w3.org/1999/02/22-rdf-syntax-ns#"
   xmlns:svg="http://www.w3.org/2000/svg"
   xmlns="http://www.w3.org/2000/svg"
   xmlns:sodipodi="http://sodipodi.sourceforge.net/DTD/sodipodi-0.dtd"
   xmlns:inkscape="http://www.inkscape.org/namespaces/inkscape"
   width="64"
   height="64"
   viewBox="0 0 64 64"
   version="1.1"
   id="svg22"
   sodipodi:docname="face-embarrassed.svg"
   inkscape:version="0.92.3 (2405546, 2018-03-11)">
  <metadata
     id="metadata28">
    <rdf:RDF>
      <cc:Work
         rdf:about="">
        <dc:format>image/svg+xml</dc:format>
        <dc:type
           rdf:resource="http://purl.org/dc/dcmitype/StillImage" />
      </cc:Work>
    </rdf:RDF>
  </metadata>
  <defs
     id="defs26">
    <pattern
       inkscape:stockid="Stripes 1:1"
       id="Strips1_1"
       patternTransform="translate(0,0) scale(10,10)"
       height="1"
       width="2"
       patternUnits="userSpaceOnUse"
       inkscape:collect="always">
      <rect
         id="rect1551"
         height="2"
         width="1"
         y="-0.5"
         x="0"
         style="fill:black;stroke:none" />
    </pattern>
  </defs>
  <sodipodi:namedview
     pagecolor="#ffffff"
     bordercolor="#666666"
     borderopacity="1"
     objecttolerance="10"
     gridtolerance="10"
     guidetolerance="10"
     inkscape:pageopacity="0"
     inkscape:pageshadow="2"
     inkscape:window-width="711"
     inkscape:window-height="480"
     id="namedview24"
     showgrid="false"
     inkscape:zoom="3.6875"
     inkscape:cx="50.7731"
     inkscape:cy="32"
     inkscape:window-x="0"
     inkscape:window-y="0"
     inkscape:window-maximized="0"
     inkscape:current-layer="svg22" />
  <circle
     fill="#FFDD67"
     cx="32"
     cy="32"
     r="30"
     id="circle2"
     style="fill:url(#Strips1_1);fill-opacity:1.0" />
  <circle
     fill="#FF717F"
     cx="52.811"
     cy="37.137"
     r="8"
     id="circle4" />
  <circle
     fill="#FF717F"
     cx="11.189"
     cy="37.137"
     r="8"
     id="circle6" />
  <path
     fill="#917524"
     d="M54.645 20.627a14.232 14.232 0 0 0-10.973-5.115c-.588.01-.721-2.18-.004-2.191a16.426 16.426 0 0 1 12.66 5.904c.451.554-1.314 1.859-1.683 1.402zM20.326 15.361a14.24 14.24 0 0 0-10.973 5.115c-.369.461-2.133-.848-1.682-1.402a16.426 16.426 0 0 1 12.66-5.904c.718.012.583 2.203-.005 2.191z"
     id="path8" />
  <circle
     fill="#664E27"
     cx="32"
     cy="49.471"
     r="4.5"
     id="circle10" />
  <path
     fill="#FFF"
     d="M29.5 29.137a9 9 0 0 1-18 0c0-4.967 4.029-9 9-9 4.969 0 9 4.033 9 9z"
     id="path12" />
  <circle
     fill="#664E27"
     cx="20.5"
     cy="29.137"
     r="4.5"
     id="circle14" />
  <g
     id="g20">
    <path
       fill="#FFF"
       d="M52.5 29.137a9 9 0 0 1-18 0c0-4.967 4.029-9 9-9 4.969 0 9 4.033 9 9z"
       id="path16" />
    <circle
       fill="#664E27"
       cx="43.5"
       cy="29.137"
       r="4.5"
       id="circle18" />
  </g>
</svg>
