<?xml version="1.0" encoding="UTF-8" standalone="no"?>
<svg
   xmlns:dc="http://purl.org/dc/elements/1.1/"
   xmlns:cc="http://creativecommons.org/ns#"
   xmlns:rdf="http://www.w3.org/1999/02/22-rdf-syntax-ns#"
   xmlns:svg="http://www.w3.org/2000/svg"
   xmlns="http://www.w3.org/2000/svg"
   xmlns:sodipodi="http://sodipodi.sourceforge.net/DTD/sodipodi-0.dtd"
   xmlns:inkscape="http://www.inkscape.org/namespaces/inkscape"
   width="64"
   height="64"
   viewBox="0 0 64 64"
   version="1.1"
   id="svg12"
   sodipodi:docname="face-kiss.svg"
   inkscape:version="0.92.3 (2405546, 2018-03-11)">
  <metadata
     id="metadata18">
    <rdf:RDF>
      <cc:Work
         rdf:about="">
        <dc:format>image/svg+xml</dc:format>
        <dc:type
           rdf:resource="http://purl.org/dc/dcmitype/StillImage" />
      </cc:Work>
    </rdf:RDF>
  </metadata>
  <defs
     id="defs16">
    <pattern
       inkscape:stockid="Stripes 1:1"
       id="Strips1_1"
       patternTransform="translate(0,0) scale(10,10)"
       height="1"
       width="2"
       patternUnits="userSpaceOnUse"
       inkscape:collect="always">
      <rect
         id="rect1544"
         height="2"
         width="1"
         y="-0.5"
         x="0"
         style="fill:black;stroke:none" />
    </pattern>
  </defs>
  <sodipodi:namedview
     pagecolor="#ffffff"
     bordercolor="#666666"
     borderopacity="1"
     objecttolerance="10"
     gridtolerance="10"
     guidetolerance="10"
     inkscape:pageopacity="0"
     inkscape:pageshadow="2"
     inkscape:window-width="711"
     inkscape:window-height="480"
     id="namedview14"
     showgrid="false"
     inkscape:zoom="3.6875"
     inkscape:cx="26.418808"
     inkscape:cy="32"
     inkscape:window-x="0"
     inkscape:window-y="0"
     inkscape:window-maximized="0"
     inkscape:current-layer="svg12" />
  <circle
     fill="#FFDD67"
     cx="32"
     cy="32"
     r="30"
     id="circle2"
     style="fill:url(#Strips1_1);fill-opacity:1.0" />
  <path
     fill="#F46767"
     d="M50.853 57.997l.007.002-.006-.004-.005.004z"
     id="path4" />
  <ellipse
     fill="#664E27"
     cx="22"
     cy="27"
     rx="5"
     ry="6"
     id="ellipse6" />
  <path
     fill="#F46767"
     d="M61.366 42.567c-.908-1.805-2.732-2.988-4.986-2.834-2.332.16-4.117 1.412-5.586 3.471-1.484-2.043-3.281-3.285-5.613-3.424-2.254-.139-4.068 1.063-4.963 2.877-.902 1.836-.943 4.238.91 6.967 1.822 2.686 9.482 8.193 9.727 8.371.244-.182 7.859-5.756 9.66-8.449 1.832-2.742 1.771-5.149.851-6.979z"
     id="path8" />
  <path
     fill="#664E27"
     d="M51.852 30.541c-1.863-4.088-4.67-6.133-7.477-6.133s-5.613 2.045-7.477 6.133c-.185.412.776 1.154 1.256.75 1.808-1.52 3.966-2.127 6.221-2.127s4.413.607 6.221 2.127c.479.404 1.44-.338 1.256-.75zM39.542 50.37c1.582-1.638-1.828-2.965-1.828-5.87s3.41-4.232 1.828-5.87c-1.893-1.962-6.021-.479-8.58-3.13 0 2.151 1.805 4.5 5.18 4.5 0 0-2.295.925-2.295 4.5s2.295 4.5 2.295 4.5c-3.375 0-5.18 2.349-5.18 4.5 2.559-2.651 6.687-1.168 8.58-3.13z"
     id="path10" />
</svg>
