<?xml version="1.0" encoding="UTF-8" standalone="no"?>
<svg
   xmlns:dc="http://purl.org/dc/elements/1.1/"
   xmlns:cc="http://creativecommons.org/ns#"
   xmlns:rdf="http://www.w3.org/1999/02/22-rdf-syntax-ns#"
   xmlns:svg="http://www.w3.org/2000/svg"
   xmlns="http://www.w3.org/2000/svg"
   xmlns:sodipodi="http://sodipodi.sourceforge.net/DTD/sodipodi-0.dtd"
   xmlns:inkscape="http://www.inkscape.org/namespaces/inkscape"
   width="64"
   height="64"
   viewBox="0 0 64 64"
   version="1.1"
   id="svg12"
   sodipodi:docname="face-angel.svg"
   inkscape:version="0.92.3 (2405546, 2018-03-11)">
  <metadata
     id="metadata18">
    <rdf:RDF>
      <cc:Work
         rdf:about="">
        <dc:format>image/svg+xml</dc:format>
        <dc:type
           rdf:resource="http://purl.org/dc/dcmitype/StillImage" />
      </cc:Work>
    </rdf:RDF>
  </metadata>
  <defs
     id="defs16">
    <pattern
       inkscape:stockid="Stripes 1:1"
       id="Strips1_1"
       patternTransform="translate(0,0) scale(10,10)"
       height="1"
       width="2"
       patternUnits="userSpaceOnUse"
       inkscape:collect="always">
      <rect
         id="rect1544"
         height="2"
         width="1"
         y="-0.5"
         x="0"
         style="fill:black;stroke:none" />
    </pattern>
  </defs>
  <sodipodi:namedview
     pagecolor="#ffffff"
     bordercolor="#666666"
     borderopacity="1"
     objecttolerance="10"
     gridtolerance="10"
     guidetolerance="10"
     inkscape:pageopacity="0"
     inkscape:pageshadow="2"
     inkscape:window-width="711"
     inkscape:window-height="480"
     id="namedview14"
     showgrid="false"
     inkscape:zoom="3.6875"
     inkscape:cx="26.418808"
     inkscape:cy="32"
     inkscape:window-x="0"
     inkscape:window-y="0"
     inkscape:window-maximized="0"
     inkscape:current-layer="svg12" />
  <path
     fill="#FFDD67"
     d="M61 33c0 16.019-12.981 29-29 29C15.994 62 3 49.019 3 33 3 16.982 15.994 4 32 4c16.019 0 29 12.982 29 29z"
     id="path2"
     style="fill:url(#Strips1_1);fill-opacity:1.0" />
  <g
     fill="#664E27"
     id="g6">
    <path
       d="M28.642 34.414C26.844 29.473 24.137 27 21.429 27c-2.707 0-5.414 2.473-7.211 7.414-.177.498.749 1.395 1.213.907 1.741-1.838 3.825-2.569 5.998-2.569 2.176 0 4.259.731 6.001 2.569.463.488 1.388-.409 1.212-.907zM49.781 34.414C47.983 29.473 45.277 27 42.568 27c-2.706 0-5.414 2.473-7.211 7.414-.179.498.749 1.395 1.211.907 1.743-1.838 3.825-2.569 6-2.569 2.176 0 4.259.731 6.001 2.569.462.488 1.39-.409 1.212-.907z"
       id="path4" />
  </g>
  <path
     fill="#664E27"
     d="M44.165 42.248c-7.839 5.467-16.537 5.434-24.329 0-.938-.656-1.784.477-1.148 1.523 2.376 3.914 7.17 7.395 13.313 7.395 6.142 0 10.937-3.48 13.313-7.395.635-1.046-.21-2.179-1.149-1.523z"
     id="path8" />
  <path
     fill="#4AA9FF"
     d="M54.262 7.193c-.442-4.18-8.36-6.369-25.734-4.547-16.29 1.709-24.662 5.607-24.219 9.788.68 6.434 12.215 8.582 26.008 7.135 13.794-1.446 24.624-5.942 23.945-12.376zM29.58 12.602c-9.236.969-16.869.354-17.036-1.232-.062-.574.87-1.227 2.507-1.871C19.822 6.051 25.668 4 32 4a28.86 28.86 0 0 1 12.564 2.868c.873.265 1.377.599 1.418.993.168 1.588-7.169 3.772-16.402 4.741z"
     id="path10" />
</svg>
