<?xml version="1.0" encoding="UTF-8" standalone="no"?>
<svg
   xmlns:dc="http://purl.org/dc/elements/1.1/"
   xmlns:cc="http://creativecommons.org/ns#"
   xmlns:rdf="http://www.w3.org/1999/02/22-rdf-syntax-ns#"
   xmlns:svg="http://www.w3.org/2000/svg"
   xmlns="http://www.w3.org/2000/svg"
   xmlns:sodipodi="http://sodipodi.sourceforge.net/DTD/sodipodi-0.dtd"
   xmlns:inkscape="http://www.inkscape.org/namespaces/inkscape"
   width="64"
   height="64"
   viewBox="0 0 64 64"
   version="1.1"
   id="svg12"
   sodipodi:docname="face-kiss2.svg"
   inkscape:version="0.92.3 (2405546, 2018-03-11)">
  <metadata
     id="metadata18">
    <rdf:RDF>
      <cc:Work
         rdf:about="">
        <dc:format>image/svg+xml</dc:format>
        <dc:type
           rdf:resource="http://purl.org/dc/dcmitype/StillImage" />
      </cc:Work>
    </rdf:RDF>
  </metadata>
  <defs
     id="defs16">
    <pattern
       inkscape:stockid="Stripes 1:1"
       id="Strips1_1"
       patternTransform="translate(0,0) scale(10,10)"
       height="1"
       width="2"
       patternUnits="userSpaceOnUse"
       inkscape:collect="always">
      <rect
         id="rect1544"
         height="2"
         width="1"
         y="-0.5"
         x="0"
         style="fill:black;stroke:none" />
    </pattern>
  </defs>
  <sodipodi:namedview
     pagecolor="#ffffff"
     bordercolor="#666666"
     borderopacity="1"
     objecttolerance="10"
     gridtolerance="10"
     guidetolerance="10"
     inkscape:pageopacity="0"
     inkscape:pageshadow="2"
     inkscape:window-width="711"
     inkscape:window-height="480"
     id="namedview14"
     showgrid="false"
     inkscape:zoom="3.6875"
     inkscape:cx="21.344997"
     inkscape:cy="32"
     inkscape:window-x="0"
     inkscape:window-y="0"
     inkscape:window-maximized="0"
     inkscape:current-layer="svg12" />
  <circle
     fill="#FFDD67"
     cx="32.001"
     cy="32"
     r="30"
     id="circle2"
     style="fill:url(#Strips1_1);fill-opacity:1.0" />
  <path
     fill="#664E27"
     d="M45.588 45.434c1.273-1.887-2.314-2.602-2.819-5.463s2.624-4.761.781-6.099c-2.206-1.604-6.013.574-8.994-1.592.374 2.119 2.559 4.119 5.882 3.533 0 0-2.098 1.309-1.477 4.83.62 3.521 3.04 4.033 3.04 4.033-3.323.586-4.693 3.212-4.319 5.33 2.06-3.055 6.382-2.311 7.906-4.572z"
     id="path4" />
  <path
     opacity=".8"
     fill="#FF717F"
     d="M54.962 20.916c-4.181-1.048-8.226.393-9.035 3.216-.81 2.822 1.924 5.961 6.105 7.009 4.183 1.048 8.227-.391 9.035-3.216.81-2.824-1.923-5.962-6.105-7.009zM21.903 29.72c-2.435-2.941-8.303-3.016-13.115-.164-4.812 2.851-6.739 7.546-4.308 10.487 2.433 2.94 8.306 3.014 13.118.162 4.813-2.852 6.737-7.546 4.305-10.485z"
     id="path6" />
  <g
     fill="#664E27"
     id="g10">
    <path
       d="M35.154 17.678c5.531 7.101 13.885 5.625 16.654-2.937.135-.431-.436-.512-1.174-.844-3.584 4.003-10.367 4.888-14.666 2.588-.579.563-1.086.835-.814 1.193zM10.792 21.974c5.532 7.1 13.886 5.625 16.655-2.937.135-.43-.436-.512-1.174-.844-3.584 4.003-10.368 4.889-14.665 2.588-.581.562-1.088.834-.816 1.193z"
       id="path8" />
  </g>
</svg>
