<?xml version="1.0" encoding="UTF-8" standalone="no"?>
<svg
   xmlns:dc="http://purl.org/dc/elements/1.1/"
   xmlns:cc="http://creativecommons.org/ns#"
   xmlns:rdf="http://www.w3.org/1999/02/22-rdf-syntax-ns#"
   xmlns:svg="http://www.w3.org/2000/svg"
   xmlns="http://www.w3.org/2000/svg"
   xmlns:sodipodi="http://sodipodi.sourceforge.net/DTD/sodipodi-0.dtd"
   xmlns:inkscape="http://www.inkscape.org/namespaces/inkscape"
   width="64"
   height="64"
   viewBox="0 0 64 64"
   version="1.1"
   id="svg12"
   sodipodi:docname="face-smile-big.svg"
   inkscape:version="0.92.3 (2405546, 2018-03-11)">
  <metadata
     id="metadata18">
    <rdf:RDF>
      <cc:Work
         rdf:about="">
        <dc:format>image/svg+xml</dc:format>
        <dc:type
           rdf:resource="http://purl.org/dc/dcmitype/StillImage" />
      </cc:Work>
    </rdf:RDF>
  </metadata>
  <defs
     id="defs16">
    <pattern
       inkscape:stockid="Stripes 1:1"
       id="Strips1_1"
       patternTransform="translate(0,0) scale(10,10)"
       height="1"
       width="2"
       patternUnits="userSpaceOnUse"
       inkscape:collect="always">
      <rect
         id="rect1544"
         height="2"
         width="1"
         y="-0.5"
         x="0"
         style="fill:black;stroke:none" />
    </pattern>
  </defs>
  <sodipodi:namedview
     pagecolor="#ffffff"
     bordercolor="#666666"
     borderopacity="1"
     objecttolerance="10"
     gridtolerance="10"
     guidetolerance="10"
     inkscape:pageopacity="0"
     inkscape:pageshadow="2"
     inkscape:window-width="711"
     inkscape:window-height="480"
     id="namedview14"
     showgrid="false"
     inkscape:zoom="3.6875"
     inkscape:cx="-5.8305085"
     inkscape:cy="32"
     inkscape:window-x="0"
     inkscape:window-y="0"
     inkscape:window-maximized="0"
     inkscape:current-layer="svg12" />
  <circle
     fill="#FFDD67"
     cx="32"
     cy="32"
     r="30"
     id="circle2"
     style="fill:url(#Strips1_1);fill-opacity:1.0" />
  <circle
     fill="#664E27"
     cx="20.5"
     cy="24.5"
     r="5"
     id="circle4" />
  <circle
     fill="#664E27"
     cx="43.5"
     cy="24.5"
     r="5"
     id="circle6" />
  <path
     fill="#664E27"
     d="M49.001 38.05c0-.803-.475-1.808-1.822-2.066-3.465-.662-8.582-1.343-15.18-1.343-6.595 0-11.714.681-15.177 1.343-1.35.258-1.822 1.263-1.822 2.066 0 7.271 5.611 14.591 17 14.591 11.388 0 17.001-7.32 17.001-14.591z"
     id="path8" />
  <path
     fill="#FFF"
     d="M44.69 38.283c-2.195-.368-6.838-1.013-12.69-1.013-5.853 0-10.496.645-12.691 1.013-1.294.218-1.373.743-1.283 1.486.054.442.137.975.265 1.553.142.64.262.936 1.266.816 1.92-.229 22.967-.229 24.888 0 1.004.119 1.123-.177 1.266-.816.127-.578.211-1.11.264-1.553.088-.743.01-1.268-1.285-1.486z"
     id="path10" />
</svg>
