<?xml version="1.0" encoding="UTF-8" standalone="no"?>
<svg
   xmlns:dc="http://purl.org/dc/elements/1.1/"
   xmlns:cc="http://creativecommons.org/ns#"
   xmlns:rdf="http://www.w3.org/1999/02/22-rdf-syntax-ns#"
   xmlns:svg="http://www.w3.org/2000/svg"
   xmlns="http://www.w3.org/2000/svg"
   xmlns:sodipodi="http://sodipodi.sourceforge.net/DTD/sodipodi-0.dtd"
   xmlns:inkscape="http://www.inkscape.org/namespaces/inkscape"
   width="64"
   height="64"
   viewBox="0 0 64 64"
   version="1.1"
   id="svg20"
   sodipodi:docname="face-sick2.svg"
   inkscape:version="0.92.3 (2405546, 2018-03-11)">
  <metadata
     id="metadata26">
    <rdf:RDF>
      <cc:Work
         rdf:about="">
        <dc:format>image/svg+xml</dc:format>
        <dc:type
           rdf:resource="http://purl.org/dc/dcmitype/StillImage" />
      </cc:Work>
    </rdf:RDF>
  </metadata>
  <defs
     id="defs24">
    <pattern
       inkscape:stockid="Stripes 1:1"
       id="Strips1_1"
       patternTransform="translate(0,0) scale(10,10)"
       height="1"
       width="2"
       patternUnits="userSpaceOnUse"
       inkscape:collect="always">
      <rect
         id="rect1549"
         height="2"
         width="1"
         y="-0.5"
         x="0"
         style="fill:black;stroke:none" />
    </pattern>
  </defs>
  <sodipodi:namedview
     pagecolor="#ffffff"
     bordercolor="#666666"
     borderopacity="1"
     objecttolerance="10"
     gridtolerance="10"
     guidetolerance="10"
     inkscape:pageopacity="0"
     inkscape:pageshadow="2"
     inkscape:window-width="711"
     inkscape:window-height="480"
     id="namedview22"
     showgrid="false"
     inkscape:zoom="3.6875"
     inkscape:cx="40.625478"
     inkscape:cy="32"
     inkscape:window-x="0"
     inkscape:window-y="0"
     inkscape:window-maximized="0"
     inkscape:current-layer="svg20" />
  <circle
     fill="#FFDD67"
     cx="31.906"
     cy="32.094"
     r="29.906"
     id="circle2"
     style="fill:url(#Strips1_1);fill-opacity:1.0" />
  <circle
     fill="#664E27"
     cx="43.656"
     cy="30"
     r="5"
     id="circle4" />
  <circle
     fill="#664E27"
     cx="20.156"
     cy="30"
     r="5"
     id="circle6" />
  <path
     fill="#CCCFD4"
     d="M32 2a29.836 29.836 0 0 0-16.361 4.859c17.615 9.119 33.115 23.082 41.684 41.217A29.857 29.857 0 0 0 62 32C62 15.432 48.568 2 32 2z"
     id="path8" />
  <path
     fill="#FFF"
     d="M32.918 3.568c-5.5 0-10.617 1.631-14.904 4.428 16.684 7.688 31.572 19.311 39.377 35.832C60.475 37.982 60.25 30.9 60.25 30.9c0-15.095-12.236-27.332-27.332-27.332z"
     id="path10" />
  <path
     fill="#CCCFD4"
     d="M15.826 6.748a92.8 92.8 0 0 1 41.879 9.779 29.86 29.86 0 0 1 4.26 16.866A92.727 92.727 0 0 0 4.51 19.984 30.133 30.133 0 0 1 15.826 6.748z"
     id="path12" />
  <path
     fill="#FFF"
     d="M16.965 8.135c13.588-.059 27.635 3.977 39.777 9.623 3.346 6.539 3.477 11.863 3.477 11.863C43.828 20.9 24.891 16.525 7.361 18.176c0 0 4.239-7.776 9.604-10.041z"
     id="path14" />
  <g
     id="g18">
    <path
       fill="#664E27"
       d="M40.273 42.826c-5.766-1.549-12.049-.428-16.93 3.014-1.205.869 1.053 4.027 2.252 3.152 3.223-2.268 8.352-3.834 13.66-2.432 1.423.378 2.536-3.308 1.018-3.734z"
       id="path16" />
  </g>
</svg>
