<?xml version="1.0" encoding="UTF-8" standalone="no"?>
<svg
   xmlns:dc="http://purl.org/dc/elements/1.1/"
   xmlns:cc="http://creativecommons.org/ns#"
   xmlns:rdf="http://www.w3.org/1999/02/22-rdf-syntax-ns#"
   xmlns:svg="http://www.w3.org/2000/svg"
   xmlns="http://www.w3.org/2000/svg"
   xmlns:sodipodi="http://sodipodi.sourceforge.net/DTD/sodipodi-0.dtd"
   xmlns:inkscape="http://www.inkscape.org/namespaces/inkscape"
   width="64"
   height="64"
   viewBox="0 0 64 64"
   version="1.1"
   id="svg16"
   sodipodi:docname="face-laugh.svg"
   inkscape:version="0.92.3 (2405546, 2018-03-11)">
  <metadata
     id="metadata22">
    <rdf:RDF>
      <cc:Work
         rdf:about="">
        <dc:format>image/svg+xml</dc:format>
        <dc:type
           rdf:resource="http://purl.org/dc/dcmitype/StillImage" />
      </cc:Work>
    </rdf:RDF>
  </metadata>
  <defs
     id="defs20">
    <pattern
       inkscape:stockid="Stripes 1:1"
       id="Strips1_1"
       patternTransform="translate(0,0) scale(10,10)"
       height="1"
       width="2"
       patternUnits="userSpaceOnUse"
       inkscape:collect="always">
      <rect
         id="rect1545"
         height="2"
         width="1"
         y="-0.5"
         x="0"
         style="fill:black;stroke:none" />
    </pattern>
  </defs>
  <sodipodi:namedview
     pagecolor="#ffffff"
     bordercolor="#666666"
     borderopacity="1"
     objecttolerance="10"
     gridtolerance="10"
     guidetolerance="10"
     inkscape:pageopacity="0"
     inkscape:pageshadow="2"
     inkscape:window-width="711"
     inkscape:window-height="480"
     id="namedview18"
     showgrid="false"
     inkscape:zoom="3.6875"
     inkscape:cx="26.418808"
     inkscape:cy="32"
     inkscape:window-x="0"
     inkscape:window-y="0"
     inkscape:window-maximized="0"
     inkscape:current-layer="svg16" />
  <circle
     fill="#FFDD67"
     cx="32"
     cy="32"
     r="30"
     id="circle2"
     style="fill:url(#Strips1_1);fill-opacity:1.0" />
  <g
     fill="#664E27"
     id="g6">
    <path
       d="M51.67 19.376a.584.584 0 0 1-.167 1.094c-2.693.403-5.548.861-8.256 2.361 4.021.667 7.25 2.729 9.002 4.829.396.474-.099 1.116-.542.955-4.772-1.732-9.679-2.67-15.847-2.036-.485.05-.903-.231-.801-.678 1.647-7.204 10.913-9.922 16.611-6.525zM12.33 19.376a.584.584 0 0 0 .167 1.094c2.693.403 5.548.861 8.256 2.361-4.021.667-7.25 2.729-9.002 4.829-.396.474.1 1.116.542.955 4.772-1.732 9.679-2.67 15.847-2.036.486.05.903-.231.801-.678-1.647-7.204-10.913-9.922-16.611-6.525z"
       id="path4" />
  </g>
  <path
     fill="#664E27"
     d="M49.696 34.436c-.406-.52-1.127-.43-1.913-.43H16.216c-.785 0-1.506-.09-1.912.43C10.394 39.422 14.994 54 32 54c17.007 0 21.606-14.578 17.696-19.564z"
     id="path8" />
  <path
     fill="#4C3526"
     d="M33.842 41.741c-.578-.014-1.469.526-1.143 1.957.163.723 1.189 1.597 1.189 2.763 0 2.372-3.777 2.372-3.777 0 0-1.166 1.026-2.04 1.191-2.763.326-1.431-.565-1.971-1.145-1.957-1.571.041-4.149 1.736-4.149 4.604 0 3.224 2.684 5.836 5.991 5.836s5.991-2.612 5.991-5.836c.001-2.867-2.578-4.563-4.148-4.604z"
     id="path10" />
  <path
     fill="#FF717F"
     d="M24.287 50.665c2.23.956 4.801 1.517 7.714 1.517s5.483-.561 7.712-1.517c-2.149-1.032-4.71-1.663-7.712-1.663s-5.561.631-7.714 1.663z"
     id="path12" />
  <path
     fill="#FFF"
     d="M46.953 36H17.047c-2.053 0-2.053 4-.053 4h30.012c2.001 0 2.001-4-.053-4z"
     id="path14" />
</svg>
