<?xml version="1.0" encoding="UTF-8" standalone="no"?>
<svg
   xmlns:dc="http://purl.org/dc/elements/1.1/"
   xmlns:cc="http://creativecommons.org/ns#"
   xmlns:rdf="http://www.w3.org/1999/02/22-rdf-syntax-ns#"
   xmlns:svg="http://www.w3.org/2000/svg"
   xmlns="http://www.w3.org/2000/svg"
   xmlns:sodipodi="http://sodipodi.sourceforge.net/DTD/sodipodi-0.dtd"
   xmlns:inkscape="http://www.inkscape.org/namespaces/inkscape"
   width="64"
   height="64"
   viewBox="0 0 64 64"
   version="1.1"
   id="svg20"
   sodipodi:docname="face-worried.svg"
   inkscape:version="0.92.3 (2405546, 2018-03-11)">
  <metadata
     id="metadata26">
    <rdf:RDF>
      <cc:Work
         rdf:about="">
        <dc:format>image/svg+xml</dc:format>
        <dc:type
           rdf:resource="http://purl.org/dc/dcmitype/StillImage" />
      </cc:Work>
    </rdf:RDF>
  </metadata>
  <defs
     id="defs24">
    <pattern
       inkscape:stockid="Stripes 1:1"
       id="Strips1_1"
       patternTransform="translate(0,0) scale(10,10)"
       height="1"
       width="2"
       patternUnits="userSpaceOnUse"
       inkscape:collect="always">
      <rect
         id="rect1549"
         height="2"
         width="1"
         y="-0.5"
         x="0"
         style="fill:black;stroke:none" />
    </pattern>
  </defs>
  <sodipodi:namedview
     pagecolor="#ffffff"
     bordercolor="#666666"
     borderopacity="1"
     objecttolerance="10"
     gridtolerance="10"
     guidetolerance="10"
     inkscape:pageopacity="0"
     inkscape:pageshadow="2"
     inkscape:window-width="711"
     inkscape:window-height="480"
     id="namedview22"
     showgrid="false"
     inkscape:zoom="3.6875"
     inkscape:cx="-5.8305085"
     inkscape:cy="32"
     inkscape:window-x="0"
     inkscape:window-y="0"
     inkscape:window-maximized="0"
     inkscape:current-layer="svg20" />
  <circle
     fill="#FFDD67"
     cx="32"
     cy="32"
     r="30"
     id="circle2"
     style="fill:url(#Strips1_1);fill-opacity:1.0" />
  <path
     fill="#664E27"
     d="M40.313 48.141A8.312 8.312 0 0 1 32 56.454a8.313 8.313 0 0 1 0-16.626 8.31 8.31 0 0 1 8.313 8.313z"
     id="path4" />
  <path
     fill="#FFF"
     d="M26.184 44.781a6.717 6.717 0 0 1 11.634-.004l-11.634.004z"
     id="path6" />
  <circle
     fill="#664E27"
     cx="43.5"
     cy="33"
     r="4.5"
     id="circle8" />
  <circle
     fill="#664E27"
     cx="20.5"
     cy="33"
     r="4.5"
     id="circle10" />
  <g
     fill="#917524"
     id="g14">
    <path
       d="M25.578 17.906a14.235 14.235 0 0 1-11.694 3.133c-.578-.113-1.088 2.021-.385 2.156a16.424 16.424 0 0 0 13.493-3.615c.541-.469-.971-2.06-1.414-1.674zM50.113 20.887c-4.168.748-8.455-.4-11.691-3.133-.443-.389-1.955 1.205-1.412 1.674a16.418 16.418 0 0 0 13.492 3.615c.703-.135.191-2.27-.389-2.156z"
       id="path12" />
  </g>
  <g
     id="g18">
    <path
       fill="#65B1EF"
       d="M62 18.534c.002 9.377-12.744 9.379-12.744 0 0-6.85 6.373-13.533 6.373-13.533S62 11.687 62 18.534z"
       id="path16" />
  </g>
</svg>
