<?xml version="1.0" encoding="UTF-8" standalone="no"?>
<svg
   xmlns:dc="http://purl.org/dc/elements/1.1/"
   xmlns:cc="http://creativecommons.org/ns#"
   xmlns:rdf="http://www.w3.org/1999/02/22-rdf-syntax-ns#"
   xmlns:svg="http://www.w3.org/2000/svg"
   xmlns="http://www.w3.org/2000/svg"
   xmlns:sodipodi="http://sodipodi.sourceforge.net/DTD/sodipodi-0.dtd"
   xmlns:inkscape="http://www.inkscape.org/namespaces/inkscape"
   width="64"
   height="64"
   viewBox="0 0 64 64"
   version="1.1"
   id="svg32"
   sodipodi:docname="face-crying.svg"
   inkscape:version="0.92.3 (2405546, 2018-03-11)">
  <metadata
     id="metadata38">
    <rdf:RDF>
      <cc:Work
         rdf:about="">
        <dc:format>image/svg+xml</dc:format>
        <dc:type
           rdf:resource="http://purl.org/dc/dcmitype/StillImage" />
      </cc:Work>
    </rdf:RDF>
  </metadata>
  <defs
     id="defs36">
    <pattern
       inkscape:stockid="Stripes 1:1"
       id="Strips1_1"
       patternTransform="translate(0,0) scale(10,10)"
       height="1"
       width="2"
       patternUnits="userSpaceOnUse"
       inkscape:collect="always">
      <rect
         id="rect1561"
         height="2"
         width="1"
         y="-0.5"
         x="0"
         style="fill:black;stroke:none" />
    </pattern>
  </defs>
  <sodipodi:namedview
     pagecolor="#ffffff"
     bordercolor="#666666"
     borderopacity="1"
     objecttolerance="10"
     gridtolerance="10"
     guidetolerance="10"
     inkscape:pageopacity="0"
     inkscape:pageshadow="2"
     inkscape:window-width="711"
     inkscape:window-height="480"
     id="namedview34"
     showgrid="false"
     inkscape:zoom="3.6875"
     inkscape:cx="33.522143"
     inkscape:cy="32"
     inkscape:window-x="0"
     inkscape:window-y="0"
     inkscape:window-maximized="0"
     inkscape:current-layer="svg32" />
  <circle
     fill="#FFDD67"
     cx="32"
     cy="32"
     r="30"
     id="circle2"
     style="fill:url(#Strips1_1);fill-opacity:1.0" />
  <path
     fill="#664E27"
     d="M40.581 46.428c-5.403-2.538-11.786-2.54-17.196-.012-1.338.645.33 4.15 1.662 3.5 3.572-1.665 8.896-2.306 13.875.01 1.334.619 3.077-2.813 1.659-3.498z"
     id="path4" />
  <path
     fill="#FFF"
     d="M54 31a9 9 0 0 1-18 0c0-4.967 4.029-9 9-9 4.969 0 9 4.033 9 9z"
     id="path6" />
  <circle
     fill="#664E27"
     cx="45"
     cy="31"
     r="6"
     id="circle8" />
  <ellipse
     fill="#FFF"
     cx="46.552"
     cy="35.469"
     rx="2.812"
     ry="3.25"
     id="ellipse10" />
  <ellipse
     fill="#FFF"
     cx="42.779"
     cy="31"
     rx="1.645"
     ry="1.902"
     id="ellipse12" />
  <g
     id="g22">
    <path
       fill="#FFF"
       d="M28 31a9 9 0 0 1-18 0c0-4.967 4.029-9 9-9 4.969 0 9 4.033 9 9z"
       id="path14" />
    <circle
       fill="#664E27"
       cx="19"
       cy="31"
       r="6"
       id="circle16" />
    <ellipse
       fill="#FFF"
       cx="20.551"
       cy="35.469"
       rx="2.811"
       ry="3.25"
       id="ellipse18" />
    <ellipse
       fill="#FFF"
       cx="16.778"
       cy="31"
       rx="1.644"
       ry="1.902"
       id="ellipse20" />
  </g>
  <g
     id="g26">
    <path
       fill="#65B1EF"
       d="M46.996 36C41.916 42.771 39 49.002 39 54.123 39 58.475 42.58 62 47 62c4.416 0 8-3.525 8-7.877 0-5.121-3.004-11.457-8.004-18.123z"
       id="path24" />
  </g>
  <g
     fill="#917524"
     id="g30">
    <path
       d="M53.201 20.697a14.228 14.228 0 0 0-11.691-3.133c-.58.113-1.09-2.021-.387-2.156a16.417 16.417 0 0 1 13.492 3.615c.541.469-.969 2.061-1.414 1.674zM22.486 17.414c-4.168-.748-8.455.4-11.691 3.133-.443.389-1.955-1.205-1.412-1.674a16.418 16.418 0 0 1 13.492-3.615c.703.135.191 2.269-.389 2.156z"
       id="path28" />
  </g>
</svg>
