<?xml version="1.0" encoding="UTF-8" standalone="no"?>
<svg
   xmlns:dc="http://purl.org/dc/elements/1.1/"
   xmlns:cc="http://creativecommons.org/ns#"
   xmlns:rdf="http://www.w3.org/1999/02/22-rdf-syntax-ns#"
   xmlns:svg="http://www.w3.org/2000/svg"
   xmlns="http://www.w3.org/2000/svg"
   xmlns:sodipodi="http://sodipodi.sourceforge.net/DTD/sodipodi-0.dtd"
   xmlns:inkscape="http://www.inkscape.org/namespaces/inkscape"
   width="64"
   height="64"
   viewBox="0 0 64 64"
   version="1.1"
   id="svg30"
   sodipodi:docname="face-monkey.svg"
   inkscape:version="0.92.3 (2405546, 2018-03-11)">
  <metadata
     id="metadata36">
    <rdf:RDF>
      <cc:Work
         rdf:about="">
        <dc:format>image/svg+xml</dc:format>
        <dc:type
           rdf:resource="http://purl.org/dc/dcmitype/StillImage" />
      </cc:Work>
    </rdf:RDF>
  </metadata>
  <defs
     id="defs34">
    <pattern
       inkscape:stockid="Stripes 1:1"
       id="Strips1_1"
       patternTransform="translate(0,0) scale(10,10)"
       height="1"
       width="2"
       patternUnits="userSpaceOnUse"
       inkscape:collect="always">
      <rect
         id="rect1559"
         height="2"
         width="1"
         y="-0.5"
         x="0"
         style="fill:black;stroke:none" />
    </pattern>
  </defs>
  <sodipodi:namedview
     pagecolor="#ffffff"
     bordercolor="#666666"
     borderopacity="1"
     objecttolerance="10"
     gridtolerance="10"
     guidetolerance="10"
     inkscape:pageopacity="0"
     inkscape:pageshadow="2"
     inkscape:window-width="711"
     inkscape:window-height="480"
     id="namedview32"
     showgrid="false"
     inkscape:zoom="3.6875"
     inkscape:cx="35.551668"
     inkscape:cy="32"
     inkscape:window-x="0"
     inkscape:window-y="0"
     inkscape:window-maximized="0"
     inkscape:current-layer="svg30" />
  <ellipse
     fill="#89664C"
     cx="53.749"
     cy="32.969"
     rx="8.251"
     ry="8.231"
     id="ellipse2" />
  <ellipse
     fill="#FFC5D3"
     cx="53.749"
     cy="32.969"
     rx="5.372"
     ry="5.36"
     id="ellipse4" />
  <ellipse
     fill="#89664C"
     cx="10.25"
     cy="32.969"
     rx="8.25"
     ry="8.231"
     id="ellipse6" />
  <ellipse
     fill="#FFC5D3"
     cx="10.25"
     cy="32.969"
     rx="5.372"
     ry="5.36"
     id="ellipse8" />
  <path
     fill="#89664C"
     d="M43.375 10.781a24.032 24.032 0 0 1 1.887-.908c-3.238-1.138-6.047-1.803-8.478-2.105 1.278-.962 2.133-1.329 2.133-1.329C18.5 3.561 8.78 15.395 8.78 25.896l46.438.002c-.697-7.312-4.78-12.316-11.843-15.117z"
     id="path10" />
  <path
     fill="#89664C"
     d="M55.324 27.568c0-9.707-10.443-17.574-23.325-17.574S8.675 17.861 8.675 27.568c0 2.271.592 4.436 1.633 6.428-1.041 1.994-1.633 4.156-1.633 6.43C8.675 50.132 19.117 58 31.999 58s23.325-7.868 23.325-17.574c0-2.271-.592-4.436-1.633-6.43 1.041-1.992 1.633-4.156 1.633-6.428z"
     id="path12" />
  <path
     fill="#E0AC7E"
     d="M52.021 28.205c0-16.934-20.022-6.146-20.022-6.146s-20.021-10.788-20.021 6.146c0 4.738 2.918 8.962 7.474 11.719-1.329 1.657-2.106 3.592-2.106 5.666 0 6.082 6.562 11.01 14.654 11.01s14.653-4.928 14.653-11.01c0-2.074-.777-4.009-2.105-5.666 4.556-2.757 7.473-6.981 7.473-11.719z"
     id="path14"
     style="fill:url(#Strips1_1);fill-opacity:1.0" />
  <g
     fill="#3B302A"
     id="g18">
    <path
       d="M35.146 38.746c0 1.138-.447 2.057-1 2.057-.554 0-1-.919-1-2.057 0-1.133.446-2.059 1-2.059.553.001 1 .926 1 2.059zM30.854 38.746c0 1.138-.447 2.057-1 2.057-.554 0-1-.919-1-2.057 0-1.133.446-2.059 1-2.059.553.001 1 .926 1 2.059z"
       id="path16" />
  </g>
  <g
     id="g22">
    <ellipse
       fill="#3B302A"
       cx="40.684"
       cy="31.746"
       rx="3.5"
       ry="4.499"
       id="ellipse20" />
  </g>
  <g
     id="g26">
    <ellipse
       fill="#3B302A"
       cx="23.319"
       cy="31.746"
       rx="3.5"
       ry="4.499"
       id="ellipse24" />
  </g>
  <path
     fill="#3B302A"
     d="M41.844 44.497c1.429 1.215-2.943 6.941-9.844 6.977-6.901-.037-11.271-5.763-9.845-6.977.386-.329 5.154.942 9.844.942 4.689.001 9.459-1.27 9.845-.942z"
     id="path28" />
</svg>
