<?xml version="1.0" encoding="UTF-8" standalone="no"?>
<svg
   xmlns:dc="http://purl.org/dc/elements/1.1/"
   xmlns:cc="http://creativecommons.org/ns#"
   xmlns:rdf="http://www.w3.org/1999/02/22-rdf-syntax-ns#"
   xmlns:svg="http://www.w3.org/2000/svg"
   xmlns="http://www.w3.org/2000/svg"
   xmlns:sodipodi="http://sodipodi.sourceforge.net/DTD/sodipodi-0.dtd"
   xmlns:inkscape="http://www.inkscape.org/namespaces/inkscape"
   width="64"
   height="64"
   viewBox="0 0 64 64"
   version="1.1"
   id="svg10"
   sodipodi:docname="face-smirk.svg"
   inkscape:version="0.92.3 (2405546, 2018-03-11)">
  <metadata
     id="metadata16">
    <rdf:RDF>
      <cc:Work
         rdf:about="">
        <dc:format>image/svg+xml</dc:format>
        <dc:type
           rdf:resource="http://purl.org/dc/dcmitype/StillImage" />
      </cc:Work>
    </rdf:RDF>
  </metadata>
  <defs
     id="defs14">
    <pattern
       inkscape:stockid="Stripes 1:1"
       id="Strips1_1"
       patternTransform="translate(0,0) scale(10,10)"
       height="1"
       width="2"
       patternUnits="userSpaceOnUse"
       inkscape:collect="always">
      <rect
         id="rect1539"
         height="2"
         width="1"
         y="-0.5"
         x="0"
         style="fill:black;stroke:none" />
    </pattern>
  </defs>
  <sodipodi:namedview
     pagecolor="#ffffff"
     bordercolor="#666666"
     borderopacity="1"
     objecttolerance="10"
     gridtolerance="10"
     guidetolerance="10"
     inkscape:pageopacity="0"
     inkscape:pageshadow="2"
     inkscape:window-width="711"
     inkscape:window-height="480"
     id="namedview12"
     showgrid="false"
     inkscape:zoom="3.6875"
     inkscape:cx="30.477857"
     inkscape:cy="32"
     inkscape:window-x="0"
     inkscape:window-y="0"
     inkscape:window-maximized="0"
     inkscape:current-layer="svg10" />
  <path
     fill="#FFDD67"
     d="M62 32c0 16.572-13.426 30-29.997 30C15.428 62 2 48.572 2 32S15.428 2 32.003 2C48.574 2 62 15.428 62 32z"
     id="path2"
     style="fill:url(#Strips1_1);fill-opacity:1.0" />
  <path
     fill="#664E27"
     d="M53.884 30.844c-3.351-3.889-14.007-2.52-17.167 2.793-.229.395.377.962 1.115 1.41 2.139-1.498 4.642-2.336 7.19-2.516.009 2.808 2.228 5.084 4.968 5.084 3.966 0 5.861-4.491 3.894-6.771zM26.551 30.844c-3.349-3.888-14.006-2.521-17.168 2.795-.229.393.377.957 1.117 1.408 2.138-1.498 4.641-2.336 7.19-2.516.008 2.808 2.228 5.084 4.968 5.084 3.967 0 5.859-4.491 3.893-6.771zM25.803 51.776c5.803 1.402 15.055.046 19.847-3.518 1.183-.9-1.155-4-2.332-3.096-3.164 2.35-11.25 4.123-16.593 2.854-1.432-.338-2.45 3.375-.922 3.76z"
     id="path4" />
  <g
     fill="#917524"
     id="g8">
    <path
       d="M53.203 24.65a14.228 14.228 0 0 0-11.691-3.133c-.58.113-1.09-2.021-.387-2.156a16.417 16.417 0 0 1 13.492 3.615c.541.469-.969 2.061-1.414 1.674zM22.488 21.367c-4.168-.748-8.456.4-11.692 3.133-.443.389-1.955-1.205-1.412-1.674a16.42 16.42 0 0 1 13.493-3.615c.703.135.191 2.269-.389 2.156z"
       id="path6" />
  </g>
</svg>
