<?xml version="1.0" encoding="UTF-8" standalone="no"?>
<svg
   xmlns:dc="http://purl.org/dc/elements/1.1/"
   xmlns:cc="http://creativecommons.org/ns#"
   xmlns:rdf="http://www.w3.org/1999/02/22-rdf-syntax-ns#"
   xmlns:svg="http://www.w3.org/2000/svg"
   xmlns="http://www.w3.org/2000/svg"
   xmlns:sodipodi="http://sodipodi.sourceforge.net/DTD/sodipodi-0.dtd"
   xmlns:inkscape="http://www.inkscape.org/namespaces/inkscape"
   width="64"
   height="64"
   viewBox="0 0 64 64"
   version="1.1"
   id="svg24"
   sodipodi:docname="face-devilish.svg"
   inkscape:version="0.92.3 (2405546, 2018-03-11)">
  <metadata
     id="metadata30">
    <rdf:RDF>
      <cc:Work
         rdf:about="">
        <dc:format>image/svg+xml</dc:format>
        <dc:type
           rdf:resource="http://purl.org/dc/dcmitype/StillImage" />
      </cc:Work>
    </rdf:RDF>
  </metadata>
  <defs
     id="defs28">
    <pattern
       inkscape:stockid="Stripes 1:1"
       id="Strips1_1"
       patternTransform="translate(0,0) scale(10,10)"
       height="1"
       width="2"
       patternUnits="userSpaceOnUse"
       inkscape:collect="always">
      <rect
         id="rect1556"
         height="2"
         width="1"
         y="-0.5"
         x="0"
         style="fill:black;stroke:none" />
    </pattern>
  </defs>
  <sodipodi:namedview
     pagecolor="#ffffff"
     bordercolor="#666666"
     borderopacity="1"
     objecttolerance="10"
     gridtolerance="10"
     guidetolerance="10"
     inkscape:pageopacity="0"
     inkscape:pageshadow="2"
     inkscape:window-width="711"
     inkscape:window-height="480"
     id="namedview26"
     showgrid="false"
     inkscape:zoom="3.6875"
     inkscape:cx="28.448332"
     inkscape:cy="32"
     inkscape:window-x="0"
     inkscape:window-y="0"
     inkscape:window-maximized="0"
     inkscape:current-layer="svg24" />
  <circle
     fill="#F46767"
     cx="32"
     cy="32.001"
     r="30"
     id="circle2"
     style="fill:url(#Strips1_1);fill-opacity:1.0" />
  <g
     fill="#FFDD67"
     id="g6">
    <path
       d="M16.654 10.284C11.064 7.616 7.441 2.14 7.441 2.14c-1.545 14.431 4.344 17.934 7.678 17.999 4.465.092 7.986-6.776 1.535-9.855zM47.346 10.284c5.588-2.668 9.213-8.144 9.213-8.144 1.545 14.431-4.346 17.934-7.678 17.999-4.465.092-7.988-6.776-1.535-9.855z"
       id="path4" />
  </g>
  <path
     fill="#493B30"
     d="M17.316 43.326c2.475 1.455 4.865 2.338 7.314 2.924 2.439.586 4.9.836 7.369.84 2.471-.01 4.93-.26 7.367-.846 2.449-.586 4.838-1.467 7.316-2.918-1.061 2.717-3.416 4.854-6.043 6.221-2.654 1.379-5.662 2.043-8.641 2.041-2.979-.004-5.984-.668-8.637-2.047-2.625-1.367-4.98-3.502-6.045-6.215z"
     id="path8" />
  <path
     fill="#FFF"
     d="M52.291 26.758a8.613 8.613 0 0 1-4.168 11.449 8.614 8.614 0 0 1-11.449-4.166c-1.514-3.248 14.103-10.531 15.617-7.283z"
     id="path10" />
  <path
     fill="#493B30"
     d="M49.762 27.938a5.828 5.828 0 0 1-2.816 7.742 5.827 5.827 0 0 1-7.742-2.818c-.864-1.852 9.694-6.776 10.558-4.924z"
     id="path12" />
  <path
     fill="#493B30"
     d="M53.895 27.086c-1.87.181-3.539.459-5.153.89a27.599 27.599 0 0 0-4.622 1.668 27.112 27.112 0 0 0-4.25 2.448c-1.365.957-2.645 2.057-3.975 3.387.203-1.885 1.128-3.655 2.369-5.116 1.249-1.46 2.852-2.64 4.596-3.44a13.67 13.67 0 0 1 5.591-1.279c1.912-.009 3.858.407 5.444 1.442z"
     id="path14" />
  <g
     id="g22">
    <path
       fill="#FFF"
       d="M11.709 26.758a8.613 8.613 0 0 0 4.168 11.449 8.612 8.612 0 0 0 11.447-4.166c1.516-3.248-14.103-10.531-15.615-7.283z"
       id="path16" />
    <path
       fill="#493B30"
       d="M14.238 27.938a5.825 5.825 0 1 0 10.558 4.924c.862-1.852-9.694-6.776-10.558-4.924z"
       id="path18" />
    <path
       fill="#493B30"
       d="M10.105 27.086c1.586-1.035 3.531-1.451 5.444-1.443a13.67 13.67 0 0 1 5.591 1.279c1.744.802 3.346 1.981 4.595 3.441 1.241 1.46 2.167 3.23 2.37 5.115-1.33-1.33-2.61-2.43-3.975-3.386a27.37 27.37 0 0 0-4.25-2.449 27.717 27.717 0 0 0-4.622-1.667c-1.613-.431-3.282-.709-5.153-.89z"
       id="path20" />
  </g>
</svg>
