<?xml version="1.0" encoding="UTF-8" standalone="no"?>
<svg
   xmlns:dc="http://purl.org/dc/elements/1.1/"
   xmlns:cc="http://creativecommons.org/ns#"
   xmlns:rdf="http://www.w3.org/1999/02/22-rdf-syntax-ns#"
   xmlns:svg="http://www.w3.org/2000/svg"
   xmlns="http://www.w3.org/2000/svg"
   xmlns:xlink="http://www.w3.org/1999/xlink"
   xmlns:sodipodi="http://sodipodi.sourceforge.net/DTD/sodipodi-0.dtd"
   xmlns:inkscape="http://www.inkscape.org/namespaces/inkscape"
   height="48"
   width="48"
   version="1.1"
   id="svg18"
   sodipodi:docname="1password.svg"
   inkscape:version="0.92.3 (2405546, 2018-03-11)">
  <metadata
     id="metadata24">
    <rdf:RDF>
      <cc:Work
         rdf:about="">
        <dc:format>image/svg+xml</dc:format>
        <dc:type
           rdf:resource="http://purl.org/dc/dcmitype/StillImage" />
      </cc:Work>
    </rdf:RDF>
  </metadata>
  <defs
     id="defs22">
    <pattern
       inkscape:stockid="Stripes 1:1"
       id="Strips1_1"
       patternTransform="translate(0,0) scale(10,10)"
       height="1"
       width="2"
       patternUnits="userSpaceOnUse"
       inkscape:collect="always">
      <rect
         id="rect1550"
         height="2"
         width="1"
         y="-0.5"
         x="0"
         style="fill:black;stroke:none" />
    </pattern>
  </defs>
  <sodipodi:namedview
     pagecolor="#ffffff"
     bordercolor="#666666"
     borderopacity="1"
     objecttolerance="10"
     gridtolerance="10"
     guidetolerance="10"
     inkscape:pageopacity="0"
     inkscape:pageshadow="2"
     inkscape:window-width="1152"
     inkscape:window-height="802"
     id="namedview20"
     showgrid="false"
     inkscape:zoom="4.9166667"
     inkscape:cx="-4.3728814"
     inkscape:cy="24"
     inkscape:window-x="-8"
     inkscape:window-y="-8"
     inkscape:window-maximized="1"
     inkscape:current-layer="svg18" />
  <linearGradient
     id="a">
    <stop
       offset="0"
       stop-color="#197cf1"
       id="stop2" />
    <stop
       offset="1"
       stop-color="#20bcfa"
       id="stop4" />
  </linearGradient>
  <linearGradient
     id="b"
     gradientUnits="userSpaceOnUse"
     x1="487.74164"
     x2="493.5094"
     xlink:href="#a"
     y1="985.34576"
     y2="11.610633" />
  <linearGradient
     id="c"
     gradientUnits="userSpaceOnUse"
     x1="34.902462"
     x2="946.34857"
     xlink:href="#a"
     y1="490.62549"
     y2="490.62549" />
  <linearGradient
     id="d"
     gradientTransform="matrix(1.0621125 0 0 1.0621124 476.71574 529.94298)"
     gradientUnits="userSpaceOnUse"
     x1="34.902462"
     x2="946.34857"
     xlink:href="#a"
     y1="490.62549"
     y2="490.62549" />
  <g
     fill="url(#c)"
     stroke-width="9.512438"
     transform="matrix(.864715089219 0 0 .864715101224 -399.309437901486 -444.81158016839)"
     id="g16"
     style="fill:url(#Strips1_1);fill-opacity:1.0">
    <path
       d="m946.23 206.651c-.3-23-18-42-40.899-44.101-190.3-17.8-345.601-119.5-396.8-156.7-10.7-7.8-25.2-7.8-35.9 0-51.1 37.2-206.4 138.9-396.7 156.7-22.9 2.101-40.5 21.101-40.9 44.101-2.3 150.1 21.8 659.699 444.1 773.1 7.5 2 15.4 2 22.9 0 422.3-113.3 446.399-623.001 444.199-773.1z"
       fill="url(#b)"
       transform="matrix(.05185606 0 0 .05185606 464.01918 516.71536)"
       id="path10"
       style="fill:url(#Strips1_1);fill-opacity:1.0" />
    <path
       d="m946.23 206.651c-.3-23-18-42-40.899-44.101-190.3-17.8-345.601-119.5-396.8-156.7-10.7-7.8-25.2-7.8-35.9 0-51.1 37.2-206.4 138.9-396.7 156.7-22.9 2.101-40.5 21.101-40.9 44.101-2.3 150.1 21.8 659.699 444.1 773.1 7.5 2 15.4 2 22.9 0 422.3-113.3 446.399-623.001 444.199-773.1z"
       fill="#fff"
       opacity=".675"
       transform="matrix(.03985431 0 0 .04023645 469.87887 522.85863)"
       id="path12"
       style="fill:url(#Strips1_1);fill-opacity:1.0" />
    <path
       d="m489.46109 547.99889a2.1242249 2.1242249 0 0 0 2.12423-2.12423c0-1.17894-.9559-2.12422-2.12423-2.12422a2.1242249 2.1242249 0 0 0 -2.12422 2.12422 2.1242249 2.1242249 0 0 0 2.12422 2.12423m6.37268-9.55902a2.1242249 2.1242249 0 0 1 2.12422 2.12423v10.62112a2.1242249 2.1242249 0 0 1 -2.12422 2.12423h-12.74535a2.1242249 2.1242249 0 0 1 -2.12423-2.12423v-10.62112c0-1.17895.9559-2.12423 2.12423-2.12423h1.06211v-2.12422a5.3105623 5.3105622 0 0 1 5.31056-5.31056 5.3105623 5.3105622 0 0 1 5.31056 5.31056v2.12422zm-6.37268-5.31056a3.1863374 3.1863373 0 0 0 -3.18634 3.18634v2.12422h6.37268v-2.12422a3.1863374 3.1863373 0 0 0 -3.18634-3.18634z"
       id="path14"
       style="fill:url(#Strips1_1);fill-opacity:1.0"
       fill="url(#d)" />
  </g>
</svg>
