<?xml version="1.0" encoding="UTF-8" standalone="no"?>
<svg
   xmlns:dc="http://purl.org/dc/elements/1.1/"
   xmlns:cc="http://creativecommons.org/ns#"
   xmlns:rdf="http://www.w3.org/1999/02/22-rdf-syntax-ns#"
   xmlns:svg="http://www.w3.org/2000/svg"
   xmlns="http://www.w3.org/2000/svg"
   xmlns:sodipodi="http://sodipodi.sourceforge.net/DTD/sodipodi-0.dtd"
   xmlns:inkscape="http://www.inkscape.org/namespaces/inkscape"
   height="48"
   width="48"
   version="1.1"
   id="svg13"
   sodipodi:docname="4137_winhlp32.0.svg"
   inkscape:version="0.92.3 (2405546, 2018-03-11)">
  <metadata
     id="metadata19">
    <rdf:RDF>
      <cc:Work
         rdf:about="">
        <dc:format>image/svg+xml</dc:format>
        <dc:type
           rdf:resource="http://purl.org/dc/dcmitype/StillImage" />
      </cc:Work>
    </rdf:RDF>
  </metadata>
  <defs
     id="defs17">
    <pattern
       inkscape:stockid="Stripes 1:1"
       id="Strips1_1"
       patternTransform="translate(0,0) scale(10,10)"
       height="1"
       width="2"
       patternUnits="userSpaceOnUse"
       inkscape:collect="always">
      <rect
         id="rect1542"
         height="2"
         width="1"
         y="-0.5"
         x="0"
         style="fill:black;stroke:none" />
    </pattern>
  </defs>
  <sodipodi:namedview
     pagecolor="#ffffff"
     bordercolor="#666666"
     borderopacity="1"
     objecttolerance="10"
     gridtolerance="10"
     guidetolerance="10"
     inkscape:pageopacity="0"
     inkscape:pageshadow="2"
     inkscape:window-width="711"
     inkscape:window-height="480"
     id="namedview15"
     showgrid="false"
     inkscape:zoom="4.9166667"
     inkscape:cx="21.336249"
     inkscape:cy="24"
     inkscape:window-x="0"
     inkscape:window-y="0"
     inkscape:window-maximized="0"
     inkscape:current-layer="g11" />
  <linearGradient
     id="a"
     gradientUnits="userSpaceOnUse"
     x1="409.457275127619"
     x2="409.457275127619"
     y1="542.03546175064"
     y2="505.36882205064">
    <stop
       offset="0"
       stop-color="#197cf1"
       id="stop2" />
    <stop
       offset="1"
       stop-color="#20bcfa"
       id="stop4" />
  </linearGradient>
  <g
     transform="matrix(1.200000330887 0 0 1.200000330887 -466.248858881076 -604.442748595101)"
     id="g11"
     style="fill:url(#Strips1_1);fill-opacity:1.0">
    <rect
       fill="url(#a)"
       height="36.666637"
       ry="18.333319"
       width="36.666656"
       x="390.20728"
       y="505.36884"
       id="rect7"
       style="fill:url(#Strips1_1);fill-opacity:1.0" />
    <path
       d="m363.30019 530.14047q-.21375.225-.54.225-.32625 0-.55125-.225-.21375-.225-.21375-.54 0-.315.21375-.54.225-.225.55125-.225.32625 0 .54.225.225.225.225.54 0 .315-.225.54zm-.0112-2.34h-1.0575v-.52875q0-.50625.21375-.86625.21375-.37125.75375-.86625.30375-.28125.4275-.41625.135-.14625.25875-.39375.135-.25875.135-.52875 0-.5175-.3375-.8325-.32625-.315-.91125-.315-.9675 0-1.3275 1.08l-.9675-.405q.23625-.64125.81-1.1475.585-.5175 1.485-.5175 1.02375 0 1.665.6075.64125.59625.64125 1.53 0 .405-.21375.82125-.21375.41625-.3825.59625-.1575.16875-.45.43875-.0337.0337-.0562.0562-.68625.61875-.68625 1.2375v.45z"
       fill="#fff"
       fill-opacity=".850807"
       transform="matrix(2.565579835922 0 0 2.484190859191 -522.603394487568 -782.838401503361)"
       id="path9"
       style="fill:#b3b3b3;fill-opacity:1" />
  </g>
</svg>
