<?xml version="1.0" encoding="UTF-8" standalone="no"?>
<svg
   xmlns:dc="http://purl.org/dc/elements/1.1/"
   xmlns:cc="http://creativecommons.org/ns#"
   xmlns:rdf="http://www.w3.org/1999/02/22-rdf-syntax-ns#"
   xmlns:svg="http://www.w3.org/2000/svg"
   xmlns="http://www.w3.org/2000/svg"
   xmlns:sodipodi="http://sodipodi.sourceforge.net/DTD/sodipodi-0.dtd"
   xmlns:inkscape="http://www.inkscape.org/namespaces/inkscape"
   viewBox="0 0 48 48"
   version="1.1"
   id="svg24"
   sodipodi:docname="56B4_Battle.net_Launcher.0.svg"
   inkscape:version="0.92.3 (2405546, 2018-03-11)">
  <metadata
     id="metadata30">
    <rdf:RDF>
      <cc:Work
         rdf:about="">
        <dc:format>image/svg+xml</dc:format>
        <dc:type
           rdf:resource="http://purl.org/dc/dcmitype/StillImage" />
      </cc:Work>
    </rdf:RDF>
  </metadata>
  <defs
     id="defs28">
    <pattern
       inkscape:isstock="true"
       inkscape:stockid="Stripes 1:1"
       id="Strips1_1"
       patternTransform="translate(0,0) scale(10,10)"
       height="1"
       width="2"
       patternUnits="userSpaceOnUse"
       inkscape:collect="always">
      <rect
         id="rect1570"
         height="2"
         width="1"
         y="-0.5"
         x="0"
         style="fill:black;stroke:none" />
    </pattern>
    <meshgradient
       inkscape:collect="always"
       id="meshgradient840"
       gradientUnits="userSpaceOnUse"
       x="6.3655944"
       y="-4.7289467">
      <meshrow
         id="meshrow842">
        <meshpatch
           id="meshpatch844">
          <stop
             path="c 3.7087,0  7.41741,0  11.1261,0"
             style="stop-color:#000000;stop-opacity:1"
             id="stop846" />
          <stop
             path="c 0,3.7087  0,7.41741  0,11.1261"
             style="stop-color:#ffffff;stop-opacity:1"
             id="stop848" />
          <stop
             path="c -3.7087,0  -7.41741,0  -11.1261,0"
             style="stop-color:#000000;stop-opacity:1"
             id="stop850" />
          <stop
             path="c 0,-3.7087  0,-7.41741  0,-11.1261"
             style="stop-color:#ffffff;stop-opacity:1"
             id="stop852" />
        </meshpatch>
      </meshrow>
    </meshgradient>
    <meshgradient
       inkscape:collect="always"
       id="meshgradient2288"
       gradientUnits="userSpaceOnUse"
       x="6.3655944"
       y="-4.7289467">
      <meshrow
         id="meshrow2300">
        <meshpatch
           id="meshpatch2298">
          <stop
             id="stop2290"
             style="stop-color:#000000;stop-opacity:1"
             path="c 3.7087,0  7.41741,0  11.1261,0" />
          <stop
             id="stop2292"
             style="stop-color:#ffffff;stop-opacity:1"
             path="c 0,3.7087  0,7.41741  0,11.1261" />
          <stop
             id="stop2294"
             style="stop-color:#000000;stop-opacity:1"
             path="c -3.7087,0  -7.41741,0  -11.1261,0" />
          <stop
             id="stop2296"
             style="stop-color:#ffffff;stop-opacity:1"
             path="c 0,-3.7087  0,-7.41741  0,-11.1261" />
        </meshpatch>
      </meshrow>
    </meshgradient>
  </defs>
  <sodipodi:namedview
     pagecolor="#ffffff"
     bordercolor="#666666"
     borderopacity="1"
     objecttolerance="10"
     gridtolerance="10"
     guidetolerance="10"
     inkscape:pageopacity="0"
     inkscape:pageshadow="2"
     inkscape:window-width="1152"
     inkscape:window-height="802"
     id="namedview26"
     showgrid="false"
     inkscape:zoom="4.9166667"
     inkscape:cx="-4.5401859"
     inkscape:cy="24"
     inkscape:window-x="-8"
     inkscape:window-y="-8"
     inkscape:window-maximized="1"
     inkscape:current-layer="g22" />
  <linearGradient
     id="a"
     gradientUnits="userSpaceOnUse"
     x1="399.57144"
     x2="399.57144"
     y1="545.79797"
     y2="517.79797">
    <stop
       offset="0"
       stop-color="#3889e9"
       id="stop2" />
    <stop
       offset="1"
       stop-color="#5ea5fb"
       id="stop4" />
  </linearGradient>
  <linearGradient
     id="b"
     gradientUnits="userSpaceOnUse"
     x1="399.9939"
     x2="399.9939"
     y1="545.13873"
     y2="518.13873"
     gradientTransform="translate(1.0354383,-0.90600852)">
    <stop
       offset="0"
       stop-color="#4c93dd"
       id="stop7" />
    <stop
       offset="1"
       stop-color="#56c5fd"
       id="stop9" />
  </linearGradient>
  <g
     transform="matrix(3.9546609,0,0,3.9546609,-19.919529,18.870871)"
     id="g22"
     style="fill:url(#meshgradient840);fill-opacity:1;enable-background:new">
    <g
       transform="matrix(0.39736146,0,0,0.39736146,-148.58018,-209.71044)"
       id="g18"
       style="fill:url(#meshgradient2288);fill-opacity:1;stroke-width:1.29999995;enable-background:new">
      <circle
         cx="401.60681"
         cy="530.89191"
         r="13.999958"
         id="circle12"
         style="fill:url(#Strips1_1);fill-opacity:1.0" />
      <circle
         cx="400.57144"
         cy="531.79797"
         r="13.999958"
         id="circle14"
         style="fill:none;fill-opacity:1" />
      <circle
         cx="400.57138"
         cy="531.79791"
         r="0"
         id="circle16"
         style="fill:url(#a);fill-opacity:1" />
    </g>
    <path
       d="m 10.022082,-1.9932669 c -0.3583984,0.054218 -0.5398204,0.5351776 -0.5588564,1.22636684 -0.115539,-0.17193061 -0.256469,-0.29558554 -0.424693,-0.27352344 -0.301866,0.0556238 -0.430835,0.49322544 -0.411466,1.05063164 -0.5183755,0.033602 -1.0176022,0.1274764 -1.4644595,0.3018676 0.4513711,-0.0821267 0.9573523,-0.1037658 1.4772145,-0.0807814 0.03921,0.3872366 0.143431,0.81194636 0.311788,1.20605356 -0.385459,0.512658 -0.9138743,1.468313 -0.5720838,1.96521 0.2334638,0.298419 0.7784438,0.198128 1.4261946,-0.163453 -0.1264548,0.221165 -0.1953788,0.44973 -0.07086,0.607514 0.1974728,0.225651 0.6223676,0.123688 1.0775576,-0.16109 0.280456,0.42063 0.601453,0.796619 0.964182,1.091258 -0.286604,-0.342971 -0.549404,-0.75939 -0.782305,-1.20936 0.324497,-0.234905 0.650955,-0.555025 0.912689,-0.915523 0.633665,0.07096 1.747083,0.03937 2.000168,-0.515395 0.130176,-0.337974 -0.197331,-0.733794 -0.787501,-1.0922034 0.224324,-0.0065 0.420225,-0.064547 0.49083,-0.23195166 0.104632,-0.2866427 -0.201372,-0.616874 -0.68499,-0.8819824 0.229975,-0.4538285 0.400655,-0.92142011 0.47902,-1.38556764 -0.158652,0.4210628 -0.39328,0.85774754 -0.672235,1.28447264 -0.376024,-0.1748957 -0.828639,-0.3079962 -1.283055,-0.3576114 C 11.192607,-1.1169554 10.621205,-2.0466357 10.022082,-1.9932669 Z m 3.382429,0.5380707 c 2.9e-4,-7.74e-4 6.53e-4,-0.00157 9.43e-4,-0.00237 h -4.84e-4 c -1.32e-4,7.739e-4 -3.38e-4,0.00157 -4.84e-4,0.00237 z m -2.988443,0.2338411 c 0.247432,0.00275 0.49828,0.37162504 0.758213,0.67223414 -0.453409,-0.014341 -0.888322,0.066281 -1.2273116,0.2791922 0.01788,-0.4950274 0.1417006,-0.84739384 0.3949316,-0.94056094 0.02473,-0.00758 0.0494,-0.011141 0.07417,-0.010865 z m -1.1696764,0.60562504 c 0.07331,0.00766 0.146312,0.069548 0.218724,0.150225 0.0054,0.150755 0.01736,0.3089937 0.0359,0.4728787 -0.171136,-0.0099 -0.341526,-0.012181 -0.511144,-0.010393 0.01034,-0.312585 0.07273,-0.5459661 0.182349,-0.6009008 0.0248,-0.010901 0.04947,-0.014391 0.07417,-0.011811 z m 1.8234874,0.3240705 c 0.150393,0.00759 0.30082,0.030593 0.449731,0.059996 0.01792,0.010224 0.03581,0.021053 0.05385,0.028817 -0.0014,-0.00501 -0.0051,-0.013194 -0.0066,-0.018423 0.355756,0.075303 0.691408,0.2008358 0.965125,0.3439118 -0.09329,0.1314297 -0.193288,0.258449 -0.293366,0.385955 -0.138128,-0.2156359 -0.348439,-0.4142982 -0.65051,-0.5838943 v 4.838e-4 c 0.250199,0.205022 0.418072,0.420932 0.521065,0.6410551 -0.591343,-0.2217843 -1.275101,-0.3991205 -1.979855,-0.4913025 0,0 -0.03085,0.3306971 -0.01984,0.3117883 0.808993,0.1601586 1.575854,0.4164358 2.127246,0.71002656 0.03248,0.8717967 -0.748314,1.7207967 -1.401158,2.1494487 -0.06571,-0.139946 -0.124242,-0.283425 -0.183765,-0.427056 0.246728,-0.01358 0.513699,-0.09157 0.801201,-0.256989 -0.307154,0.110961 -0.580949,0.143594 -0.824349,0.11763 0.499924,-0.396778 1.010151,-0.899485 1.456428,-1.465405 0,0 -0.267523,-0.1959628 -0.256517,-0.1762072 -0.560307,0.6206132 -1.182736,1.1532432 -1.722393,1.4748522 -0.4612584,-0.258101 -0.7601754,-0.768114 -0.9330014,-1.303841 -4.6e-4,-0.012829 4.11e-4,-0.026365 -9.43e-4,-0.038737 -0.0025,0.00246 -0.006,0.00736 -0.0085,0.00992 -0.100062,-0.31916176 -0.154888,-0.64129726 -0.170543,-0.92685986 0.150128,0.012379 0.29959,0.032751 0.449731,0.051964 -0.09622,0.2095664 -0.154017,0.4606025 -0.156839,0.76482586 0.05275,-0.28336726 0.145464,-0.51154326 0.265965,-0.69727176 0.101052,0.6177666 0.2842468,1.29172326 0.5494074,1.94206226 0,0 0.30215,-0.137943 0.280137,-0.137943 v -9.43e-4 C 10.119652,1.3911159 9.9630714,0.59510324 9.9460264,-0.03040486 c 0.3211116,-0.2125978 0.7185366,-0.2816844 1.1238546,-0.2612407 z m 1.682711,0.5413775 c 0.258427,0.1657719 0.423236,0.3356666 0.414773,0.4568169 -0.0138,0.1168603 -0.148879,0.1615577 -0.309899,0.1899075 -0.122657,-0.064244 -0.254204,-0.1260131 -0.392097,-0.1861282 0.102178,-0.1506681 0.197244,-0.304721 0.287223,-0.4605962 z M 12.447888,1.2181509 c 0.421633,0.260601 0.666811,0.543032 0.622631,0.810177 -0.06416,0.283159 -0.580486,0.312665 -1.014728,0.40249 0.241343,-0.38848 0.397227,-0.80937 0.392097,-1.212667 z m -3.3791214,0.468155 c 0.206684,0.398793 0.481745,0.743055 0.8224588,0.945285 -0.4284308,0.217893 -0.7864648,0.278961 -0.9887458,0.107708 -0.206299,-0.196013 0.01956,-0.640614 0.166287,-1.052993 z m 1.2839994,1.202274 c 0.08249,0.166916 0.171951,0.329011 0.265492,0.487523 -0.259637,0.138499 -0.478261,0.196843 -0.577752,0.133218 -0.1052456,-0.07493 -0.06319,-0.236983 0,-0.410048 0.102576,-0.06475 0.206673,-0.134724 0.31226,-0.210693 z"
       id="path20"
       style="fill:#b3b3b3;fill-opacity:1;stroke-width:0.24187201"
       inkscape:connector-curvature="0" />
  </g>
</svg>
