<?xml version="1.0" encoding="UTF-8" standalone="no"?>
<svg
   xmlns:dc="http://purl.org/dc/elements/1.1/"
   xmlns:cc="http://creativecommons.org/ns#"
   xmlns:rdf="http://www.w3.org/1999/02/22-rdf-syntax-ns#"
   xmlns:svg="http://www.w3.org/2000/svg"
   xmlns="http://www.w3.org/2000/svg"
   xmlns:xlink="http://www.w3.org/1999/xlink"
   xmlns:sodipodi="http://sodipodi.sourceforge.net/DTD/sodipodi-0.dtd"
   xmlns:inkscape="http://www.inkscape.org/namespaces/inkscape"
   viewBox="0 0 48 48"
   version="1.1"
   id="svg31"
   sodipodi:docname="5C12_World_of_Warcraft_Launcher.0.svg"
   inkscape:version="0.92.3 (2405546, 2018-03-11)">
  <metadata
     id="metadata37">
    <rdf:RDF>
      <cc:Work
         rdf:about="">
        <dc:format>image/svg+xml</dc:format>
        <dc:type
           rdf:resource="http://purl.org/dc/dcmitype/StillImage" />
      </cc:Work>
    </rdf:RDF>
  </metadata>
  <defs
     id="defs35">
    <pattern
       inkscape:stockid="Stripes 1:1"
       id="Strips1_1"
       patternTransform="translate(0,0) scale(10,10)"
       height="1"
       width="2"
       patternUnits="userSpaceOnUse"
       inkscape:collect="always">
      <rect
         id="rect1560"
         height="2"
         width="1"
         y="-0.5"
         x="0"
         style="fill:black;stroke:none" />
    </pattern>
  </defs>
  <sodipodi:namedview
     pagecolor="#ffffff"
     bordercolor="#666666"
     borderopacity="1"
     objecttolerance="10"
     gridtolerance="10"
     guidetolerance="10"
     inkscape:pageopacity="0"
     inkscape:pageshadow="2"
     inkscape:window-width="711"
     inkscape:window-height="480"
     id="namedview33"
     showgrid="false"
     inkscape:zoom="4.9166667"
     inkscape:cx="-4.3728814"
     inkscape:cy="24"
     inkscape:window-x="0"
     inkscape:window-y="0"
     inkscape:window-maximized="0"
     inkscape:current-layer="svg31" />
  <linearGradient
     id="a">
    <stop
       offset="0"
       stop-color="#3889e9"
       id="stop2" />
    <stop
       offset="1"
       stop-color="#5ea5fb"
       id="stop4" />
  </linearGradient>
  <linearGradient
     id="b"
     gradientUnits="userSpaceOnUse"
     x1="399.57144"
     x2="399.57144"
     xlink:href="#a"
     y1="545.79797"
     y2="517.79797" />
  <linearGradient
     id="c"
     gradientUnits="userSpaceOnUse"
     x1="400.5119"
     x2="400.69922"
     y1="546.07446"
     y2="517.77289">
    <stop
       offset="0"
       stop-color="#ff9300"
       id="stop8" />
    <stop
       offset="1"
       stop-color="#ffd702"
       id="stop10" />
  </linearGradient>
  <linearGradient
     gradientUnits="userSpaceOnUse"
     x1="-.5"
     x2="536"
     xlink:href="#a"
     y1="267.75"
     y2="267.75"
     id="linearGradient13" />
  <g
     transform="matrix(1.406155135841 0 0 1.406155135841 -539.359078591465 -723.854469766371)"
     id="g23"
     style="fill:url(#Strips1_1);fill-opacity:1.0">
    <circle
       cx="400.57138"
       cy="531.79791"
       fill="url(#b)"
       r="0"
       id="circle15"
       style="fill:url(#Strips1_1);fill-opacity:1.0" />
    <g
       transform="matrix(1.117536624128 0 0 1.117536624128 -47.015292188816 -62.460177851153)"
       id="g21"
       style="fill:url(#Strips1_1);fill-opacity:1.0">
      <circle
         cx="400.57138"
         cy="531.79791"
         fill="url(#c)"
         r="13.999958"
         id="circle17"
         style="fill:url(#Strips1_1);fill-opacity:1.0" />
      <circle
         cx="400.57144"
         cy="531.79797"
         fill="none"
         r="13.999958"
         id="circle19"
         style="fill:url(#Strips1_1);fill-opacity:1.0" />
    </g>
  </g>
  <g
     fill-opacity=".8"
     transform="matrix(3.3892504 0 0 3.3892504 -95.151798275579 -21.807660275579)"
     id="g29">
    <path
       d="m35.155799 9.2822384c-.760174 0-1.46474.2048275-2.081389.555625h-1.5875v1.5698606c-.357393.620891-.564445 1.34001-.564445 2.107848 0 .767837.207052 1.486957.564445 2.107846v1.552224h1.552222c.624342.362856 1.342525.573264 2.116667.573264s1.501143-.210408 2.125486-.573264h1.543402v-1.543404c.360783-.623039.564445-1.344912.564445-2.116666 0-.771755-.203662-1.493628-.564445-2.116667v-1.5610416h-1.57868c-.616649-.3507975-1.330034-.555625-2.090208-.555625zm.01764.7143748c1.940047 0 3.510138 1.5700918 3.510138 3.5101388s-1.570091 3.518959-3.510138 3.518959-3.510139-1.578912-3.510139-3.518959 1.570092-3.5101388 3.510139-3.5101388z"
       fill-opacity=".8"
       id="path25" />
    <path
       d="m35.977939 11.878303.15685.216604-.351047 2.322885c-.258311-1.045855-.596279-2.43185-.597526-2.434921l-.56765 2.427451-.440676-2.11375.08963-.410799-1.277213-.01494c.102179.07806.180056.209456.261418.313701l.806661 3.278927c-.06637.123131-.166079.239273-.24648.343577.430744.0023.870786.0052 1.239868.0075l-.08963-.388376.246479-1.12783.209135 1.224928-.03735.291295 1.217461-.0075-.0075-.0075-.164319-.313702.492959-3.077262.373454-.545242c-.438186.0048-.876372.0099-1.314558.01494z"
       fill-opacity=".8"
       id="path27" />
  </g>
</svg>
