<?xml version="1.0" encoding="UTF-8" standalone="no"?>
<svg
   xmlns:dc="http://purl.org/dc/elements/1.1/"
   xmlns:cc="http://creativecommons.org/ns#"
   xmlns:rdf="http://www.w3.org/1999/02/22-rdf-syntax-ns#"
   xmlns:svg="http://www.w3.org/2000/svg"
   xmlns="http://www.w3.org/2000/svg"
   xmlns:xlink="http://www.w3.org/1999/xlink"
   xmlns:sodipodi="http://sodipodi.sourceforge.net/DTD/sodipodi-0.dtd"
   xmlns:inkscape="http://www.inkscape.org/namespaces/inkscape"
   height="48"
   width="48"
   version="1.1"
   id="svg132"
   sodipodi:docname="63EE_sublime_text.0.svg"
   inkscape:version="0.92.3 (2405546, 2018-03-11)">
  <metadata
     id="metadata138">
    <rdf:RDF>
      <cc:Work
         rdf:about="">
        <dc:format>image/svg+xml</dc:format>
        <dc:type
           rdf:resource="http://purl.org/dc/dcmitype/StillImage" />
      </cc:Work>
    </rdf:RDF>
  </metadata>
  <defs
     id="defs136">
    <pattern
       inkscape:isstock="true"
       inkscape:stockid="Stripes 1:1"
       id="Strips1_1"
       patternTransform="translate(0,0) scale(10,10)"
       height="1"
       width="2"
       patternUnits="userSpaceOnUse"
       inkscape:collect="always">
      <rect
         id="rect1661"
         height="2"
         width="1"
         y="-0.5"
         x="0"
         style="fill:black;stroke:none" />
    </pattern>
  </defs>
  <sodipodi:namedview
     pagecolor="#ffffff"
     bordercolor="#666666"
     borderopacity="1"
     objecttolerance="10"
     gridtolerance="10"
     guidetolerance="10"
     inkscape:pageopacity="0"
     inkscape:pageshadow="2"
     inkscape:window-width="1152"
     inkscape:window-height="802"
     id="namedview134"
     showgrid="false"
     inkscape:zoom="4.9166667"
     inkscape:cx="-4.3728814"
     inkscape:cy="24"
     inkscape:window-x="-8"
     inkscape:window-y="-8"
     inkscape:window-maximized="1"
     inkscape:current-layer="svg132" />
  <linearGradient
     id="a">
    <stop
       offset="0"
       stop-color="#fc7816"
       id="stop2" />
    <stop
       offset="1"
       stop-color="#ffac01"
       id="stop4" />
  </linearGradient>
  <linearGradient
     id="b"
     gradientTransform="matrix(.35600995 0 0 .3512235 240.525 893.33752)"
     gradientUnits="userSpaceOnUse"
     x1="-989.66583"
     x2="-1003.6364"
     y1="433.28394"
     y2="317.35452">
    <stop
       offset="0"
       stop-color="#292926"
       id="stop7" />
    <stop
       offset="1"
       stop-color="#484b4d"
       id="stop9" />
  </linearGradient>
  <linearGradient
     id="c"
     gradientTransform="matrix(.35549809 0 0 .35079564 81.583509 925.45618)"
     gradientUnits="userSpaceOnUse"
     x1="-1092.9117"
     x2="-1060.2551"
     xlink:href="#a"
     y1="203.09911"
     y2="104.85291" />
  <linearGradient
     id="d"
     gradientUnits="userSpaceOnUse"
     x1="37.736294218274"
     x2="37.589489895448"
     xlink:href="#a"
     y1="1056.54039989872"
     y2="1039.02475237528" />
  <g
     transform="matrix(.91666199 0 0 .91666199 .366915 -920.167254)"
     id="g130">
    <rect
       fill="url(#c)"
       height="40.214249"
       ry=".981484"
       transform="matrix(.94911544 -.31492838 .30720731 .95164262 0 0)"
       width="31.911476"
       x="-309.6644"
       y="964.93665"
       id="rect14"
       style="fill:#cccccc" />
    <rect
       fill="url(#b)"
       height="43.171936"
       ry="1.053671"
       transform="matrix(.99210439 -.12541482 .1378126 .99045832 0 0)"
       width="35.538715"
       x="-131.75444"
       y="1004.4296"
       id="rect16"
       style="fill:url(#Strips1_1);fill-opacity:1.0" />
    <g
       fill-rule="evenodd"
       transform="matrix(.67731436 -.09548014 .10589125 .75116838 -70.494092 256.47316)"
       id="g126">
      <g
         fill="#fff"
         id="g36">
        <path
           d="m-34.260591 1005.781314h2v .999863h-2z"
           opacity=".8"
           id="path18" />
        <path
           d="m-34.260591 1009.781214h2v .999863h-2z"
           opacity=".8"
           id="path20" />
        <path
           d="m-34.260591 1007.781314h2v .999863h-2z"
           opacity=".8"
           id="path22" />
        <path
           d="m-34.260591 1011.781214h2v .999863h-2z"
           opacity=".8"
           id="path24" />
        <path
           d="m-34.260591 1015.781214h2v .999863h-2z"
           opacity=".8"
           id="path26" />
        <path
           d="m-34.260591 1013.781214h2v .999863h-2z"
           opacity=".8"
           id="path28" />
        <path
           d="m-34.260591 1017.781214h2v .999863h-2z"
           opacity=".8"
           id="path30" />
        <path
           d="m-34.260591 1021.781214h2v .999863h-2z"
           opacity=".8"
           id="path32" />
        <path
           d="m-34.260591 1019.781214h2v .999863h-2z"
           opacity=".8"
           id="path34" />
      </g>
      <path
         d="m-31.260591 1005.781114h9v .999863h-9z"
         fill="#f92672"
         opacity=".8"
         id="path38" />
      <path
         d="m-21.260591 1005.781314h6v .999863h-6z"
         fill="#fff"
         opacity=".8"
         id="path40" />
      <path
         d="m-14.260591 1005.781314h4v .999863h-4z"
         fill="#fff"
         opacity=".8"
         id="path42" />
      <path
         d="m-31.260591 1007.781114h5v1.000017h-5z"
         fill="#fd971f"
         opacity=".8"
         id="path44" />
      <path
         d="m-25.260591 1007.781114h2v1.000105h-2z"
         fill="#fff"
         opacity=".8"
         id="path46" />
      <path
         d="m-22.260591 1007.781314h9v .999863h-9z"
         fill="#a6e22e"
         opacity=".8"
         id="path48" />
      <path
         d="m-31.260591 1009.781114h7v .999863h-7z"
         fill="#f92672"
         opacity=".8"
         id="path50" />
      <path
         d="m-23.260591 1009.781314h5v .999863h-5z"
         fill="#fd971f"
         opacity=".8"
         id="path52" />
      <path
         d="m-17.260591 1009.781214h2v .999863h-2z"
         fill="#fff"
         opacity=".8"
         id="path54" />
      <path
         d="m-29.260591 1011.781114h4v .999863h-4z"
         fill="#f92672"
         opacity=".8"
         id="path56" />
      <path
         d="m-24.260591 1011.781314h10v .999863h-10z"
         fill="#a6e22e"
         opacity=".8"
         id="path58" />
      <path
         d="m-13.260591 1011.781314h4v .999863h-4z"
         fill="#fff"
         opacity=".8"
         id="path60" />
      <path
         d="m-29.260591 1013.781114h6v .999863h-6z"
         fill="#f92672"
         opacity=".8"
         id="path62" />
      <path
         d="m-22.260591 1013.781314h6v .999863h-6z"
         fill="#66d9ef"
         opacity=".8"
         id="path64" />
      <path
         d="m-15.260591 1013.781314h4v .999863h-4z"
         fill="#a6e22e"
         opacity=".8"
         id="path66" />
      <path
         d="m-29.260591 1015.781114h2v .999863h-2z"
         fill="#f92672"
         opacity=".8"
         id="path68" />
      <path
         d="m-26.260591 1015.781314h13v .999863h-13z"
         fill="#66d9ef"
         opacity=".8"
         id="path70" />
      <path
         d="m-12.260591 1015.781314h5.5v.999863h-5.5z"
         fill="#fff"
         opacity=".8"
         id="path72" />
      <path
         d="m-29.260591 1017.781114h3v .999863h-3z"
         fill="#f92672"
         opacity=".8"
         id="path74" />
      <path
         d="m-25.260591 1017.781314h11v .999863h-11z"
         fill="#66d9ef"
         opacity=".8"
         id="path76" />
      <path
         d="m-13.260591 1017.781314h4v .999863h-4z"
         fill="#fff"
         opacity=".8"
         id="path78" />
      <rect
         fill="#fff"
         height="1.000017"
         opacity=".8"
         ry=".000017"
         width="2"
         x="-31.260591"
         y="1019.781114"
         id="rect80" />
      <path
         d="m-28.260591 1019.781314h8v .999863h-8z"
         fill="#66d9ef"
         opacity=".8"
         id="path82" />
      <path
         d="m-19.260591 1019.781314h3v .999863h-3z"
         fill="#fd971f"
         opacity=".8"
         id="path84" />
      <path
         d="m-31.260591 1021.781114h4v .999863h-4z"
         fill="#f92672"
         opacity=".8"
         id="path86" />
      <path
         d="m-26.260591 1021.781314h11v .999863h-11z"
         fill="#a6e22e"
         opacity=".8"
         id="path88" />
      <path
         d="m-14.260591 1021.781314h2.5v.999863h-2.5z"
         fill="#fff"
         opacity=".8"
         id="path90" />
      <path
         d="m-31.260591 1011.781114h1v7h-1z"
         fill="#faffeb"
         opacity=".678899"
         id="path92" />
      <path
         d="m-34.28725 1023.798019h2v .999863h-2z"
         fill="#fff"
         opacity=".8"
         id="path94" />
      <path
         d="m-34.28725 1025.798019h2v .999863h-2z"
         fill="#fff"
         opacity=".8"
         id="path96" />
      <path
         d="m-34.28725 1029.798019h2v .999863h-2z"
         fill="#fff"
         opacity=".8"
         id="path98" />
      <path
         d="m-34.28725 1027.798019h2v .999863h-2z"
         fill="#fff"
         opacity=".8"
         id="path100" />
      <path
         d="m-29.28725 1023.797819h2v .999863h-2z"
         fill="#f92672"
         opacity=".8"
         id="path102" />
      <path
         d="m-26.28725 1023.798119h13v .999863h-13z"
         fill="#66d9ef"
         opacity=".8"
         id="path104" />
      <path
         d="m-12.28725 1023.798119h5.5v.999863h-5.5z"
         fill="#fff"
         opacity=".8"
         id="path106" />
      <path
         d="m-29.28725 1025.797819h3v .999863h-3z"
         fill="#f92672"
         opacity=".8"
         id="path108" />
      <path
         d="m-25.28725 1025.798119h11v .999863h-11z"
         fill="#66d9ef"
         opacity=".8"
         id="path110" />
      <path
         d="m-13.28725 1025.798119h4v .999863h-4z"
         fill="#fff"
         opacity=".8"
         id="path112" />
      <rect
         fill="#fff"
         height="1.000017"
         opacity=".8"
         ry=".000017"
         width="2"
         x="-31.28725"
         y="1027.797819"
         id="rect114" />
      <path
         d="m-28.28725 1027.798119h8v .999863h-8z"
         fill="#66d9ef"
         opacity=".8"
         id="path116" />
      <path
         d="m-19.28725 1027.798119h3v .999863h-3z"
         fill="#fd971f"
         opacity=".8"
         id="path118" />
      <path
         d="m-31.28725 1029.797819h4v .999863h-4z"
         fill="#f92672"
         opacity=".8"
         id="path120" />
      <path
         d="m-26.28725 1029.798119h11v .999863h-11z"
         fill="#a6e22e"
         opacity=".8"
         id="path122" />
      <path
         d="m-14.28725 1029.798119h2.5v.999863h-2.5z"
         fill="#fff"
         opacity=".8"
         id="path124" />
    </g>
    <path
       d="m37.677038 1030.8302c-.522328 0-1.04421.065-1.547046.1726-2.011346.4255-3.780602 1.7051-4.035605 3.856-.167861 1.5377.287003 2.6441 1.066525 3.4027.77952.7585 1.846875 1.1826 2.914386 1.5158 1.06751.3331 2.144034.5757 2.937828.9082.396895.1672.719127.3548.937603.5685.209383.2048.3198.4309.353554.7227-.07638.6347-.334605 1.0323-.736409 1.295-.410299.2684-.981325.3962-1.613461.3986-1.264271 0-2.754521-.4967-3.531642-1.0274-.389649-.3137-.802823-.4493-1.191539-.3966-.395874.052-.733469.2806-1.029412.5762l-.02147.02-.01762.025c-.45231.6785-.458201 1.7627.347695 2.424h.002c1.529533 1.2623 4.197229 1.8137 6.557369 1.4065 1.18054-.2037 2.288635-.655 3.121443-1.4182.832805-.7632 1.376054-1.8458 1.414218-3.2308.03832-1.4558-.554396-2.4826-1.42594-3.1721-.871543-.6897-2.000071-1.0715-3.090187-1.3869-1.090116-.3157-2.149455-.5665-2.857739-.9201-.354142-.1762-.613283-.3769-.763757-.5978-.149374-.2192-.209778-.4625-.152359-.8204.09359-.4553.326044-.746.673903-.9531.349481-.2083.822591-.3183 1.3439-.3342 1.042615-.032 2.263592.32 2.959313.7618.738952.5275 1.625357.2667 2.056869-.3203.434988-.5916.418495-1.5419-.384808-2.1917h-.002-.004c-.760133-.5837-1.713213-.9677-2.728819-1.1524-.507802-.092-1.030579-.1366-1.552907-.1294z"
       fill="url(#d)"
       id="path128" />
  </g>
</svg>
