<?xml version="1.0" encoding="UTF-8" standalone="no"?>
<svg
   xmlns:dc="http://purl.org/dc/elements/1.1/"
   xmlns:cc="http://creativecommons.org/ns#"
   xmlns:rdf="http://www.w3.org/1999/02/22-rdf-syntax-ns#"
   xmlns:svg="http://www.w3.org/2000/svg"
   xmlns="http://www.w3.org/2000/svg"
   xmlns:sodipodi="http://sodipodi.sourceforge.net/DTD/sodipodi-0.dtd"
   xmlns:inkscape="http://www.inkscape.org/namespaces/inkscape"
   height="48"
   width="48"
   version="1.1"
   id="svg35"
   sodipodi:docname="7zip.svg"
   inkscape:version="0.92.3 (2405546, 2018-03-11)">
  <metadata
     id="metadata41">
    <rdf:RDF>
      <cc:Work
         rdf:about="">
        <dc:format>image/svg+xml</dc:format>
        <dc:type
           rdf:resource="http://purl.org/dc/dcmitype/StillImage" />
      </cc:Work>
    </rdf:RDF>
  </metadata>
  <defs
     id="defs39">
    <pattern
       inkscape:stockid="Stripes 1:1"
       id="Strips1_1"
       patternTransform="translate(0,0) scale(10,10)"
       height="1"
       width="2"
       patternUnits="userSpaceOnUse"
       inkscape:collect="always">
      <rect
         id="rect1564"
         height="2"
         width="1"
         y="-0.5"
         x="0"
         style="fill:black;stroke:none" />
    </pattern>
  </defs>
  <sodipodi:namedview
     pagecolor="#ffffff"
     bordercolor="#666666"
     borderopacity="1"
     objecttolerance="10"
     gridtolerance="10"
     guidetolerance="10"
     inkscape:pageopacity="0"
     inkscape:pageshadow="2"
     inkscape:window-width="711"
     inkscape:window-height="480"
     id="namedview37"
     showgrid="false"
     inkscape:zoom="4.9166667"
     inkscape:cx="-0.11896393"
     inkscape:cy="24"
     inkscape:window-x="0"
     inkscape:window-y="0"
     inkscape:window-maximized="0"
     inkscape:current-layer="g33" />
  <linearGradient
     id="a"
     gradientTransform="matrix(1.2361374 0 0 1.0987888 -96.700865 -52.26738)"
     gradientUnits="userSpaceOnUse"
     x1="409.57144"
     x2="409.57144"
     y1="543.79797"
     y2="503.798">
    <stop
       offset="0"
       stop-color="#31d145"
       id="stop2" />
    <stop
       offset="1"
       stop-color="#4bf082"
       id="stop4" />
  </linearGradient>
  <g
     transform="translate(-384.57143 -499.798)"
     id="g33"
     style="fill:url(#Strips1_1);fill-opacity:1.0">
    <rect
       fill-opacity=".666667"
       height="43.951519"
       ry="2.197573"
       width="39.556393"
       x="388.57144"
       y="501.84647"
       id="rect7"
       style="fill:url(#Strips1_1);fill-opacity:1.0" />
    <rect
       fill="url(#a)"
       height="43.951519"
       ry="2.197573"
       width="39.556393"
       x="388.57144"
       y="501.30017"
       id="rect9"
       style="fill:url(#Strips1_1);fill-opacity:1.0" />
    <path
       d="m405.4062 501.298v15.71611h-.0165v5.14602c-.33703 3.31408 6.25632 3.31408 5.9066 0v-2.54633h.002v-18.3158h-5.89189z"
       fill-opacity=".666667"
       fill-rule="evenodd"
       id="path11"
       style="fill:url(#Strips1_1);fill-opacity:1.0" />
    <g
       fill="#fff"
       id="g25"
       style="fill:#666666;fill-opacity:1">
      <rect
         height="2.197578"
         opacity=".929"
         ry=".976436"
         width="4.395155"
         x="406.2309"
         y="502.52133"
         id="rect13"
         style="fill:#666666;fill-opacity:1" />
      <rect
         height="2.197578"
         opacity=".929"
         ry=".976436"
         width="4.395155"
         x="406.22171"
         y="505.69974"
         id="rect15"
         style="fill:#666666;fill-opacity:1" />
      <rect
         height="2.197578"
         opacity=".929"
         ry=".976436"
         width="4.395155"
         x="406.19412"
         y="508.83987"
         id="rect17"
         style="fill:#666666;fill-opacity:1" />
      <rect
         height="2.197578"
         opacity=".929"
         ry=".976436"
         width="4.395155"
         x="406.24228"
         y="512.10864"
         id="rect19"
         style="fill:#666666;fill-opacity:1" />
      <rect
         height="2.197578"
         opacity=".929"
         ry=".976436"
         width="4.395155"
         x="406.24228"
         y="515.32019"
         id="rect21"
         style="fill:#666666;fill-opacity:1" />
      <rect
         height="2.197578"
         opacity=".929"
         ry=".976436"
         width="4.395155"
         x="406.24222"
         y="518.60736"
         id="rect23"
         style="fill:#666666;fill-opacity:1" />
    </g>
    <path
       d="m410.04875 524.4875v-1.3868c0-.38638-.31224-.69974-.69722-.69974h-1.93711c-.38498 0-.69729.31345-.69729.69974v1.38612l-1.07742 3.1768c-.30146.88539-.15682 1.8691.38636 2.63148.54321.76099 1.424 1.2155 2.35687 1.2155.93304 0 1.81392-.45451 2.35711-1.2155.54319-.76238.68765-1.74609.38628-2.63078zm-.45001 4.98825c-.55893.78506-1.87268.78506-2.43169 0-.28016-.39328-.35475-.90057-.19993-1.35771l.3616-1.06553h2.10834l.36169 1.06623c.15489.45644.0802.96373-.20001 1.35701z"
       fill-opacity=".666667"
       id="path27"
       style="fill:url(#Strips1_1);fill-opacity:1.0" />
    <path
       d="m22.84375 22.132812c-.384978 0-.697266.312923-.697266.699219v1.386719l-1.078125 3.175781c-.301457.885395-.156466 1.868476.386719 2.63086.093523.131074.196461.255054.308594.367187l15.060547 15.060547h4.535156c1.217455 0 2.197266-.97981 2.197266-2.197266v-2.634765l-18.285157-18.285156c-.126109-.126101-.298207-.203126-.490234-.203126z"
       fill-opacity=".078431"
       transform="translate(384.57143 499.798)"
       id="path29"
       style="fill:#b3b3b3;fill-opacity:1" />
    <path
       d="m410.04875 524.01673v-1.38681c0-.38638-.31224-.69974-.69722-.69974h-1.93711c-.38498 0-.69729.31344-.69729.69974v1.38612l-1.07742 3.1768c-.30146.88539-.15682 1.8691.38636 2.63148.54321.76099 1.424 1.2155 2.35687 1.2155.93304 0 1.81392-.45451 2.35711-1.2155.54319-.76238.68765-1.74609.38628-2.63079zm-.45001 4.98824c-.55893.78506-1.87268.78506-2.43169 0-.28016-.39327-.35475-.90057-.19993-1.35771l.3616-1.06553h2.10834l.36169 1.06624c.15489.45643.0802.96373-.20001 1.357z"
       fill="#f0f5f1"
       id="path31"
       style="fill:#808080;fill-opacity:1" />
  </g>
</svg>
