<?xml version="1.0" encoding="UTF-8" standalone="no"?>
<svg
   xmlns:dc="http://purl.org/dc/elements/1.1/"
   xmlns:cc="http://creativecommons.org/ns#"
   xmlns:rdf="http://www.w3.org/1999/02/22-rdf-syntax-ns#"
   xmlns:svg="http://www.w3.org/2000/svg"
   xmlns="http://www.w3.org/2000/svg"
   xmlns:sodipodi="http://sodipodi.sourceforge.net/DTD/sodipodi-0.dtd"
   xmlns:inkscape="http://www.inkscape.org/namespaces/inkscape"
   viewBox="0 0 48 48"
   version="1.1"
   id="svg39"
   sodipodi:docname="8-ball-pool.svg"
   inkscape:version="0.92.3 (2405546, 2018-03-11)">
  <metadata
     id="metadata45">
    <rdf:RDF>
      <cc:Work
         rdf:about="">
        <dc:format>image/svg+xml</dc:format>
        <dc:type
           rdf:resource="http://purl.org/dc/dcmitype/StillImage" />
      </cc:Work>
    </rdf:RDF>
  </metadata>
  <defs
     id="defs43">
    <pattern
       inkscape:isstock="true"
       inkscape:stockid="Stripes 1:1"
       id="Strips1_1"
       patternTransform="translate(0,0) scale(10,10)"
       height="1"
       width="2"
       patternUnits="userSpaceOnUse"
       inkscape:collect="always">
      <rect
         id="rect1568"
         height="2"
         width="1"
         y="-0.5"
         x="0"
         style="fill:black;stroke:none" />
    </pattern>
  </defs>
  <sodipodi:namedview
     pagecolor="#ffffff"
     bordercolor="#666666"
     borderopacity="1"
     objecttolerance="10"
     gridtolerance="10"
     guidetolerance="10"
     inkscape:pageopacity="0"
     inkscape:pageshadow="2"
     inkscape:window-width="1152"
     inkscape:window-height="802"
     id="namedview41"
     showgrid="false"
     inkscape:zoom="4.9166667"
     inkscape:cx="-4.3728814"
     inkscape:cy="24"
     inkscape:window-x="-8"
     inkscape:window-y="-8"
     inkscape:window-maximized="1"
     inkscape:current-layer="g37" />
  <linearGradient
     id="a"
     gradientUnits="userSpaceOnUse"
     x1="399.57144"
     x2="399.57144"
     y1="545.79797"
     y2="517.79797">
    <stop
       offset="0"
       stop-color="#3889e9"
       id="stop2" />
    <stop
       offset="1"
       stop-color="#5ea5fb"
       id="stop4" />
  </linearGradient>
  <linearGradient
     id="b"
     gradientUnits="userSpaceOnUse"
     x1="399.9939"
     x2="399.9939"
     y1="545.13873"
     y2="518.13873">
    <stop
       offset="0"
       stop-color="#2a2c2f"
       id="stop7" />
    <stop
       offset="1"
       stop-color="#424649"
       id="stop9" />
  </linearGradient>
  <linearGradient
     gradientUnits="userSpaceOnUse"
     x1="0"
     x2="47"
     y1="23.5"
     y2="23.5"
     id="linearGradient18">
    <stop
       offset="0"
       stop-color="#a9a3d4"
       id="stop12" />
    <stop
       offset=".47001833"
       stop-color="#87baff"
       id="stop14" />
    <stop
       offset="1"
       stop-color="#89ec85"
       id="stop16" />
  </linearGradient>
  <linearGradient
     id="c"
     gradientUnits="userSpaceOnUse"
     x1="516.322811983602"
     x2="516.322811983602"
     y1="540.995868817013"
     y2="500.995827617013"
     gradientTransform="matrix(0.43667299,0,0,0.43667299,-141.74806,-219.64653)">
    <stop
       offset="0"
       stop-color="#e1e1e1"
       id="stop20" />
    <stop
       offset="1"
       stop-color="#ebebeb"
       id="stop22" />
  </linearGradient>
  <g
     transform="matrix(1.6428571,0,0,1.6428571,-113.94052,12.106975)"
     id="g37"
     style="enable-background:new">
    <g
       transform="matrix(0.95652255,0,0,0.95652255,-299.31559,-501.56129)"
       id="g31"
       style="stroke-width:1.29999995;enable-background:new;fill:url(#Strips1_1);fill-opacity:1.0">
      <circle
         cx="400.57138"
         cy="531.79791"
         r="13.999958"
         id="circle25"
         style="fill:url(#Strips1_1);fill-opacity:1.0" />
      <circle
         cx="400.57144"
         cy="531.79797"
         r="13.999958"
         id="circle27"
         style="fill:url(#Strips1_1);fill-opacity:1.0" />
      <circle
         cx="400.57138"
         cy="531.79791"
         r="0"
         id="circle29"
         style="fill:url(#Strips1_1);fill-opacity:1.0" />
    </g>
    <rect
       height="17.466919"
       ry="8.7334595"
       width="17.466919"
       x="74.982735"
       y="-0.87520897"
       id="rect33"
       style="fill:url(#c);stroke-width:0.43667299" />
    <path
       d="m 86.131313,11.739526 q -0.980685,0.863588 -2.415119,0.863588 -1.434434,0 -2.415119,-0.863588 -0.980684,-0.863588 -0.980684,-2.1370141 0,-0.834314 0.453749,-1.463708 0.45375,-0.644032 1.185604,-1.009959 v -0.05855 q -0.570846,-0.365925 -0.936774,-0.922135 -0.365927,-0.570846 -0.365927,-1.185603 0,-1.214878 0.863588,-2.019918 0.863588,-0.819676 2.195563,-0.819676 1.331974,0 2.195562,0.819676 0.863588,0.80504 0.863588,2.019918 0,0.614757 -0.365927,1.185603 -0.365927,0.55621 -0.936773,0.922137 v 0.05855 q 0.731854,0.365927 1.185604,1.009959 0.453749,0.629394 0.453749,1.463708 0,1.2734261 -0.980684,2.1370141 z M 82.501316,6.0749749 q 0.483024,0.424475 1.214878,0.424475 0.731854,0 1.200241,-0.424475 0.483023,-0.439112 0.483023,-1.141692 0,-0.70258 -0.483023,-1.112419 -0.468387,-0.409838 -1.200241,-0.409838 -0.731854,0 -1.214878,0.409838 -0.468387,0.409839 -0.468387,1.112419 0,0.70258 0.468387,1.141692 z M 82.28176,10.81739 q 0.585483,0.497661 1.434434,0.497661 0.848951,0 1.434434,-0.497661 0.585483,-0.497661 0.585483,-1.2880631 0,-0.775766 -0.585483,-1.273427 -0.585483,-0.49766 -1.434434,-0.49766 -0.848951,0 -1.434434,0.49766 -0.585484,0.497661 -0.585484,1.273427 0,0.7904021 0.585484,1.2880631 z"
       id="path35"
       inkscape:connector-curvature="0"
       style="fill:#36393c;stroke-width:0.13359243" />
  </g>
</svg>
