<?xml version="1.0" encoding="UTF-8" standalone="no"?>
<svg
   xmlns:dc="http://purl.org/dc/elements/1.1/"
   xmlns:cc="http://creativecommons.org/ns#"
   xmlns:rdf="http://www.w3.org/1999/02/22-rdf-syntax-ns#"
   xmlns:svg="http://www.w3.org/2000/svg"
   xmlns="http://www.w3.org/2000/svg"
   xmlns:xlink="http://www.w3.org/1999/xlink"
   xmlns:sodipodi="http://sodipodi.sourceforge.net/DTD/sodipodi-0.dtd"
   xmlns:inkscape="http://www.inkscape.org/namespaces/inkscape"
   height="48"
   width="48"
   version="1.1"
   id="svg28"
   sodipodi:docname="abiword.svg"
   inkscape:version="0.92.3 (2405546, 2018-03-11)">
  <metadata
     id="metadata34">
    <rdf:RDF>
      <cc:Work
         rdf:about="">
        <dc:format>image/svg+xml</dc:format>
        <dc:type
           rdf:resource="http://purl.org/dc/dcmitype/StillImage" />
      </cc:Work>
    </rdf:RDF>
  </metadata>
  <defs
     id="defs32">
    <pattern
       inkscape:isstock="true"
       inkscape:stockid="Stripes 1:1"
       id="Strips1_1"
       patternTransform="translate(0,0) scale(10,10)"
       height="1"
       width="2"
       patternUnits="userSpaceOnUse"
       inkscape:collect="always">
      <rect
         id="rect1557"
         height="2"
         width="1"
         y="-0.5"
         x="0"
         style="fill:black;stroke:none" />
    </pattern>
  </defs>
  <sodipodi:namedview
     pagecolor="#ffffff"
     bordercolor="#666666"
     borderopacity="1"
     objecttolerance="10"
     gridtolerance="10"
     guidetolerance="10"
     inkscape:pageopacity="0"
     inkscape:pageshadow="2"
     inkscape:window-width="711"
     inkscape:window-height="480"
     id="namedview30"
     showgrid="false"
     inkscape:zoom="4.9166667"
     inkscape:cx="19.053034"
     inkscape:cy="24"
     inkscape:window-x="0"
     inkscape:window-y="0"
     inkscape:window-maximized="0"
     inkscape:current-layer="svg28" />
  <linearGradient
     id="a"
     gradientTransform="matrix(0 -1 1 0 -.000002 47.999998)"
     gradientUnits="userSpaceOnUse"
     x1="1"
     x2="47">
    <stop
       offset="0"
       stop-color="#97b2d3"
       id="stop2" />
    <stop
       offset="1"
       stop-color="#c2ddff"
       id="stop4" />
  </linearGradient>
  <linearGradient
     id="b"
     gradientTransform="matrix(1.1046554 0 0 1.071459 -3.582837 -73.62005)"
     gradientUnits="userSpaceOnUse"
     x1="17"
     x2="16.048658"
     xlink:href="#a"
     y1="1036.3622"
     y2="1010.814" />
  <linearGradient
     id="c"
     gradientTransform="matrix(.9025031 0 0 1.071459 2.860642 -73.62005)"
     gradientUnits="userSpaceOnUse"
     x1="33.461716"
     x2="34.116894"
     y1="1013.622"
     y2="1037.2084">
    <stop
       offset="0"
       stop-color="#f6fbff"
       id="stop8" />
    <stop
       offset="1"
       stop-color="#eaeff2"
       id="stop10" />
  </linearGradient>
  <linearGradient
     id="d"
     gradientTransform="matrix(1.071459 0 0 1.071459 -3.247536 -73.62005)"
     gradientUnits="userSpaceOnUse"
     x1="29.336485"
     x2="29.336485"
     xlink:href="#a"
     y1="1037.0211"
     y2="1010.814" />
  <g
     fill-rule="evenodd"
     transform="matrix(1.5263052 0 0 1.5263052 -7.97135 -1539.81065)"
     id="g26">
    <path
       d="m31.555234 1010.483c-.128085 0-.272987 0-.437745.013l-10.656924.9873v.013h-10.9947489c-1.3588876-.1008-1.9091824.023-1.9091824 1.255v23.6703c-.085353 1.3512.477165 1.3226 1.7985568 1.3226h11.2171905l10.635512 1.242c1.022997 0 1.228768-.4071 1.231155-1.2502h.693492c1.079577 0 1.269955.029 1.200227-1.3228v-23.6703c0-1.2316-.09001-1.3568-1.200227-1.2561h-.647101c-.03905-.6807-.201612-.9899-.930205-1.0051z"
       fill-opacity=".666667"
       id="path14" />
    <path
       d="m33.133303 1037.4145h-10.45718v-26.2485h10.45718c1.110214-.1008 1.19955.024 1.19955 1.2558v23.6702c.06973 1.3512-.119973 1.3225-1.19955 1.3225z"
       fill="url(#c)"
       id="path16" />
    <path
       d="m9.3559956 1037.4231h12.4682434v-26.2486h-12.3577824c-1.3588875-.1007-1.9099464.024-1.9099464 1.2559v23.6702c-.085352 1.3511.4780936 1.3225 1.7994854 1.3225z"
       fill="url(#b)"
       id="path18"
       style="fill:url(#Strips1_1);fill-opacity:1.0" />
    <path
       d="m31.207633 1038.6653-10.74629-1.2552v-26.2487l10.656631-.9862c1.318054-.1007 1.389138.262 1.389138 1.4932l-.08966 25.0387c.08278 1.3512.07187 1.9582-1.209819 1.9582z"
       fill="url(#d)"
       id="path20" />
    <path
       d="m12.790113 1030.8984c-.0073-3.5069 5.064736-13.6394 7.427183-13.6893 1.18031-.029 2.950166 2.215 4.436821 5.1147 1.489091 2.8977 2.695589 6.4545 2.752839 9.052 0 0-5.714577-11.1624-7.139719-11.1934-1.448894-.04-5.391179 7.8626-4.921003 8.7409.459212.8587 8.94977-1.9081 8.94977-1.9081-.183319.2807-5.726148 3.9465-9.882812 4.8083-.627915-.026-1.570093 0-1.62247-.9257m0 0"
       fill="#3d4f66"
       id="path22"
       style="fill:#808080" />
    <path
       d="m31.207633 1038.6653-10.74629-1.2552v-26.2487l10.656631-.9862c1.318054-.1007 1.389138.262 1.389138 1.4932l-.08966 25.0387c.08278 1.3512.07187 1.9582-1.209819 1.9582z"
       fill-opacity=".078431"
       id="path24"
       style="fill:url(#Strips1_1);fill-opacity:1.0" />
  </g>
</svg>
