<?xml version="1.0" encoding="UTF-8" standalone="no"?>
<svg
   xmlns:dc="http://purl.org/dc/elements/1.1/"
   xmlns:cc="http://creativecommons.org/ns#"
   xmlns:rdf="http://www.w3.org/1999/02/22-rdf-syntax-ns#"
   xmlns:svg="http://www.w3.org/2000/svg"
   xmlns="http://www.w3.org/2000/svg"
   xmlns:sodipodi="http://sodipodi.sourceforge.net/DTD/sodipodi-0.dtd"
   xmlns:inkscape="http://www.inkscape.org/namespaces/inkscape"
   height="48"
   width="48"
   version="1.1"
   id="svg32"
   sodipodi:docname="accessories-character-map.svg"
   inkscape:version="0.92.3 (2405546, 2018-03-11)">
  <metadata
     id="metadata38">
    <rdf:RDF>
      <cc:Work
         rdf:about="">
        <dc:format>image/svg+xml</dc:format>
        <dc:type
           rdf:resource="http://purl.org/dc/dcmitype/StillImage" />
      </cc:Work>
    </rdf:RDF>
  </metadata>
  <defs
     id="defs36">
    <pattern
       inkscape:stockid="Stripes 1:1"
       id="Strips1_1"
       patternTransform="translate(0,0) scale(10,10)"
       height="1"
       width="2"
       patternUnits="userSpaceOnUse"
       inkscape:collect="always">
      <rect
         id="rect1561"
         height="2"
         width="1"
         y="-0.5"
         x="0"
         style="fill:black;stroke:none" />
    </pattern>
  </defs>
  <sodipodi:namedview
     pagecolor="#ffffff"
     bordercolor="#666666"
     borderopacity="1"
     objecttolerance="10"
     gridtolerance="10"
     guidetolerance="10"
     inkscape:pageopacity="0"
     inkscape:pageshadow="2"
     inkscape:window-width="711"
     inkscape:window-height="480"
     id="namedview34"
     showgrid="false"
     inkscape:zoom="4.9166667"
     inkscape:cx="16.008748"
     inkscape:cy="24"
     inkscape:window-x="0"
     inkscape:window-y="0"
     inkscape:window-maximized="0"
     inkscape:current-layer="svg32" />
  <linearGradient
     gradientUnits="userSpaceOnUse"
     x1="0"
     x2="47"
     y1="23.5"
     y2="23.5"
     id="linearGradient8">
    <stop
       offset="0"
       stop-color="#a9a3d4"
       id="stop2" />
    <stop
       offset=".47001833"
       stop-color="#87baff"
       id="stop4" />
    <stop
       offset="1"
       stop-color="#89ec85"
       id="stop6" />
  </linearGradient>
  <linearGradient
     id="a"
     gradientUnits="userSpaceOnUse"
     x1="359.88744"
     x2="1410.32123"
     y1="663.33796"
     y2="658.78589">
    <stop
       offset="0"
       stop-color="#4e4e4f"
       id="stop10" />
    <stop
       offset=".49668527"
       stop-color="#3f3f40"
       id="stop12" />
    <stop
       offset="1"
       stop-color="#5a5a5c"
       id="stop14" />
  </linearGradient>
  <linearGradient
     id="b"
     gradientUnits="userSpaceOnUse"
     x1="366.95877"
     x2="363.04605"
     y1="907.84692"
     y2="278.17999">
    <stop
       offset="0"
       stop-color="#363636"
       id="stop17" />
    <stop
       offset="1"
       stop-color="#656567"
       id="stop19" />
  </linearGradient>
  <g
     stroke-width="1.317422"
     transform="matrix(.031339690431 0 0 .031339690431 -11.51601603846 -2.080632462542)"
     id="g30"
     style="fill:url(#Strips1_1);fill-opacity:1.0">
    <g
       transform="matrix(1.9935157 0 0 1.9935157 -537.48696 36.004657)"
       id="g26"
       style="fill:url(#Strips1_1);fill-opacity:1.0">
      <path
         d="m471.41309 628.76803 733.45131 3.41252c.822 36.55995 6.6204 94.54093-43.7882 93.01h-651.37457c-41.61051.37255-36.21824-41.01776-38.28854-96.42252z"
         fill="url(#a)"
         fill-rule="evenodd"
         id="path22"
         style="fill:url(#Strips1_1);fill-opacity:1.0" />
      <path
         d="m53.254934 905.86066h642.657186s47.69318 1.9433 45.53266-44.606l-1.56578-31.21762-25.25264-503.50651s-3.45098-40.70705-45.03232-40.55073l-591.402216 2.29098c-44.03423-2.70255-47.63443 40.00832-47.63443 40.00832l-23.859394 507.05104-1.2196859 25.92452c-4.21478 55.6147 47.7766199 44.606 47.7766199 44.606z"
         fill="url(#b)"
         fill-rule="evenodd"
         transform="translate(464.71509 -212.42274)"
         id="path24"
         style="fill:url(#Strips1_1);fill-opacity:1.0" />
    </g>
    <path
       d="m64 48h-8v-16h8c8.836 0 16-7.164 16-16s-7.164-16-16-16c-8.837 0-16 7.164-16 16v8h-16v-8c0-8.836-7.164-16-16-16s-16 7.164-16 16 7.164 16 16 16h8v16h-8c-8.836 0-16 7.164-16 16s7.164 16 16 16c8.837 0 16-7.164 16-16v-8h16v7.98c0 .008-.001.014-.001.02 0 8.836 7.164 16 16 16s16-7.164 16-16-7.163-15.998-15.999-16zm0-40c4.418 0 8 3.582 8 8s-3.582 8-8 8h-8v-8c0-4.418 3.582-8 8-8zm-56 8c0-4.418 3.582-8 8-8s8 3.582 8 8v8h-8c-4.418 0-8-3.583-8-8zm8 56c-4.418 0-8-3.582-8-8s3.582-8 8-8h8v8c0 4.418-3.582 8-8 8zm16-24v-16h16v16zm32 24c-4.418 0-8-3.582-8-8v-8h7.999c4.418 0 8 3.582 8 8s-3.581 8-7.999 8z"
       fill="#fbfbff"
       opacity=".851"
       transform="matrix(8.546797650203 -.0559596034 .061640461489 7.759110735742 776.524724547155 483.647001332063)"
       id="path28"
       style="fill:#1a1a1a;fill-opacity:1" />
  </g>
</svg>
