<?xml version="1.0" encoding="UTF-8" standalone="no"?>
<svg
   xmlns:dc="http://purl.org/dc/elements/1.1/"
   xmlns:cc="http://creativecommons.org/ns#"
   xmlns:rdf="http://www.w3.org/1999/02/22-rdf-syntax-ns#"
   xmlns:svg="http://www.w3.org/2000/svg"
   xmlns="http://www.w3.org/2000/svg"
   xmlns:sodipodi="http://sodipodi.sourceforge.net/DTD/sodipodi-0.dtd"
   xmlns:inkscape="http://www.inkscape.org/namespaces/inkscape"
   viewBox="0 0 48 48"
   version="1.1"
   id="svg36"
   sodipodi:docname="activity-journal.svg"
   inkscape:version="0.92.3 (2405546, 2018-03-11)">
  <metadata
     id="metadata42">
    <rdf:RDF>
      <cc:Work
         rdf:about="">
        <dc:format>image/svg+xml</dc:format>
        <dc:type
           rdf:resource="http://purl.org/dc/dcmitype/StillImage" />
      </cc:Work>
    </rdf:RDF>
  </metadata>
  <defs
     id="defs40">
    <pattern
       inkscape:stockid="Stripes 1:1"
       id="Strips1_1"
       patternTransform="translate(0,0) scale(10,10)"
       height="1"
       width="2"
       patternUnits="userSpaceOnUse"
       inkscape:collect="always">
      <rect
         id="rect1565"
         height="2"
         width="1"
         y="-0.5"
         x="0"
         style="fill:black;stroke:none" />
    </pattern>
  </defs>
  <sodipodi:namedview
     pagecolor="#ffffff"
     bordercolor="#666666"
     borderopacity="1"
     objecttolerance="10"
     gridtolerance="10"
     guidetolerance="10"
     inkscape:pageopacity="0"
     inkscape:pageshadow="2"
     inkscape:window-width="711"
     inkscape:window-height="480"
     id="namedview38"
     showgrid="false"
     inkscape:zoom="4.9166667"
     inkscape:cx="22.097321"
     inkscape:cy="24"
     inkscape:window-x="0"
     inkscape:window-y="0"
     inkscape:window-maximized="0"
     inkscape:current-layer="svg36" />
  <linearGradient
     id="a"
     gradientTransform="matrix(.9997764 0 0 .9863347 -.832882 5.995869)"
     gradientUnits="userSpaceOnUse"
     x1="-989.66583"
     x2="-1003.6364"
     y1="433.28394"
     y2="317.35452">
    <stop
       offset="0"
       stop-color="#1584d8"
       id="stop2" />
    <stop
       offset="1"
       stop-color="#1cb2ff"
       id="stop4" />
  </linearGradient>
  <linearGradient
     id="b"
     gradientTransform="matrix(.99833895 0 0 .98513314 -2.169195 6.701717)"
     gradientUnits="userSpaceOnUse"
     x1="-1092.9117"
     x2="-1060.2551"
     y1="203.09911"
     y2="104.85291">
    <stop
       offset="0"
       stop-color="#6c7482"
       id="stop7" />
    <stop
       offset="1"
       stop-color="#868d97"
       id="stop9" />
  </linearGradient>
  <g
     transform="translate(-384.897446 -499.850299)"
     id="g34">
    <text
       x="300.29187"
       y="516.21832"
       id="text14">
      <tspan
         x="300.29187"
         y="516.21832"
         id="tspan12" />
    </text>
    <rect
       fill="url(#b)"
       height="112.93296"
       ry="2.756285"
       transform="matrix(.309805053318 -.102797187855 .100276918558 .310629958209 716.940777695648 361.133657929255)"
       width="89.616432"
       x="-1100.9037"
       y="117.57415"
       id="rect16" />
    <rect
       fill="url(#a)"
       height="121.23898"
       ry="2.959004"
       transform="matrix(.323837268734 -.040937205262 .044984020552 .323299967707 716.940777695648 361.133657929255)"
       width="99.802742"
       x="-1046.2986"
       y="317.97363"
       id="rect18"
       style="fill:url(#Strips1_1);fill-opacity:1.0" />
    <g
       fill="#fff"
       fill-opacity=".842742"
       transform="matrix(.726662080357 -.125872909078 .125872909078 .726662080357 390.806782293542 510.711520511223)"
       id="g32">
      <g
         fill="#fff"
         fill-opacity=".842742"
         transform="matrix(1.5511965 0 0 1.552208 -597.389819 -801.619437)"
         id="g24">
        <circle
           cx="400.57138"
           cy="531.79791"
           fill="#fff"
           fill-opacity=".842742"
           r="0"
           id="circle20" />
        <circle
           cx="-354.848036793512"
           cy="481.913416979601"
           fill="#fff"
           fill-opacity=".842742"
           r="0"
           transform="matrix(.108621329564 0 0 .108621329564 396.375174935975 479.506408870929)"
           id="circle22" />
      </g>
      <g
         fill="#fff"
         fill-opacity=".842742"
         transform="matrix(.03003808 0 0 .03003808 10.000002 10.000002)"
         id="g30">
        <path
           d="m466.075 161.525c-205.6 0-382.8 121.2-464.2 296.1-2.5 5.3-2.5 11.5 0 16.9 81.4 174.899 258.601 296.1 464.2 296.1s382.8-121.2 464.2-296.1c2.5-5.3 2.5-11.5 0-16.9-81.4-174.9-258.6-296.1-464.2-296.1zm0 514.701c-116.1 0-210.1-94.101-210.1-210.101 0-116.1 94.1-210.1 210.1-210.1 116.1 0 210.1 94.1 210.1 210.1s-94.1 210.101-210.1 210.101z"
           fill="#fff"
           fill-opacity=".842742"
           id="path26" />
        <circle
           cx="466.07501"
           cy="466.02499"
           fill="#fff"
           fill-opacity=".842742"
           r="134.5"
           id="circle28" />
      </g>
    </g>
  </g>
</svg>
