<?xml version="1.0" encoding="UTF-8" standalone="no"?>
<svg
   xmlns:dc="http://purl.org/dc/elements/1.1/"
   xmlns:cc="http://creativecommons.org/ns#"
   xmlns:rdf="http://www.w3.org/1999/02/22-rdf-syntax-ns#"
   xmlns:svg="http://www.w3.org/2000/svg"
   xmlns="http://www.w3.org/2000/svg"
   xmlns:sodipodi="http://sodipodi.sourceforge.net/DTD/sodipodi-0.dtd"
   xmlns:inkscape="http://www.inkscape.org/namespaces/inkscape"
   height="48"
   width="48"
   version="1.1"
   id="svg87"
   sodipodi:docname="activity-log-manager.svg"
   inkscape:version="0.92.3 (2405546, 2018-03-11)">
  <metadata
     id="metadata93">
    <rdf:RDF>
      <cc:Work
         rdf:about="">
        <dc:format>image/svg+xml</dc:format>
        <dc:type
           rdf:resource="http://purl.org/dc/dcmitype/StillImage" />
      </cc:Work>
    </rdf:RDF>
  </metadata>
  <defs
     id="defs91">
    <pattern
       inkscape:stockid="Stripes 1:1"
       id="Strips1_1"
       patternTransform="translate(0,0) scale(10,10)"
       height="1"
       width="2"
       patternUnits="userSpaceOnUse"
       inkscape:collect="always">
      <rect
         id="rect1616"
         height="2"
         width="1"
         y="-0.5"
         x="0"
         style="fill:black;stroke:none" />
    </pattern>
  </defs>
  <sodipodi:namedview
     pagecolor="#ffffff"
     bordercolor="#666666"
     borderopacity="1"
     objecttolerance="10"
     gridtolerance="10"
     guidetolerance="10"
     inkscape:pageopacity="0"
     inkscape:pageshadow="2"
     inkscape:window-width="711"
     inkscape:window-height="480"
     id="namedview89"
     showgrid="false"
     inkscape:zoom="4.9166667"
     inkscape:cx="22.858393"
     inkscape:cy="24"
     inkscape:window-x="0"
     inkscape:window-y="0"
     inkscape:window-maximized="0"
     inkscape:current-layer="svg87" />
  <linearGradient
     id="a"
     gradientTransform="matrix(.99999999 0 0 .97651009 -51.385497 17.337404)"
     gradientUnits="userSpaceOnUse"
     x1="409.57144"
     x2="409.57144"
     y1="542.79797"
     y2="507.798">
    <stop
       offset="0"
       stop-color="#2e3436"
       id="stop2" />
    <stop
       offset="1"
       stop-color="#555753"
       id="stop4" />
  </linearGradient>
  <g
     transform="translate(-333.185951 -505.807945)"
     id="g85">
    <g
       transform="translate(0 -.500155)"
       id="g11">
      <rect
         fill-opacity=".666667"
         height="33.201344"
         ry="1.562416"
         width="44"
         x="335.18594"
         y="514.20758"
         id="rect7" />
      <rect
         fill="url(#a)"
         height="33.201344"
         ry="1.562416"
         width="44"
         x="335.18594"
         y="513.20728"
         id="rect9"
         style="fill:url(#Strips1_1);fill-opacity:1.0" />
    </g>
    <g
       transform="matrix(.83640027 0 0 .83640027 15.731889 92.496918)"
       id="g75">
      <circle
         cx="395.07144"
         cy="533.29797"
         fill="#eff0f1"
         r="3.499974"
         id="circle13" />
      <circle
         cx="395.07144"
         cy="533.29797"
         fill="#3daefd"
         r="2.5"
         id="circle15" />
      <circle
         cx="395.07144"
         cy="524.29797"
         fill="#eff0f1"
         r="3.499974"
         id="circle17" />
      <circle
         cx="395.07144"
         cy="524.29797"
         fill="#3daefd"
         r="2.5"
         id="circle19" />
      <path
         d="m399.57144 513.79797h2v1h-2z"
         fill="#da4453"
         id="path21" />
      <path
         d="m402.57144 513.79797h3v1h-3z"
         fill="#da4453"
         id="path23" />
      <path
         d="m408.57144 513.79797h3.000012v1h-3.000012z"
         fill="#e5fdff"
         id="path25" />
      <path
         d="m413.57144 513.79797h6v1h-6z"
         fill="#e5fdff"
         id="path27" />
      <path
         d="m420.57144 513.79797h3.999988v1h-3.999988z"
         fill="#e5fdff"
         id="path29" />
      <path
         d="m399.57144 515.79797h4v1h-4z"
         fill="#bdc3c7"
         id="path31" />
      <path
         d="m404.57144 515.79797h2v1h-2z"
         fill="#bdc3c7"
         id="path33" />
      <path
         d="m408.57144 515.79797h8.000011v1h-8.000011z"
         fill="#e5fdff"
         id="path35" />
      <path
         d="m399.57144 522.79797h2v1h-2z"
         fill="#3daefd"
         id="path37" />
      <path
         d="m402.57144 522.79797h3v1h-3z"
         fill="#3daefd"
         id="path39" />
      <path
         d="m408.57144 522.79797h4.000011v1h-4.000011z"
         fill="#e5fdff"
         id="path41" />
      <path
         d="m414.57144 522.79797h4v1h-4z"
         fill="#e5fdff"
         id="path43" />
      <path
         d="m419.57144 522.79797h4.999989v1h-4.999989z"
         fill="#e5fdff"
         id="path45" />
      <path
         d="m399.57144 524.79797h2.999988v1h-2.999988z"
         fill="#bdc3c7"
         id="path47" />
      <path
         d="m408.57144 524.79797h3v1h-3z"
         fill="#e5fdff"
         id="path49" />
      <path
         d="m412.57144 524.79797h1v1h-1z"
         fill="#e5fdff"
         id="path51" />
      <path
         d="m414.57144 524.79797h5v1h-5z"
         fill="#e5fdff"
         id="path53" />
      <g
         transform="scale(-1 1)"
         id="g69">
        <path
           d="m-419.57144 533.79797h2v1h-2z"
           fill="#e5fdff"
           id="path55" />
        <path
           d="m-416.57144 533.79797h8.000011v1h-8.000011z"
           fill="#e5fdff"
           id="path57" />
        <path
           d="m-406.57144 533.79797h6.999989v1h-6.999989z"
           fill="#bdc3c7"
           id="path59" />
        <path
           d="m-424.57144 531.79797h2v1h-2z"
           fill="#e5fdff"
           id="path61" />
        <path
           d="m-421.57144 531.79797h3v1h-3z"
           fill="#e5fdff"
           id="path63" />
        <path
           d="m-417.57144 531.79797h9.000011v1h-9.000011z"
           fill="#e5fdff"
           id="path65" />
        <path
           d="m-404.57144 531.79797h4.999989v1h-4.999989z"
           fill="#3daefd"
           id="path67" />
      </g>
      <path
         d="m395.07227 511.7207-3.50084 1.4668s.41627 1.90215.86682 3.00391c.22527.55088.50035 1.12129.88919 1.61718.38884.4959.96497.99024 1.74483.99024.77985 0 1.35412-.49434 1.74296-.99024.38883-.49589.66392-1.0663.88919-1.61718.45055-1.10176.86868-3.00391.86868-3.00391z"
         fill="#eff0f1"
         fill-rule="evenodd"
         id="path71" />
      <path
         d="m392.57143 513.798 2.5-1 2.5 1s-.92767 4-2.5 4-2.5-4-2.5-4z"
         fill="#da4453"
         fill-rule="evenodd"
         id="path73" />
    </g>
    <g
       fill="#eff0f1"
       id="g83">
      <circle
         cx="347.551702096958"
         cy="516.207547118339"
         r="1.781425731018"
         id="circle77" />
      <circle
         cx="343.175308725378"
         cy="516.245334400809"
         r="1.781425731018"
         id="circle79" />
      <circle
         cx="338.873378528078"
         cy="516.287521211991"
         r="1.781425731018"
         id="circle81" />
    </g>
  </g>
</svg>
