<?xml version="1.0" encoding="UTF-8" standalone="no"?>
<svg
   xmlns:dc="http://purl.org/dc/elements/1.1/"
   xmlns:cc="http://creativecommons.org/ns#"
   xmlns:rdf="http://www.w3.org/1999/02/22-rdf-syntax-ns#"
   xmlns:svg="http://www.w3.org/2000/svg"
   xmlns="http://www.w3.org/2000/svg"
   xmlns:sodipodi="http://sodipodi.sourceforge.net/DTD/sodipodi-0.dtd"
   xmlns:inkscape="http://www.inkscape.org/namespaces/inkscape"
   viewBox="0 0 48 48"
   version="1.1"
   id="svg21"
   sodipodi:docname="AdobeAIR.svg"
   inkscape:version="0.92.3 (2405546, 2018-03-11)">
  <metadata
     id="metadata27">
    <rdf:RDF>
      <cc:Work
         rdf:about="">
        <dc:format>image/svg+xml</dc:format>
        <dc:type
           rdf:resource="http://purl.org/dc/dcmitype/StillImage" />
      </cc:Work>
    </rdf:RDF>
  </metadata>
  <defs
     id="defs25">
    <pattern
       inkscape:stockid="Stripes 1:1"
       id="Strips1_1"
       patternTransform="translate(0,0) scale(10,10)"
       height="1"
       width="2"
       patternUnits="userSpaceOnUse"
       inkscape:collect="always">
      <rect
         id="rect1553"
         height="2"
         width="1"
         y="-0.5"
         x="0"
         style="fill:black;stroke:none" />
    </pattern>
  </defs>
  <sodipodi:namedview
     pagecolor="#ffffff"
     bordercolor="#666666"
     borderopacity="1"
     objecttolerance="10"
     gridtolerance="10"
     guidetolerance="10"
     inkscape:pageopacity="0"
     inkscape:pageshadow="2"
     inkscape:window-width="711"
     inkscape:window-height="480"
     id="namedview23"
     showgrid="false"
     inkscape:zoom="4.9166667"
     inkscape:cx="10.681247"
     inkscape:cy="24"
     inkscape:window-x="0"
     inkscape:window-y="0"
     inkscape:window-maximized="0"
     inkscape:current-layer="svg21" />
  <linearGradient
     gradientUnits="userSpaceOnUse"
     x1="0"
     x2="47"
     y1="23.5"
     y2="23.5"
     id="linearGradient8">
    <stop
       offset="0"
       stop-color="#a9a3d4"
       id="stop2" />
    <stop
       offset=".47001833"
       stop-color="#87baff"
       id="stop4" />
    <stop
       offset="1"
       stop-color="#89ec85"
       id="stop6" />
  </linearGradient>
  <linearGradient
     id="a"
     gradientUnits="userSpaceOnUse"
     x1="408.571387983602"
     x2="408.571387983602"
     y1="543.798108817013"
     y2="503.798067617013">
    <stop
       offset="0"
       stop-color="#e02d2d"
       id="stop10" />
    <stop
       offset="1"
       stop-color="#f75151"
       id="stop12" />
  </linearGradient>
  <g
     transform="translate(-453.3172 -498.37427)"
     id="g19"
     style="fill:url(#Strips1_1);fill-opacity:1.0">
    <rect
       fill="url(#a)"
       height="40"
       ry="20"
       transform="matrix(1.099999996813 0 0 1.099999996813 27.888616379529 -53.803534535844)"
       width="40"
       x="388.57144"
       y="503.798"
       id="rect15"
       style="fill:url(#Strips1_1);fill-opacity:1.0" />
    <path
       d="m479.23518 508.52095c-2.22111.16895-3.82719 1.59371-4.74098 4.26605-1.32792 3.855-3.56964 6.14925-7.50087 7.64613-2.3262.88083-3.14314 1.47319-3.86737 2.86499-.5831 1.11879-.70466 2.76093-.32555 4.13109.25343.91379 1.569 2.42303 2.5992 2.95771.96941.51097 2.79698.57587 5.48889.16483 1.57724-.24107 1.95945-.25343 3.41305.0319 2.0398.40281 3.96834 1.37635 5.61769 2.80111 1.52468 1.31969 2.1325 1.6339 3.31208 1.82346 1.14249.17719 2.02434.0649 3.18332-.42238 1.03019-.43475 2.16857-1.59784 2.63216-2.67234.17307-.39457.32245-1.27127.32554-1.98416.004-1.53706-.46669-2.58786-1.69056-4.00439-1.19503-1.38047-2.04391-2.75681-2.53532-4.10019-.58-1.59371-.70466-4.79661-.25755-6.80137.49862-2.24584.0804-3.80247-1.39592-5.2025-1.04256-.98591-1.8832-1.3846-3.28427-1.49688-.34203-.0278-.65624-.0237-.97354 0m-2.14488 10.1526c1.13838-.0278 2.31795.39869 3.25132 1.30012 2.3097 2.24171 1.76267 5.84741-1.10644 7.29174-.90555.45432-2.38285.55528-3.40893.22562-.96942-.3101-2.13251-1.28776-2.66409-2.27778-.22974-.41825-.32246-1.10231-.32555-2.02022-.004-1.15072.0845-1.48142.55116-2.27776.83755-1.42889 2.23759-2.20978 3.70253-2.24172m0 0"
       fill="#fff"
       fill-opacity=".846774"
       id="path17"
       style="fill:#808080;fill-opacity:1" />
  </g>
</svg>
