<?xml version="1.0" encoding="UTF-8" standalone="no"?>
<svg
   xmlns:dc="http://purl.org/dc/elements/1.1/"
   xmlns:cc="http://creativecommons.org/ns#"
   xmlns:rdf="http://www.w3.org/1999/02/22-rdf-syntax-ns#"
   xmlns:svg="http://www.w3.org/2000/svg"
   xmlns="http://www.w3.org/2000/svg"
   xmlns:sodipodi="http://sodipodi.sourceforge.net/DTD/sodipodi-0.dtd"
   xmlns:inkscape="http://www.inkscape.org/namespaces/inkscape"
   height="48"
   width="48"
   version="1.1"
   id="svg13"
   sodipodi:docname="boinc.svg"
   inkscape:version="0.92.3 (2405546, 2018-03-11)">
  <metadata
     id="metadata19">
    <rdf:RDF>
      <cc:Work
         rdf:about="">
        <dc:format>image/svg+xml</dc:format>
        <dc:type
           rdf:resource="http://purl.org/dc/dcmitype/StillImage" />
      </cc:Work>
    </rdf:RDF>
  </metadata>
  <defs
     id="defs17">
    <pattern
       inkscape:stockid="Stripes 1:1"
       id="Strips1_1"
       patternTransform="translate(0,0) scale(10,10)"
       height="1"
       width="2"
       patternUnits="userSpaceOnUse"
       inkscape:collect="always">
      <rect
         id="rect1542"
         height="2"
         width="1"
         y="-0.5"
         x="0"
         style="fill:black;stroke:none" />
    </pattern>
  </defs>
  <sodipodi:namedview
     pagecolor="#ffffff"
     bordercolor="#666666"
     borderopacity="1"
     objecttolerance="10"
     gridtolerance="10"
     guidetolerance="10"
     inkscape:pageopacity="0"
     inkscape:pageshadow="2"
     inkscape:window-width="711"
     inkscape:window-height="480"
     id="namedview15"
     showgrid="false"
     inkscape:zoom="4.9166667"
     inkscape:cx="13.725533"
     inkscape:cy="24"
     inkscape:window-x="0"
     inkscape:window-y="0"
     inkscape:window-maximized="0"
     inkscape:current-layer="svg13" />
  <linearGradient
     id="a"
     gradientUnits="userSpaceOnUse"
     x1="408.571363787676"
     x2="408.571363787676"
     y1="545.798113156694"
     y2="501.798067556694">
    <stop
       offset="0"
       stop-color="#ff9300"
       id="stop2" />
    <stop
       offset="1"
       stop-color="#ffd702"
       id="stop4" />
  </linearGradient>
  <g
     transform="translate(-384.57143 -499.798)"
     id="g11"
     style="fill:url(#Strips1_1);fill-opacity:1.0">
    <rect
       fill="url(#a)"
       height="44"
       ry="22"
       width="44"
       x="386.57144"
       y="501.798"
       id="rect7"
       style="fill:url(#Strips1_1);fill-opacity:1.0" />
    <path
       d="m397.68286 511.36274-1.5467 1.54669 5.53348 5.53731v.022l1.55052 1.54669c1.188-1.67773 3.13835-2.77965 5.35078-2.77965.85609 0 1.66626.1827 2.41331.47826l1.64043-1.63661c-1.21478-.6466-2.58165-1.0273-4.05374-1.0273-2.0173 0-3.87104.69826-5.35078 1.84609m16.23887-5.53348-5.53731 5.53348c-.008-.008-.0115-.0153-.022-.022l-1.54669 1.54669c1.68539 1.188 2.77583 3.16131 2.77583 5.37661 0 .86278-.176 1.68157-.47827 2.43626l1.64044 1.64044c.65043-1.21765 1.0273-2.60079 1.0273-4.0767 0-2.0173-.69826-3.87104-1.84608-5.35078l5.53347-5.53348-1.55052-1.55052m-18.60339 8.35809c-.65426 1.21765-1.0273 2.59695-1.0273 4.07669 0 2.01731.69826 3.87105 1.84608 5.35078l-5.53347 5.53348 1.54669 1.55052 1.64044-1.64043-.022-.022 5.44356-5.44357c-1.65478-1.19182-2.73469-3.13452-2.73469-5.33165 0-.85895.17982-1.68156.47826-2.43626l-1.63661-1.64043m13.06991 7.86165c-1.188 1.67774-3.13835 2.77582-5.35078 2.77582-.88191 0-1.71504-.18652-2.48122-.50026l-1.64043 1.64044c1.22913.66478 2.62661 1.04643 4.12165 1.04643 2.0173 0 3.87104-.69539 5.35078-1.84226l5.53348 5.53348 1.55052-1.55052-3.25791-3.28087-2.27557-2.25261c.004-.004-.004-.0191 0-.022l-1.55052-1.55052m-.98043-3.77905c0 2.41331-1.958 4.37131-4.37131 4.37131-2.4133 0-4.3713-1.958-4.3713-4.37131 0-2.4133 1.958-4.3713 4.3713-4.3713 2.41331 0 4.37131 1.958 4.37131 4.3713m0 0"
       fill-opacity=".758064"
       id="path9"
       style="fill:#e3dbdb;fill-opacity:1" />
  </g>
</svg>
