<?xml version="1.0" encoding="UTF-8" standalone="no"?>
<svg
   xmlns:dc="http://purl.org/dc/elements/1.1/"
   xmlns:cc="http://creativecommons.org/ns#"
   xmlns:rdf="http://www.w3.org/1999/02/22-rdf-syntax-ns#"
   xmlns:svg="http://www.w3.org/2000/svg"
   xmlns="http://www.w3.org/2000/svg"
   xmlns:sodipodi="http://sodipodi.sourceforge.net/DTD/sodipodi-0.dtd"
   xmlns:inkscape="http://www.inkscape.org/namespaces/inkscape"
   height="48"
   width="48"
   version="1.1"
   id="svg21"
   sodipodi:docname="canopy.svg"
   inkscape:version="0.92.3 (2405546, 2018-03-11)">
  <metadata
     id="metadata27">
    <rdf:RDF>
      <cc:Work
         rdf:about="">
        <dc:format>image/svg+xml</dc:format>
        <dc:type
           rdf:resource="http://purl.org/dc/dcmitype/StillImage" />
      </cc:Work>
    </rdf:RDF>
  </metadata>
  <defs
     id="defs25">
    <pattern
       inkscape:stockid="Stripes 1:1"
       id="Strips1_1"
       patternTransform="translate(0,0) scale(10,10)"
       height="1"
       width="2"
       patternUnits="userSpaceOnUse"
       inkscape:collect="always">
      <rect
         id="rect1553"
         height="2"
         width="1"
         y="-0.5"
         x="0"
         style="fill:black;stroke:none" />
    </pattern>
  </defs>
  <sodipodi:namedview
     pagecolor="#ffffff"
     bordercolor="#666666"
     borderopacity="1"
     objecttolerance="10"
     gridtolerance="10"
     guidetolerance="10"
     inkscape:pageopacity="0"
     inkscape:pageshadow="2"
     inkscape:window-width="711"
     inkscape:window-height="480"
     id="namedview23"
     showgrid="false"
     inkscape:zoom="4.9166667"
     inkscape:cx="25.141607"
     inkscape:cy="24"
     inkscape:window-x="0"
     inkscape:window-y="0"
     inkscape:window-maximized="0"
     inkscape:current-layer="svg21" />
  <linearGradient
     gradientUnits="userSpaceOnUse"
     x1="0"
     x2="47"
     y1="23.5"
     y2="23.5"
     id="linearGradient8">
    <stop
       offset="0"
       stop-color="#a9a3d4"
       id="stop2" />
    <stop
       offset=".47001833"
       stop-color="#87baff"
       id="stop4" />
    <stop
       offset="1"
       stop-color="#89ec85"
       id="stop6" />
  </linearGradient>
  <linearGradient
     id="a"
     gradientUnits="userSpaceOnUse"
     x1="400.57144"
     x2="400.57144"
     y1="545.79797"
     y2="517.79797">
    <stop
       offset="0"
       stop-color="#981fe7"
       id="stop10" />
    <stop
       offset="1"
       stop-color="#db50c8"
       id="stop12" />
  </linearGradient>
  <g
     stroke-width="1.317422"
     transform="matrix(1.000000004476 0 0 1.000000004476 -486.760340300875 -502.725834528142)"
     id="g19">
    <rect
       fill="url(#a)"
       height="28.000027"
       ry="14.000006"
       transform="matrix(1.634735284396 0 0 1.634735284396 -144.067942974664 -342.623101459356)"
       width="28.000011"
       x="386.57144"
       y="517.79797"
       id="rect15"
       style="fill:url(#Strips1_1);fill-opacity:1.0" />
    <path
       d="m404.53456 503.5025c-3.22787 0-5.82647 2.5986-5.82647 5.82647v3.8843h9.71077v1.94216h-9.71077-3.8843c-4.30384 0-7.76864 3.46481-7.76864 7.76864v3.88431c0 4.30381 3.4648 7.7686 7.76864 7.7686v-3.8843c0-3.57581 2.40475-6.54232 5.68231-7.45379.28519-.0793.57756-.14047.87246-.19344.39782-.0624.79798-.1213 1.21384-.1213h7.76863 6.26269c.92676-1.03103 1.50594-2.38244 1.50594-3.8843v-9.71077c0-3.22788-2.59861-5.82648-5.82646-5.82648zm17.47942 11.65293v3.88432c0 3.57581-2.40477 6.54231-5.68234 7.45379-.28518.0793-.57756.14044-.87246.19346-.39783.0623-.79796.12128-1.21384.12128h-7.76861-6.2627c-.92677 1.03106-1.50594 2.38246-1.50594 3.88432v9.71079c0 3.22786 2.5986 5.82647 5.82647 5.82647h7.76864c3.22785 0 5.82646-2.59861 5.82646-5.82647v-3.88431h-9.7108v-1.94216h9.7108 3.88432c4.3038 0 7.76861-3.46481 7.76861-7.76864v-3.8843c0-4.30383-3.46481-7.76863-7.76861-7.76863z"
       fill="#fff"
       fill-opacity=".806452"
       transform="matrix(.6553178 0 0 .6553178 243.01621 183.47168)"
       id="path17"
       style="fill:#cccccc" />
  </g>
</svg>
