<?xml version="1.0" encoding="UTF-8" standalone="no"?>
<svg
   xmlns:dc="http://purl.org/dc/elements/1.1/"
   xmlns:cc="http://creativecommons.org/ns#"
   xmlns:rdf="http://www.w3.org/1999/02/22-rdf-syntax-ns#"
   xmlns:svg="http://www.w3.org/2000/svg"
   xmlns="http://www.w3.org/2000/svg"
   xmlns:sodipodi="http://sodipodi.sourceforge.net/DTD/sodipodi-0.dtd"
   xmlns:inkscape="http://www.inkscape.org/namespaces/inkscape"
   height="48"
   width="48"
   version="1.1"
   id="svg29"
   sodipodi:docname="cantor.svg"
   inkscape:version="0.92.3 (2405546, 2018-03-11)">
  <metadata
     id="metadata35">
    <rdf:RDF>
      <cc:Work
         rdf:about="">
        <dc:format>image/svg+xml</dc:format>
        <dc:type
           rdf:resource="http://purl.org/dc/dcmitype/StillImage" />
      </cc:Work>
    </rdf:RDF>
  </metadata>
  <defs
     id="defs33">
    <pattern
       inkscape:stockid="Stripes 1:1"
       id="Strips1_1"
       patternTransform="translate(0,0) scale(10,10)"
       height="1"
       width="2"
       patternUnits="userSpaceOnUse"
       inkscape:collect="always">
      <rect
         id="rect1558"
         height="2"
         width="1"
         y="-0.5"
         x="0"
         style="fill:black;stroke:none" />
    </pattern>
  </defs>
  <sodipodi:namedview
     pagecolor="#ffffff"
     bordercolor="#666666"
     borderopacity="1"
     objecttolerance="10"
     gridtolerance="10"
     guidetolerance="10"
     inkscape:pageopacity="0"
     inkscape:pageshadow="2"
     inkscape:window-width="711"
     inkscape:window-height="480"
     id="namedview31"
     showgrid="false"
     inkscape:zoom="4.9166667"
     inkscape:cx="21.336249"
     inkscape:cy="24"
     inkscape:window-x="0"
     inkscape:window-y="0"
     inkscape:window-maximized="0"
     inkscape:current-layer="svg29" />
  <linearGradient
     id="a"
     gradientTransform="matrix(1.0309825 0 0 1 -.512598 0)"
     gradientUnits="userSpaceOnUse"
     x1="17"
     x2="17"
     y1="1036.3622"
     y2="1012.3622">
    <stop
       offset="0"
       stop-color="#3e474d"
       id="stop2" />
    <stop
       offset="1"
       stop-color="#6a767c"
       id="stop4" />
  </linearGradient>
  <linearGradient
     id="b"
     gradientTransform="matrix(.65797542 0 0 1 11.931983 0)"
     gradientUnits="userSpaceOnUse"
     x1="33.461716"
     x2="34.116894"
     y1="1013.622"
     y2="1037.2084">
    <stop
       offset="0"
       stop-color="#f6fbff"
       id="stop7" />
    <stop
       offset="1"
       stop-color="#eaeff2"
       id="stop9" />
  </linearGradient>
  <linearGradient
     id="c"
     gradientUnits="userSpaceOnUse"
     x1="27.800341"
     x2="27.800341"
     y1="1037.3622"
     y2="1011.3622">
    <stop
       offset="0"
       stop-color="#3a4247"
       id="stop12" />
    <stop
       offset="1"
       stop-color="#4b545a"
       id="stop14" />
  </linearGradient>
  <g
     transform="matrix(1.759273099463 0 0 1.759273099463 -15.45158089473 -1778.73656250816)"
     id="g27"
     style="fill:url(#Strips1_1);fill-opacity:1.0">
    <g
       fill-rule="evenodd"
       id="g23"
       style="fill:url(#Strips1_1);fill-opacity:1.0">
      <path
         d="m34.002453 1036.9362h-7.623872v-24.498h7.623872c.809407-.094.874539.023.874539 1.1721v22.0916c.05083 1.261-.08747 1.2343-.874539 1.2343z"
         fill="url(#b)"
         id="path17"
         style="fill:url(#Strips1_1);fill-opacity:1.0" />
      <path
         d="m11.563303 1036.9442h11.636697v-24.498h-11.533603c-1.268259-.094-1.782566.023-1.782566 1.1721v22.0916c-.07966 1.261.446208 1.2343 1.679472 1.2343z"
         fill="url(#a)"
         id="path19"
         style="fill:url(#Strips1_1);fill-opacity:1.0" />
      <path
         d="m31.957586 1038.1035-10.029586-1.1715v-24.4859l9.945906-.9326c1.230149-.094 1.296492.2446 1.296492 1.3937l-.08368 23.3688c.07726 1.261.06707 1.8275-1.129132 1.8275z"
         fill="url(#c)"
         id="path21"
         style="fill:url(#Strips1_1);fill-opacity:1.0" />
    </g>
    <path
       d="m460.96881 517.80386-11.38614.006-6.32132 10.94692-2.21272-3.83614h-.006-2.84653v1.42326h2.03204l3.03556 5.25664.82005-1.42049 6.32409-10.95248h9.13728v1.42326h1.42326v-2.84653zm-7.11634 4.27537c-2.36547 0-4.2698 1.90433-4.2698 4.2698s1.90433 4.2698 4.2698 4.2698c1.10062 0 2.09097-.42441 2.84654-1.1036v1.1036h1.42327v-4.2698-4.2698h-1.42327v1.10359c-.75557-.67919-1.74592-1.10359-2.84654-1.10359zm0 1.42327c1.57698 0 2.84654 1.26955 2.84654 2.84653s-1.26956 2.84654-2.84654 2.84654-2.84653-1.26956-2.84653-2.84654 1.26955-2.84653 2.84653-2.84653zm-15.64204 8.5257c-.009 0-.0142.31739-.0142.71163 0 .39425.006.71163.0142.71163h22.74449c.009 0 .0142-.31738.0142-.71163 0-.39424-.006-.71163-.0142-.71163h-22.74447zm9.96288 2.84653c-.009 0-.0142.31741-.0142.71164s.006.71163.0142.71163h2.81874c.009 0 .0142-.3174.0142-.71163s-.006-.71164-.0142-.71164h-2.81873z"
       fill="#d6d6d6"
       transform="matrix(.65517696 0 0 .65517696 -272.925087449546 679.66472230433)"
       id="path25"
       style="fill:#cccccc;fill-opacity:1" />
  </g>
</svg>
