<?xml version="1.0" encoding="UTF-8" standalone="no"?>
<svg
   xmlns:dc="http://purl.org/dc/elements/1.1/"
   xmlns:cc="http://creativecommons.org/ns#"
   xmlns:rdf="http://www.w3.org/1999/02/22-rdf-syntax-ns#"
   xmlns:svg="http://www.w3.org/2000/svg"
   xmlns="http://www.w3.org/2000/svg"
   xmlns:sodipodi="http://sodipodi.sourceforge.net/DTD/sodipodi-0.dtd"
   xmlns:inkscape="http://www.inkscape.org/namespaces/inkscape"
   height="48"
   width="48"
   version="1.1"
   id="svg56"
   sodipodi:docname="chrome.svg"
   inkscape:version="0.92.3 (2405546, 2018-03-11)">
  <metadata
     id="metadata62">
    <rdf:RDF>
      <cc:Work
         rdf:about="">
        <dc:format>image/svg+xml</dc:format>
        <dc:type
           rdf:resource="http://purl.org/dc/dcmitype/StillImage" />
      </cc:Work>
    </rdf:RDF>
  </metadata>
  <defs
     id="defs60" />
  <sodipodi:namedview
     pagecolor="#ffffff"
     bordercolor="#666666"
     borderopacity="1"
     objecttolerance="10"
     gridtolerance="10"
     guidetolerance="10"
     inkscape:pageopacity="0"
     inkscape:pageshadow="2"
     inkscape:window-width="711"
     inkscape:window-height="480"
     id="namedview58"
     showgrid="false"
     inkscape:zoom="4.9166667"
     inkscape:cx="19.053034"
     inkscape:cy="24"
     inkscape:window-x="0"
     inkscape:window-y="0"
     inkscape:window-maximized="0"
     inkscape:current-layer="svg56" />
  <linearGradient
     id="a"
     gradientUnits="userSpaceOnUse"
     x1="422.77555"
     x2="422.77555"
     y1="547.303152"
     y2="512.861914">
    <stop
       offset="0"
       stop-color="#ffcd40"
       id="stop2" />
    <stop
       offset="1"
       stop-color="#fee145"
       id="stop4" />
  </linearGradient>
  <linearGradient
     id="b"
     gradientUnits="userSpaceOnUse"
     x1="394.371434"
     x2="394.272457"
     y1="543.737065"
     y2="511.674288">
    <stop
       offset="0"
       stop-color="#0f9d58"
       id="stop7" />
    <stop
       offset="1"
       stop-color="#00d455"
       id="stop9" />
  </linearGradient>
  <linearGradient
     id="c"
     gradientUnits="userSpaceOnUse"
     x1="407.336378"
     x2="407.336378"
     y1="518.800058"
     y2="499.798">
    <stop
       offset="0"
       stop-color="#db4437"
       id="stop12" />
    <stop
       offset="1"
       stop-color="#fd5757"
       id="stop14" />
  </linearGradient>
  <linearGradient
     id="d"
     gradientUnits="userSpaceOnUse"
     x1="408.571473"
     x2="408.571473"
     y1="532.298067"
     y2="515.298061">
    <stop
       offset="0"
       stop-color="#2566d3"
       id="stop17" />
    <stop
       offset="1"
       stop-color="#429aff"
       id="stop19" />
  </linearGradient>
  <linearGradient
     id="e"
     gradientUnits="userSpaceOnUse"
     x1="409.65226"
     x2="409.65226"
     y1="546.115481"
     y2="499.857371">
    <stop
       offset="0"
       stop-color="#79a8ca"
       id="stop22" />
    <stop
       offset="1"
       stop-color="#9ecbda"
       id="stop24" />
  </linearGradient>
  <linearGradient
     id="f"
     gradientUnits="userSpaceOnUse"
     x1="408.571429"
     x2="408.571429"
     y1="533.575775"
     y2="512.797997">
    <stop
       offset="0"
       stop-color="#f2f6f7"
       id="stop27" />
    <stop
       offset="1"
       stop-color="#ecf0f1"
       id="stop29" />
  </linearGradient>
  <g
     transform="matrix(.91666667 0 0 .91666667 -350.47998 -456.14817)"
     id="g54">
    <rect
       fill="url(#e)"
       height="45.129883"
       ry="22.564941"
       width="45.12989"
       x="385.95911"
       y="500.98563"
       id="rect32" />
    <path
       d="m409.08535 512.5047c-.3107 0-.56134.25064-.56134.56134s.25064.56134.56134.56134h20.25463c.0409 0 .0776-.0149.11599-.0231l.27553-.74227-1.0178-.35722z"
       fill="#649cc1"
       opacity=".8"
       id="path34" />
    <g
       fill-rule="evenodd"
       id="g46">
      <path
         d="m4.9550781 9.9960938c-2.97437 3.9667902-4.75585935 8.9645622-4.75585935 14.3261722 0 13.15893 10.59498625 23.677734 23.75390625 23.677734s23.751953-10.593033 23.751953-23.751953c0-3.85418-.929042-7.477133-2.544922-10.689453h-20.019531l7.125 17.339844-.0332.06836-15.40625-3.15625z"
         fill-opacity=".352941"
         transform="translate(384.57143 499.798)"
         id="path36" />
      <path
         d="m389.52659 509.29903c-2.97437 3.96679-4.75516 8.96416-4.75516 14.32577 0 13.15893 10.59366 23.67835 23.75258 23.67835l8.3134-17.02762-15.43918-3.16207z"
         fill="url(#b)"
         id="path38"
         style="fill:#808080" />
      <path
         d="m409.71164 512.86192 7.12577 17.33938-8.3134 17.10185c13.15892 0 23.75257-10.59365 23.75257-23.75257 0-3.85418-.9287-7.47634-2.54458-10.68866z"
         fill="url(#a)"
         id="path40"
         style="fill:#333333" />
      <path
         d="m408.50355 499.81054c-7.94719 0-14.95389 3.92882-19.36262 9.99406l12.09986 18.72482c10.42064-.007 12.79619-9.04933 8.47322-14.98376h20.40523c-3.97602-8.15361-12.13208-13.73512-21.61569-13.73512z"
         fill="#1a1a1a"
         fill-opacity=".352941"
         id="path42" />
      <path
         d="m408.51937 499.798c-7.79731 0-14.67185 3.73682-18.99742 9.50567l11.87164 17.80979 15.43918 3.08784-7.12578-17.33938h20.02037c-3.90104-7.75516-11.90326-13.06392-21.20799-13.06392z"
         fill="url(#c)"
         id="path44"
         style="fill:#f9f9f9" />
    </g>
    <path
       d="m408.57143 512.798c-6.094 0-11 4.906-11 11 0 3.04699 1.22659 5.79691 3.21484 7.78516l15.06641 15.0664c7.39204-2.38045 13.17804-8.2686 15.41602-15.72461l-14.91211-14.91211c-1.98825-1.98825-4.73816-3.21484-7.78516-3.21484z"
       fill-opacity=".078431"
       id="path48" />
    <path
       d="m408.57143 512.79801c6.09399 0 11 4.906 11 11 0 6.09399-4.90601 10.99999-11 10.99999-6.094 0-11-4.906-11-10.99999 0-6.094 4.906-11 11-11z"
       fill="url(#f)"
       id="path50" />
    <path
       d="m408.57143 515.298h.00001c4.70899 0 8.49999 3.79099 8.49999 8.5 0 4.709-3.791 8.5-8.49999 8.5h-.00001c-4.70901 0-8.5-3.791-8.5-8.5 0-4.70901 3.79099-8.5 8.5-8.5z"
       fill="url(#d)"
       id="path52"
       style="fill:#1a1a1a" />
  </g>
</svg>
