<?xml version="1.0" encoding="UTF-8" standalone="no"?>
<svg
   xmlns:dc="http://purl.org/dc/elements/1.1/"
   xmlns:cc="http://creativecommons.org/ns#"
   xmlns:rdf="http://www.w3.org/1999/02/22-rdf-syntax-ns#"
   xmlns:svg="http://www.w3.org/2000/svg"
   xmlns="http://www.w3.org/2000/svg"
   xmlns:xlink="http://www.w3.org/1999/xlink"
   xmlns:sodipodi="http://sodipodi.sourceforge.net/DTD/sodipodi-0.dtd"
   xmlns:inkscape="http://www.inkscape.org/namespaces/inkscape"
   height="48"
   width="48"
   version="1.1"
   id="svg26"
   sodipodi:docname="clock.svg"
   inkscape:version="0.92.3 (2405546, 2018-03-11)">
  <metadata
     id="metadata32">
    <rdf:RDF>
      <cc:Work
         rdf:about="">
        <dc:format>image/svg+xml</dc:format>
        <dc:type
           rdf:resource="http://purl.org/dc/dcmitype/StillImage" />
      </cc:Work>
    </rdf:RDF>
  </metadata>
  <defs
     id="defs30">
    <pattern
       inkscape:stockid="Stripes 1:1"
       id="Strips1_1"
       patternTransform="translate(0,0) scale(10,10)"
       height="1"
       width="2"
       patternUnits="userSpaceOnUse"
       inkscape:collect="always">
      <rect
         id="rect1555"
         height="2"
         width="1"
         y="-0.5"
         x="0"
         style="fill:black;stroke:none" />
    </pattern>
  </defs>
  <sodipodi:namedview
     pagecolor="#ffffff"
     bordercolor="#666666"
     borderopacity="1"
     objecttolerance="10"
     gridtolerance="10"
     guidetolerance="10"
     inkscape:pageopacity="0"
     inkscape:pageshadow="2"
     inkscape:window-width="711"
     inkscape:window-height="480"
     id="namedview28"
     showgrid="false"
     inkscape:zoom="4.9166667"
     inkscape:cx="16.008748"
     inkscape:cy="24"
     inkscape:window-x="0"
     inkscape:window-y="0"
     inkscape:window-maximized="0"
     inkscape:current-layer="svg26" />
  <linearGradient
     id="a">
    <stop
       offset="0"
       stop-color="#b3b3b3"
       id="stop2" />
    <stop
       offset="1"
       stop-color="#fff"
       id="stop4" />
  </linearGradient>
  <linearGradient
     id="b"
     gradientUnits="userSpaceOnUse"
     x1="408.571356661144"
     x2="408.571356661144"
     y1="546.798098036636"
     y2="500.798051636636">
    <stop
       offset="0"
       stop-color="#2a2c2f"
       id="stop7" />
    <stop
       offset="1"
       stop-color="#424649"
       id="stop9" />
  </linearGradient>
  <linearGradient
     id="c"
     gradientUnits="userSpaceOnUse"
     x1="412.177816483712"
     x2="411.36191136009"
     xlink:href="#a"
     y1="529.713948610458"
     y2="508.094220282419" />
  <linearGradient
     id="d"
     gradientUnits="userSpaceOnUse"
     x1="408.571356661144"
     x2="408.571356661144"
     xlink:href="#a"
     y1="546.798098036636"
     y2="500.798051636636" />
  <g
     transform="matrix(.95833333 0 0 .95833333 -367.54763 -477.973085)"
     id="g24"
     style="fill:url(#Strips1_1);fill-opacity:1.0">
    <rect
       fill="url(#b)"
       height="46"
       ry="23"
       width="46"
       x="385.57144"
       y="500.798"
       id="rect14"
       style="fill:url(#Strips1_1);fill-opacity:1.0" />
    <rect
       fill="none"
       height="46"
       ry="23"
       stroke="url(#d)"
       stroke-width="2"
       width="46"
       x="385.57144"
       y="500.798"
       id="rect16"
       style="fill:url(#Strips1_1);fill-opacity:1.0" />
    <path
       d="m27.705078 8.5175781c.20654.20651.311419.50443.261719.8125l-2.111328 13.1093749c.30767.40112.506812.881483.570312 1.408203l15.085938 15.085938c2.699858-3.166182 4.556913-7.075316 5.21875-11.390625zm-6.191406 17.7246099 16.226562 16.226562c1.380242-1.026644 2.635911-2.208207 3.751954-3.513672l-8.00586-8.005859c-.205084.31589-.611272.424923-.949219.265625l-.08594-.08594-8.039063-4.177734c-.27055.08371-.551759.140625-.849609.140625-.79898 0-1.524108-.324889-2.048828-.849609z"
       fill-opacity=".078431"
       transform="translate(384.57143 499.798)"
       id="path18"
       style="fill:url(#Strips1_1);fill-opacity:1.0" />
    <path
       d="m411.04034 523.82005c-.0635-.52672-.26365-1.00708-.57132-1.4082l2.11232-13.10924c.0787-.48776-.23428-.9528-.71558-1.06398l-.0237-.005c-.48129-.11132-.96632.16974-1.10954.64255l-3.84809 12.70827c-.94832.47684-1.60662 1.44885-1.60662 2.58091 0 1.59844 1.29982 2.89904 2.89818 2.89904.29785 0 .57951-.0582.85006-.14191l8.03911 4.17771c.4423.22977.98673.0863 1.25815-.33178l.0115-.0184c.2715-.41791.18124-.97374-.20884-1.28424zm-4.29579.34496c0-.78925.64239-1.43162 1.43161-1.43162.78994 0 1.43231.64237 1.43231 1.43162 0 .78982-.64237 1.4323-1.43231 1.4323-.78922 0-1.43161-.64239-1.43161-1.4323z"
       fill="url(#c)"
       id="path20"
       style="fill:#b3b3b3;fill-opacity:1" />
    <path
       d="m27.705078 8.5175781c.20654.20651.311419.50443.261719.8125l-2.111328 13.1093749c.30767.40112.506812.881483.570312 1.408203l15.085938 15.085938c2.699858-3.166182 4.556913-7.075316 5.21875-11.390625zm-6.191406 17.7246099 16.226562 16.226562c1.380242-1.026644 2.635911-2.208207 3.751954-3.513672l-8.00586-8.005859c-.205084.31589-.611272.424923-.949219.265625l-.08594-.08594-8.039063-4.177734c-.27055.08371-.551759.140625-.849609.140625-.79898 0-1.524108-.324889-2.048828-.849609z"
       fill-opacity=".078431"
       transform="translate(384.57143 499.798)"
       id="path22"
       style="fill:#4d4d4d;fill-opacity:1" />
  </g>
</svg>
