<?xml version="1.0" encoding="UTF-8" standalone="no"?>
<svg
   xmlns:dc="http://purl.org/dc/elements/1.1/"
   xmlns:cc="http://creativecommons.org/ns#"
   xmlns:rdf="http://www.w3.org/1999/02/22-rdf-syntax-ns#"
   xmlns:svg="http://www.w3.org/2000/svg"
   xmlns="http://www.w3.org/2000/svg"
   xmlns:sodipodi="http://sodipodi.sourceforge.net/DTD/sodipodi-0.dtd"
   xmlns:inkscape="http://www.inkscape.org/namespaces/inkscape"
   height="48"
   width="48"
   version="1.1"
   id="svg20"
   sodipodi:docname="debian-logo.svg"
   inkscape:version="0.92.3 (2405546, 2018-03-11)">
  <metadata
     id="metadata26">
    <rdf:RDF>
      <cc:Work
         rdf:about="">
        <dc:format>image/svg+xml</dc:format>
        <dc:type
           rdf:resource="http://purl.org/dc/dcmitype/StillImage" />
      </cc:Work>
    </rdf:RDF>
  </metadata>
  <defs
     id="defs24">
    <pattern
       inkscape:stockid="Stripes 1:1"
       id="Strips1_1"
       patternTransform="translate(0,0) scale(10,10)"
       height="1"
       width="2"
       patternUnits="userSpaceOnUse"
       inkscape:collect="always">
      <rect
         id="rect1549"
         height="2"
         width="1"
         y="-0.5"
         x="0"
         style="fill:black;stroke:none" />
    </pattern>
  </defs>
  <sodipodi:namedview
     pagecolor="#ffffff"
     bordercolor="#666666"
     borderopacity="1"
     objecttolerance="10"
     gridtolerance="10"
     guidetolerance="10"
     inkscape:pageopacity="0"
     inkscape:pageshadow="2"
     inkscape:window-width="711"
     inkscape:window-height="480"
     id="namedview22"
     showgrid="false"
     inkscape:zoom="4.9166667"
     inkscape:cx="16.008748"
     inkscape:cy="24"
     inkscape:window-x="0"
     inkscape:window-y="0"
     inkscape:window-maximized="0"
     inkscape:current-layer="svg20" />
  <linearGradient
     id="a"
     gradientUnits="userSpaceOnUse"
     x1="399.57144"
     x2="399.57144"
     y1="545.79797"
     y2="517.79797">
    <stop
       offset="0"
       stop-color="#3889e9"
       id="stop2" />
    <stop
       offset="1"
       stop-color="#5ea5fb"
       id="stop4" />
  </linearGradient>
  <linearGradient
     id="b"
     gradientUnits="userSpaceOnUse"
     x1="399.9939"
     x2="399.9939"
     y1="545.13873"
     y2="518.13873">
    <stop
       offset="0"
       stop-color="#ec396c"
       id="stop7" />
    <stop
       offset="1"
       stop-color="#ff709a"
       id="stop9" />
  </linearGradient>
  <g
     stroke-width="1.299897"
     transform="matrix(1.714290829385 0 0 1.714290829385 -662.715843961977 -887.647284388227)"
     id="g16"
     style="fill:url(#Strips1_1);fill-opacity:1.0">
    <circle
       cx="400.57138"
       cy="531.79791"
       fill="url(#b)"
       r="13.999958"
       id="circle12"
       style="fill:url(#Strips1_1);fill-opacity:1.0" />
    <circle
       cx="400.57138"
       cy="531.79791"
       fill="url(#a)"
       r="0"
       id="circle14"
       style="fill:url(#Strips1_1);fill-opacity:1.0" />
  </g>
  <path
     d="m76.133 102.374c-7.997-2.877-12.747-6.408-17.955-14.288-1.278-2.171-3.628-7.016-3.539-13.34-.208-6.305 2.978-13.57 8.924-17.447 5.742-4.092 13.152-4.153 17.56-2.537 4.547 1.688 6.391 4.5 6.443 4.366-.139.035 2.436 2.201 3.584 6.916 1.279 4.532-.02 12.044-6.271 15.12-2.875 1.541-6.609 1.82-9.537.718-2.928-1.181-5.053-3.774-5.761-6.483-1.543-5.981 2.995-9.296 4.997-9.636 8.145-2.716 12.27 10.03 2.744 11.114 4.342 1.45 8.818-3.006 7.967-7.545-.172-4.54-5.668-9.046-11.73-7.199-1.583.437-3.98 1.548-5.856 4.047-1.924 2.484-2.797 6.377-1.797 10.161.975 3.805 3.94 7.447 8.07 9.084 4.172 1.539 8.817 1.099 12.653-.897 8.189-4.051 9.828-13.922 8.201-19.353-1.436-5.837-4.607-8.51-4.443-8.551-.059.159-2.34-3.309-7.977-5.414-5.512-2.01-14.106-1.868-20.987 2.957-7.042 4.516-10.857 13.39-10.58 20.542-.095 7.263 2.612 12.822 4.089 15.293 5.954 9.08 12.776 11.918 21.201 12.372"
     fill="#fff"
     fill-opacity=".85"
     transform="matrix(.614052694964 0 0 .614052694824 -21.433986323338 -21.918689856719)"
     id="path18"
     style="fill:#cccccc" />
</svg>
