<?xml version="1.0" encoding="UTF-8" standalone="no"?>
<svg
   xmlns:dc="http://purl.org/dc/elements/1.1/"
   xmlns:cc="http://creativecommons.org/ns#"
   xmlns:rdf="http://www.w3.org/1999/02/22-rdf-syntax-ns#"
   xmlns:svg="http://www.w3.org/2000/svg"
   xmlns="http://www.w3.org/2000/svg"
   xmlns:sodipodi="http://sodipodi.sourceforge.net/DTD/sodipodi-0.dtd"
   xmlns:inkscape="http://www.inkscape.org/namespaces/inkscape"
   height="48"
   width="48"
   version="1.1"
   id="svg22"
   sodipodi:docname="e-mail.svg"
   inkscape:version="0.92.3 (2405546, 2018-03-11)">
  <metadata
     id="metadata28">
    <rdf:RDF>
      <cc:Work
         rdf:about="">
        <dc:format>image/svg+xml</dc:format>
        <dc:type
           rdf:resource="http://purl.org/dc/dcmitype/StillImage" />
      </cc:Work>
    </rdf:RDF>
  </metadata>
  <defs
     id="defs26">
    <pattern
       inkscape:isstock="true"
       inkscape:stockid="Stripes 1:1"
       id="Strips1_1"
       patternTransform="translate(0,0) scale(10,10)"
       height="1"
       width="2"
       patternUnits="userSpaceOnUse"
       inkscape:collect="always">
      <rect
         id="rect1551"
         height="2"
         width="1"
         y="-0.5"
         x="0"
         style="fill:black;stroke:none" />
    </pattern>
  </defs>
  <sodipodi:namedview
     pagecolor="#ffffff"
     bordercolor="#666666"
     borderopacity="1"
     objecttolerance="10"
     gridtolerance="10"
     guidetolerance="10"
     inkscape:pageopacity="0"
     inkscape:pageshadow="2"
     inkscape:window-width="711"
     inkscape:window-height="480"
     id="namedview24"
     showgrid="false"
     inkscape:zoom="4.9166667"
     inkscape:cx="22.858393"
     inkscape:cy="24"
     inkscape:window-x="0"
     inkscape:window-y="0"
     inkscape:window-maximized="0"
     inkscape:current-layer="svg22" />
  <linearGradient
     id="a"
     gradientTransform="matrix(1.0155171 0 0 .88638161 -65.086805 59.629401)"
     gradientUnits="userSpaceOnUse"
     x1="466.37592"
     x2="466.48874"
     y1="542.6795"
     y2="502.37723">
    <stop
       offset="0"
       stop-color="#197df1"
       id="stop2" />
    <stop
       offset="1"
       stop-color="#20bcfa"
       id="stop4" />
  </linearGradient>
  <linearGradient
     gradientUnits="userSpaceOnUse"
     x1="258.65744"
     x2="257.50476"
     y1="1.707616"
     y2="564.00525"
     id="linearGradient11">
    <stop
       offset="0"
       stop-color="#333"
       id="stop7" />
    <stop
       offset="1"
       stop-color="#353535"
       id="stop9" />
  </linearGradient>
  <linearGradient
     id="b"
     gradientUnits="userSpaceOnUse"
     x1="258.65744"
     x2="257.50476"
     y1="1.707616"
     y2="564.00525">
    <stop
       offset="0"
       stop-color="#e9e9e9"
       id="stop13" />
    <stop
       offset="1"
       stop-color="#f9f9f9"
       id="stop15" />
  </linearGradient>
  <path
     d="m418 467.5c0 9.979 8.175 18.289 19 20.12v27.76c-10.825 1.831-19 10.141-19 20.12s8.175 18.289 19 20.12v29.38h-24.228c-1.474-11.318-9.988-20-20.272-20s-18.798 8.682-20.272 20h-27.456c-1.474-11.318-9.988-20-20.272-20s-18.798 8.682-20.272 20h-23.608c-1.832-10.825-10.141-19-20.12-19s-18.288 8.175-20.12 19h-27.76c-1.831-10.825-10.141-19-20.12-19s-18.289 8.175-20.12 19h-21.76c-1.831-10.825-10.141-19-20.12-19s-18.289 8.175-20.12 19h-27.76c-1.831-10.825-10.141-19-20.12-19s-18.289 8.175-20.12 19h-24.38v-32.38c10.825-1.832 19-10.141 19-20.12s-8.175-18.288-19-20.12v-25.426c12.279-.676 22-9.572 22-20.454s-9.721-19.778-22-20.454v-25.163c11.803-1.089 21-9.798 21-20.383s-9.197-19.294-21-20.383v-21.163c.497.027.996.046 1.5.046 12.979 0 23.5-9.178 23.5-20.5s-10.521-20.5-23.5-20.5c-.504 0-1.003.019-1.5.046v-26.162c11.803-1.09 21-9.799 21-20.384s-9.197-19.294-21-20.384v-28.344c11.318-1.474 20-9.988 20-20.272s-8.682-18.798-20-20.272v-27.274c12.279-.676 22-9.572 22-20.454s-9.721-19.778-22-20.454v-25.092c12.279-.676 22-9.572 22-20.454s-9.721-19.778-22-20.454v-27.046h22.228c-.149 1.143-.228 2.311-.228 3.5 0 12.979 9.178 23.5 20.5 23.5s20.5-10.521 20.5-23.5c0-1.189-.079-2.357-.228-3.5h27.456c-.149 1.143-.228 2.311-.228 3.5 0 12.979 9.178 23.5 20.5 23.5s20.5-10.521 20.5-23.5c0-1.189-.079-2.357-.228-3.5h21.456c-.149 1.143-.228 2.311-.228 3.5 0 12.979 9.178 23.5 20.5 23.5s20.5-10.521 20.5-23.5c0-1.189-.079-2.357-.228-3.5h27.456c-.149 1.143-.228 2.311-.228 3.5 0 12.979 9.178 23.5 20.5 23.5s20.5-10.521 20.5-23.5c0-1.189-.079-2.357-.228-3.5h23.344c-.075.821-.116 1.655-.116 2.5 0 12.979 9.178 23.5 20.5 23.5s20.5-10.521 20.5-23.5c0-.845-.041-1.679-.116-2.5h27.232c-.075.821-.116 1.655-.116 2.5 0 12.979 9.178 23.5 20.5 23.5s20.5-10.521 20.5-23.5c0-.845-.041-1.679-.116-2.5h26.116v27.116c-11.803 1.09-21 9.799-21 20.384s9.197 19.294 21 20.384v27.232c-11.803 1.09-21 9.799-21 20.384s9.197 19.294 21 20.384v24.232c-11.803 1.09-21 9.799-21 20.384s9.197 19.294 21 20.384v27.232c-11.803 1.09-21 9.799-21 20.384s9.197 19.294 21 20.384v23.233c-11.803 1.089-21 9.798-21 20.383s9.197 19.294 21 20.383v27.234c-11.803 1.089-21 9.798-21 20.383s9.197 19.294 21 20.383v25.497c-10.825 1.831-19 10.141-19 20.12"
     fill="url(#b)"
     transform="matrix(.093963726517 -.010745682911 -.008793144971 -.077123327814 5.437642817412 49.813012073681)"
     id="path18"
     style="fill:url(#Strips1_1);fill-opacity:1.0" />
  <rect
     fill="url(#a)"
     height="36.075733"
     ry=".531829"
     transform="matrix(.985560999529 -.112708706223 .11237220789 .985599416862 -438.011826217655 -445.734705829515)"
     width="31.074825"
     x="393.59326"
     y="504.85712"
     id="rect20"
     style="fill:#808080" />
</svg>
