<?xml version="1.0" encoding="UTF-8" standalone="no"?>
<svg
   xmlns:dc="http://purl.org/dc/elements/1.1/"
   xmlns:cc="http://creativecommons.org/ns#"
   xmlns:rdf="http://www.w3.org/1999/02/22-rdf-syntax-ns#"
   xmlns:svg="http://www.w3.org/2000/svg"
   xmlns="http://www.w3.org/2000/svg"
   xmlns:sodipodi="http://sodipodi.sourceforge.net/DTD/sodipodi-0.dtd"
   xmlns:inkscape="http://www.inkscape.org/namespaces/inkscape"
   height="48"
   width="48"
   version="1.1"
   id="svg44"
   sodipodi:docname="gimp.svg"
   inkscape:version="0.92.3 (2405546, 2018-03-11)">
  <metadata
     id="metadata50">
    <rdf:RDF>
      <cc:Work
         rdf:about="">
        <dc:format>image/svg+xml</dc:format>
        <dc:type
           rdf:resource="http://purl.org/dc/dcmitype/StillImage" />
      </cc:Work>
    </rdf:RDF>
  </metadata>
  <defs
     id="defs48">
    <pattern
       inkscape:stockid="Stripes 1:1"
       id="Strips1_1"
       patternTransform="translate(0,0) scale(10,10)"
       height="1"
       width="2"
       patternUnits="userSpaceOnUse"
       inkscape:collect="always">
      <rect
         id="rect1576"
         height="2"
         width="1"
         y="-0.5"
         x="0"
         style="fill:black;stroke:none" />
    </pattern>
  </defs>
  <sodipodi:namedview
     pagecolor="#ffffff"
     bordercolor="#666666"
     borderopacity="1"
     objecttolerance="10"
     gridtolerance="10"
     guidetolerance="10"
     inkscape:pageopacity="0"
     inkscape:pageshadow="2"
     inkscape:window-width="711"
     inkscape:window-height="480"
     id="namedview46"
     showgrid="false"
     inkscape:zoom="4.9166667"
     inkscape:cx="23.619464"
     inkscape:cy="24"
     inkscape:window-x="0"
     inkscape:window-y="0"
     inkscape:window-maximized="0"
     inkscape:current-layer="svg44" />
  <linearGradient
     id="a"
     gradientTransform="matrix(.93656781 0 0 .94442665 143.00429 52.34307)"
     gradientUnits="userSpaceOnUse"
     x1="41.749325"
     x2="41.357147"
     y1="226.20387"
     y2="102.25676">
    <stop
       offset="0"
       stop-color="#ff5335"
       id="stop2" />
    <stop
       offset="1"
       stop-color="#ff8f36"
       id="stop4" />
  </linearGradient>
  <linearGradient
     id="b"
     gradientUnits="userSpaceOnUse"
     x1="1.405646"
     x2="8.575851"
     y1="32.349785"
     y2="20.109837">
    <stop
       offset="0"
       stop-color="#ff6535"
       id="stop7" />
    <stop
       offset="1"
       stop-color="#ff7936"
       id="stop9" />
  </linearGradient>
  <g
     fill="#687681"
     transform="matrix(.392670096373 -.035146434445 .03605893015 .387317091815 7.183394056615 -55.574571263242)"
     id="g22">
    <path
       d="m-23.525211 154.66937 47.828584.0363-.0419 55.16792-55.437374-.0422.0365-48.05392c.006-7.63847 7.21097-7.10853 7.61419-7.10821z"
       fill="#687681"
       fill-rule="evenodd"
       id="path12" />
    <g
       fill="#687681"
       fill-rule="evenodd"
       transform="matrix(1.0014519 .00003763 .00003763 .95188387 .036529586238 11.689947414352)"
       id="g20">
      <path
         d="m-23.87675 265.80577 47.759246.0362.044-57.95657-55.356996-.042-.03833 50.48297c-.0061 8.02458 7.189449 7.47907 7.59208 7.47936z"
         fill="#6f2619"
         id="path14" />
      <path
         d="m71.568966 150.27986-47.759241-.0362-.044 57.95657 55.356991.042.03835-50.48297c.0062-8.02458-7.189452-7.47907-7.592072-7.47936z"
         fill="#687681"
         id="path16" />
      <path
         d="m71.368015 265.8766-47.75924-.0363.044-57.95657 55.35699.0421-.0383 50.48297c-.006 8.02458-7.2008 7.46814-7.60343 7.46782z"
         fill="#6f2619"
         id="path18" />
    </g>
  </g>
  <rect
     fill="url(#a)"
     height="121.89765"
     ry="8.041512"
     transform="matrix(.36105074676 -.032588529048 .031466095837 .355189045296 -50.437792575747 -44.433154612526)"
     width="120.8718"
     x="127.69567"
     y="148.01404"
     id="rect24"
     style="fill:url(#Strips1_1);fill-opacity:1.0" />
  <g
     transform="matrix(.983271390817 -.090974234517 .092786884728 .964062438227 1.54325471115 2.704611732296)"
     id="g42">
    <path
       d="m10.374369 12.467884s2.874509 5.927634 9.599242 5.760407c14.092515-.353553 16.563709-7.70495 16.917262-8.7656106.353554-1.0606602.894534-.8999979 1.019607.080267 4.596194 41.7192996-31.8969312 23.8191756-33.1929656 16.7135196 7.2478446-2.12132 5.4800776-6.187185 5.4800776-6.187185l.176777-7.601398z"
       fill="#6f2619"
       fill-rule="evenodd"
       id="path26" />
    <path
       d="m36.96875 11.84375c-.561978.926895-1.406492 2.033166-2.6875 3.09375-2.631918 2.179042-7.050563 4.162347-14.28125 4.34375-4.224373.105049-6.952741-1.934149-8.625-3.75l-.125 4.46875c.136107.418802.415455 1.390498-.0625 2.71875-.514314 1.429296-2.154514 2.891363-4.96875 4 .2503304.522033.4954845 1.04362 1.25 1.78125 1.0279503 1.004945 2.4570333 2.088049 4.15625 3.0625 3.398433 1.948902 7.801583 3.493212 11.90625 3.5625 4.104667.06929 7.857126-1.23455 10.4375-5 2.378744-3.471218 3.682473-9.347943 3-18.28125z"
       fill="none"
       opacity=".185393"
       id="path28" />
    <g
       fill-rule="evenodd"
       stroke-miterlimit="10"
       id="g40">
      <path
         d="m72.655224 21.837049a3.1819806 3.1819806 0 1 1 -6.363961 0 3.1819806 3.1819806 0 1 1 6.363961 0z"
         fill="#6f2519"
         stroke="#ff7836"
         stroke-width=".782608"
         transform="matrix(1.277778 0 0 1.277778 -75.12661 -6.507784)"
         id="path30" />
      <path
         d="m10.429825 27.228739a4.331029 6.098796 0 1 1 -8.662058 0 4.331029 6.098796 0 1 1 8.662058 0z"
         fill="#6f2619"
         stroke="url(#b)"
         transform="matrix(.810984 -.585069 .585069 .810984 -14.77791 6.947121)"
         id="path32" />
      <path
         d="m24.041631 21.837049a2.2980971 2.2980971 0 1 1 -4.596194 0 2.2980971 2.2980971 0 1 1 4.596194 0z"
         fill="#ff7c36"
         stroke="#ff7b36"
         stroke-width="1.173913"
         transform="matrix(.851852 0 0 .851852 -3.926759 3.395528)"
         id="path34" />
      <path
         d="m72.655224 21.837049a3.1819806 3.1819806 0 1 1 -6.363961 0 3.1819806 3.1819806 0 1 1 6.363961 0z"
         fill="#6f2719"
         stroke="#ff7e36"
         stroke-width=".666666"
         transform="matrix(1.5 0 0 1.5 -82.16821 -10.91852)"
         id="path36" />
      <path
         d="m24.041631 21.837049a2.2980971 2.2980971 0 1 1 -4.596194 0 2.2980971 2.2980971 0 1 1 4.596194 0z"
         fill="#ff7c36"
         stroke="#ff7c36"
         transform="translate(1.414216 .707108)"
         id="path38" />
    </g>
  </g>
</svg>
