<?xml version="1.0" encoding="UTF-8" standalone="no"?>
<svg
   xmlns:dc="http://purl.org/dc/elements/1.1/"
   xmlns:cc="http://creativecommons.org/ns#"
   xmlns:rdf="http://www.w3.org/1999/02/22-rdf-syntax-ns#"
   xmlns:svg="http://www.w3.org/2000/svg"
   xmlns="http://www.w3.org/2000/svg"
   xmlns:sodipodi="http://sodipodi.sourceforge.net/DTD/sodipodi-0.dtd"
   xmlns:inkscape="http://www.inkscape.org/namespaces/inkscape"
   height="48"
   width="48"
   version="1.1"
   id="svg25"
   sodipodi:docname="gmail.svg"
   inkscape:version="0.92.3 (2405546, 2018-03-11)">
  <metadata
     id="metadata31">
    <rdf:RDF>
      <cc:Work
         rdf:about="">
        <dc:format>image/svg+xml</dc:format>
        <dc:type
           rdf:resource="http://purl.org/dc/dcmitype/StillImage" />
      </cc:Work>
    </rdf:RDF>
  </metadata>
  <defs
     id="defs29">
    <pattern
       inkscape:stockid="Stripes 1:1"
       id="Strips1_1"
       patternTransform="translate(0,0) scale(10,10)"
       height="1"
       width="2"
       patternUnits="userSpaceOnUse"
       inkscape:collect="always">
      <rect
         id="rect1554"
         height="2"
         width="1"
         y="-0.5"
         x="0"
         style="fill:black;stroke:none" />
    </pattern>
  </defs>
  <sodipodi:namedview
     pagecolor="#ffffff"
     bordercolor="#666666"
     borderopacity="1"
     objecttolerance="10"
     gridtolerance="10"
     guidetolerance="10"
     inkscape:pageopacity="0"
     inkscape:pageshadow="2"
     inkscape:window-width="711"
     inkscape:window-height="480"
     id="namedview27"
     showgrid="false"
     inkscape:zoom="4.9166667"
     inkscape:cx="24.380536"
     inkscape:cy="24"
     inkscape:window-x="0"
     inkscape:window-y="0"
     inkscape:window-maximized="0"
     inkscape:current-layer="svg25" />
  <linearGradient
     id="a"
     gradientUnits="userSpaceOnUse"
     x1="22"
     x2="22"
     y1="38.845357"
     y2="8.059416">
    <stop
       offset="0"
       stop-color="#e52823"
       id="stop2" />
    <stop
       offset="1"
       stop-color="#f55"
       id="stop4" />
  </linearGradient>
  <linearGradient
     id="b"
     gradientTransform="matrix(.29515269 0 0 .29684987 110.98855 -328.41892)"
     gradientUnits="userSpaceOnUse"
     x1="-292.6893"
     x2="-293.4805"
     y1="1171.113"
     y2="1135.239">
    <stop
       offset="0"
       stop-color="#dfe3ea"
       id="stop7" />
    <stop
       offset="1"
       stop-color="#fdfeff"
       id="stop9" />
  </linearGradient>
  <linearGradient
     id="c"
     gradientTransform="matrix(.33519045 0 0 .32524249 123.00375 -360.2461)"
     gradientUnits="userSpaceOnUse"
     x1="-292.89081"
     x2="-292.61288"
     y1="1226.7684"
     y2="1181.605">
    <stop
       offset="0"
       stop-color="#d7dbe1"
       id="stop12" />
    <stop
       offset="1"
       stop-color="#eaedf1"
       id="stop14" />
  </linearGradient>
  <path
     d="m3.2851562 9.155016.058594.03711c-.7649842.133274-1.3437502.793384-1.3437502 1.597655v27.533203c0 .900922.7260314 1.625 1.6269531 1.625h3.0253907 34.6503902 3.070313c.900922 0 1.626953-.724078 1.626953-1.625v-27.533203c0-.823601-.608049-1.493407-1.400391-1.603515l.04687-.03125z"
     fill-opacity=".666667"
     stroke-width=".428482"
     id="path17" />
  <path
     d="m3.285156 8.052016.05859.03711c-.76498.133274-1.343746.793384-1.343746 1.597655v27.533203c0 .900922.726031 1.625 1.626953 1.625h3.025391 34.65039 3.070313c.900922 0 1.626953-.724078 1.626953-1.625v-27.533203c0-.823601-.608049-1.493407-1.400391-1.603515l.04687-.03125z"
     fill="url(#a)"
     stroke-width=".428482"
     id="path19"
     style="fill:#b3b3b3" />
  <path
     d="m4.3953221 8.052016 19.6456869 12.060414 19.2631-12.060414z"
     fill="url(#b)"
     fill-rule="evenodd"
     stroke-width=".397694"
     id="path21"
     style="fill:#e6e6e6" />
  <path
     d="m6.6524009 38.844984v-22.710805l17.4913821 9.779424 17.158219-9.779424v22.710805z"
     fill="url(#c)"
     fill-rule="evenodd"
     stroke-width=".428482"
     id="path23"
     style="fill:url(#Strips1_1);fill-opacity:1.0" />
</svg>
