<?xml version="1.0" encoding="UTF-8" standalone="no"?>
<svg
   xmlns:dc="http://purl.org/dc/elements/1.1/"
   xmlns:cc="http://creativecommons.org/ns#"
   xmlns:rdf="http://www.w3.org/1999/02/22-rdf-syntax-ns#"
   xmlns:svg="http://www.w3.org/2000/svg"
   xmlns="http://www.w3.org/2000/svg"
   xmlns:xlink="http://www.w3.org/1999/xlink"
   xmlns:sodipodi="http://sodipodi.sourceforge.net/DTD/sodipodi-0.dtd"
   xmlns:inkscape="http://www.inkscape.org/namespaces/inkscape"
   viewBox="0 0 48 48"
   version="1.1"
   id="svg29"
   sodipodi:docname="kaffeine.svg"
   inkscape:version="0.92.3 (2405546, 2018-03-11)">
  <metadata
     id="metadata35">
    <rdf:RDF>
      <cc:Work
         rdf:about="">
        <dc:format>image/svg+xml</dc:format>
        <dc:type
           rdf:resource="http://purl.org/dc/dcmitype/StillImage" />
      </cc:Work>
    </rdf:RDF>
  </metadata>
  <defs
     id="defs33">
    <pattern
       inkscape:stockid="Stripes 1:1"
       id="Strips1_1"
       patternTransform="translate(0,0) scale(10,10)"
       height="1"
       width="2"
       patternUnits="userSpaceOnUse"
       inkscape:collect="always">
      <rect
         id="rect1558"
         height="2"
         width="1"
         y="-0.5"
         x="0"
         style="fill:black;stroke:none" />
    </pattern>
  </defs>
  <sodipodi:namedview
     pagecolor="#ffffff"
     bordercolor="#666666"
     borderopacity="1"
     objecttolerance="10"
     gridtolerance="10"
     guidetolerance="10"
     inkscape:pageopacity="0"
     inkscape:pageshadow="2"
     inkscape:window-width="711"
     inkscape:window-height="480"
     id="namedview31"
     showgrid="false"
     inkscape:zoom="4.9166667"
     inkscape:cx="28.185894"
     inkscape:cy="24"
     inkscape:window-x="0"
     inkscape:window-y="0"
     inkscape:window-maximized="0"
     inkscape:current-layer="svg29" />
  <linearGradient
     id="a"
     gradientTransform="matrix(0 -1 1 0 -.000002 47.999998)"
     gradientUnits="userSpaceOnUse"
     x1="1"
     x2="47">
    <stop
       offset="0"
       stop-color="#e4e4e4"
       id="stop2" />
    <stop
       offset="1"
       stop-color="#eee"
       id="stop4" />
  </linearGradient>
  <linearGradient
     id="b"
     gradientUnits="userSpaceOnUse"
     x1="23.999926661144"
     x2="23.999926661144"
     y1="47.000108036636"
     y2="1.000061636636">
    <stop
       offset="0"
       stop-color="#2a2c2f"
       id="stop7" />
    <stop
       offset="1"
       stop-color="#424649"
       id="stop9" />
  </linearGradient>
  <linearGradient
     gradientUnits="userSpaceOnUse"
     x1="285.00021"
     x2="297.00021"
     xlink:href="#a"
     y1="636.74103"
     y2="636.74103"
     id="linearGradient12" />
  <linearGradient
     id="c"
     gradientUnits="userSpaceOnUse"
     x1="290.41052"
     x2="290.05167"
     xlink:href="#a"
     y1="648.83472"
     y2="625.01868" />
  <rect
     fill="url(#b)"
     height="46"
     ry="23"
     width="46"
     x=".999998"
     y="1.000005"
     id="rect15"
     style="fill:url(#Strips1_1);fill-opacity:1.0" />
  <g
     fill="url(#c)"
     transform="matrix(1.9172392 0 0 1.9172392 -532.98985 -1196.9326)"
     id="g27"
     style="fill:#999999">
    <path
       d="m295.66688 637h-1.33334v-2h1.33334zm0-3.33333h-10.66667v6.66666c0 1.47276 1.19391 2.66667 2.66667 2.66667h4c1.47274 0 2.66666-1.19391 2.66666-2.66667v-2h1.33334c.73637 0 1.33333-.59696 1.33333-1.33333v-2c0-.74-.6-1.33333-1.33333-1.33333z"
       id="path17"
       style="fill:#999999" />
    <path
       d="m286.60282 630.482s-.1458.10908-.2912.27273c-.14524.16348-.31893.38933-.32139.69986-.002.30445.15695.51985.26266.6772.1057.15735.16404.25422.15944.38182-.009.24106-.36504.47832-.36504.47832l.26769.49007s.63208-.30182.65539-.94825c.0114-.31566-.1435-.54965-.25343-.71329s-.16942-.26-.16867-.36168c.00033-.0661.0767-.21546.18126-.33314.10456-.11769.20811-.19637.20811-.19637z"
       id="path19"
       style="fill:#999999" />
    <path
       d="m288.60282 630.482s-.1458.10908-.2912.27273c-.14524.16348-.31893.38933-.32139.69986-.002.30445.15695.51985.26266.6772.1057.15735.16404.25422.15944.38182-.009.24106-.36504.47832-.36504.47832l.26769.49007s.63208-.30182.65539-.94825c.0114-.31566-.1435-.54965-.25343-.71329s-.16942-.26-.16867-.36168c.00033-.0661.0767-.21546.18126-.33314.10456-.11769.20811-.19637.20811-.19637z"
       id="path21"
       style="fill:#999999" />
    <path
       d="m290.60282 630.482s-.1458.10908-.2912.27273c-.14524.16348-.31893.38933-.32139.69986-.002.30445.15695.51985.26266.6772.1057.15735.16404.25422.15944.38182-.009.24106-.36504.47832-.36504.47832l.26769.49007s.63208-.30182.65539-.94825c.0114-.31566-.1435-.54965-.25343-.71329s-.16942-.26-.16867-.36168c.00033-.0661.0767-.21546.18126-.33314.10456-.11769.20811-.19637.20811-.19637z"
       id="path23"
       style="fill:#999999" />
    <path
       d="m292.60282 630.482s-.1458.10908-.2912.27273c-.14524.16348-.31893.38933-.32139.69986-.002.30445.15695.51985.26266.6772.1057.15735.16404.25422.15944.38182-.009.24106-.36504.47832-.36504.47832l.26769.49007s.63208-.30182.65539-.94825c.0114-.31566-.1435-.54965-.25343-.71329s-.16942-.26-.16867-.36168c.00033-.0661.0767-.21546.18126-.33314.10456-.11769.20811-.19637.20811-.19637z"
       id="path25"
       style="fill:#999999" />
  </g>
</svg>
