<?xml version="1.0" encoding="UTF-8" standalone="no"?>
<svg
   xmlns:dc="http://purl.org/dc/elements/1.1/"
   xmlns:cc="http://creativecommons.org/ns#"
   xmlns:rdf="http://www.w3.org/1999/02/22-rdf-syntax-ns#"
   xmlns:svg="http://www.w3.org/2000/svg"
   xmlns="http://www.w3.org/2000/svg"
   xmlns:sodipodi="http://sodipodi.sourceforge.net/DTD/sodipodi-0.dtd"
   xmlns:inkscape="http://www.inkscape.org/namespaces/inkscape"
   height="48"
   width="48"
   version="1.1"
   id="svg29"
   sodipodi:docname="Launcher.svg"
   inkscape:version="0.92.3 (2405546, 2018-03-11)">
  <metadata
     id="metadata35">
    <rdf:RDF>
      <cc:Work
         rdf:about="">
        <dc:format>image/svg+xml</dc:format>
        <dc:type
           rdf:resource="http://purl.org/dc/dcmitype/StillImage" />
      </cc:Work>
    </rdf:RDF>
  </metadata>
  <defs
     id="defs33">
    <pattern
       inkscape:isstock="true"
       inkscape:stockid="Stripes 1:1"
       id="Strips1_1"
       patternTransform="translate(0,0) scale(10,10)"
       height="1"
       width="2"
       patternUnits="userSpaceOnUse"
       inkscape:collect="always">
      <rect
         id="rect1558"
         height="2"
         width="1"
         y="-0.5"
         x="0"
         style="fill:black;stroke:none" />
    </pattern>
  </defs>
  <sodipodi:namedview
     pagecolor="#ffffff"
     bordercolor="#666666"
     borderopacity="1"
     objecttolerance="10"
     gridtolerance="10"
     guidetolerance="10"
     inkscape:pageopacity="0"
     inkscape:pageshadow="2"
     inkscape:window-width="711"
     inkscape:window-height="480"
     id="namedview31"
     showgrid="false"
     inkscape:zoom="4.9166667"
     inkscape:cx="22.097321"
     inkscape:cy="24"
     inkscape:window-x="0"
     inkscape:window-y="0"
     inkscape:window-maximized="0"
     inkscape:current-layer="svg29" />
  <linearGradient
     id="a"
     gradientUnits="userSpaceOnUse"
     x1="394.27609735676"
     x2="394.27609735676"
     y1="544.804561643005"
     y2="498.955499643005">
    <stop
       offset="0"
       stop-color="#3889e9"
       id="stop2" />
    <stop
       offset="1"
       stop-color="#5ea5fb"
       id="stop4" />
  </linearGradient>
  <linearGradient
     id="b"
     gradientUnits="userSpaceOnUse"
     x1="408.69654621358"
     x2="408.263409402554"
     y1="546.47273967221"
     y2="501.123321127213">
    <stop
       offset="0"
       stop-color="#4d4d4d"
       id="stop7" />
    <stop
       offset="1"
       stop-color="#808080"
       id="stop9" />
  </linearGradient>
  <linearGradient
     id="c"
     gradientUnits="userSpaceOnUse"
     x1="408.949284754716"
     x2="408.51634836754"
     y1="546.209451588994"
     y2="500.881017418473">
    <stop
       offset="0"
       stop-color="#ccc"
       id="stop12" />
    <stop
       offset="1"
       stop-color="#f2f2f2"
       id="stop14" />
  </linearGradient>
  <g
     transform="matrix(.95833337 0 0 .95833337 -367.789891 -477.730862)"
     id="g27">
    <circle
       cx="395.91345"
       cy="521.87994"
       fill="url(#a)"
       r="0"
       id="circle17" />
    <circle
       cx="408.57144"
       cy="523.79797"
       fill="url(#b)"
       r="23"
       id="circle19" />
    <path
       d="m36.738281 11.835938c-3.1538 0-11.866012 3.096555-16.419922 9.291015l-3.578125.707031-4.001953 4.003907 2.009766 2.009765-.01563-.002-1.726563 1.697266v2.007812l1.007813 1.00586-1.048828 1.044921v2.007813l11.378906 11.378906a23 23 0 0 0 22.656255-22.988234 23 23 0 0 0 -.103516-2.005859z"
       fill-opacity=".078431"
       transform="translate(384.57143 499.798)"
       id="path21"
       style="fill:url(#Strips1_1);fill-opacity:1.0" />
    <path
       d="m397.30911 525.63509 4.00236-4.00236 3.57808-.70713c4.55391-6.19446 13.26576-9.29169 16.41956-9.29169 0 3.1538-3.09723 11.86565-9.29169 16.41956l-.70713 3.57808-4.00236 4.00236-1.00412-4.99234c-1.99411 0-1.99411 0-2.99824-1.00412-1.00412-1.00413-1.00412-1.00413-1.00412-2.99824zm4.00236 4.00236 1.9941 1.9941-3.76193 3.77608h-2.00825v-2.00825zm-2.00825-1.99411 1.75368.24042-3.47908 3.46494v-2.00825zm5.75604 4.24278.24042 1.75368-1.69711 1.7254h-2.00825zm6.66116-12.78491a2.1213907 2.1213907 0 0 0 -2.12139 2.12139 2.1213907 2.1213907 0 0 0 2.12139 2.12139 2.1213907 2.1213907 0 0 0 2.12139-2.12139 2.1213907 2.1213907 0 0 0 -2.12139-2.12139z"
       fill="#fff"
       id="path23" />
    <circle
       cx="408.82422"
       cy="523.54523"
       fill="none"
       r="22.989355"
       stroke="url(#c)"
       stroke-linecap="round"
       stroke-linejoin="round"
       stroke-width="2.021288"
       id="circle25" />
  </g>
</svg>
