<?xml version="1.0" encoding="UTF-8" standalone="no"?>
<svg
   xmlns:dc="http://purl.org/dc/elements/1.1/"
   xmlns:cc="http://creativecommons.org/ns#"
   xmlns:rdf="http://www.w3.org/1999/02/22-rdf-syntax-ns#"
   xmlns:svg="http://www.w3.org/2000/svg"
   xmlns="http://www.w3.org/2000/svg"
   xmlns:xlink="http://www.w3.org/1999/xlink"
   xmlns:sodipodi="http://sodipodi.sourceforge.net/DTD/sodipodi-0.dtd"
   xmlns:inkscape="http://www.inkscape.org/namespaces/inkscape"
   height="48"
   width="48"
   version="1.1"
   id="svg24"
   sodipodi:docname="laverna.svg"
   inkscape:version="0.92.3 (2405546, 2018-03-11)">
  <metadata
     id="metadata30">
    <rdf:RDF>
      <cc:Work
         rdf:about="">
        <dc:format>image/svg+xml</dc:format>
        <dc:type
           rdf:resource="http://purl.org/dc/dcmitype/StillImage" />
      </cc:Work>
    </rdf:RDF>
  </metadata>
  <defs
     id="defs28">
    <pattern
       inkscape:stockid="Stripes 1:1"
       id="Strips1_1"
       patternTransform="translate(0,0) scale(10,10)"
       height="1"
       width="2"
       patternUnits="userSpaceOnUse"
       inkscape:collect="always">
      <rect
         id="rect1556"
         height="2"
         width="1"
         y="-0.5"
         x="0"
         style="fill:black;stroke:none" />
    </pattern>
  </defs>
  <sodipodi:namedview
     pagecolor="#ffffff"
     bordercolor="#666666"
     borderopacity="1"
     objecttolerance="10"
     gridtolerance="10"
     guidetolerance="10"
     inkscape:pageopacity="0"
     inkscape:pageshadow="2"
     inkscape:window-width="711"
     inkscape:window-height="480"
     id="namedview26"
     showgrid="false"
     inkscape:zoom="4.9166667"
     inkscape:cx="27.424822"
     inkscape:cy="24"
     inkscape:window-x="0"
     inkscape:window-y="0"
     inkscape:window-maximized="0"
     inkscape:current-layer="svg24" />
  <linearGradient
     id="a"
     gradientTransform="matrix(1.2361374 0 0 1.0987888 -530.07919 -558.50109)"
     gradientUnits="userSpaceOnUse"
     x1="409.57144"
     x2="409.57144"
     y1="543.79797"
     y2="503.798">
    <stop
       offset="0"
       stop-color="#31d145"
       id="stop2" />
    <stop
       offset="1"
       stop-color="#4bf082"
       id="stop4" />
  </linearGradient>
  <linearGradient
     id="b"
     gradientUnits="userSpaceOnUse"
     x1="22.397194"
     x2="23.273914"
     xlink:href="#a"
     y1="45.022221"
     y2="2.421917" />
  <linearGradient
     id="c"
     gradientUnits="userSpaceOnUse"
     spreadMethod="pad"
     x1="32.821968"
     x2="45.668236"
     y1="35.986328"
     y2="32.713432">
    <stop
       offset="0"
       stop-color="#80ffb3"
       id="stop8" />
    <stop
       offset="1"
       stop-color="#5fd35f"
       id="stop10" />
  </linearGradient>
  <linearGradient
     id="d"
     gradientUnits="userSpaceOnUse"
     x1="17.605272"
     x2="45.353985"
     xlink:href="#a"
     y1="11.389279"
     y2="23.51111" />
  <path
     d="m4.28732 2.9777778c-1.083377 0-1.955555.8721778-1.955555 1.9555555v.026736 39.0576387.02674c0 1.083374.872178 1.955552 1.955555 1.955552h39.111112c1.083377 0 1.955555-.872178 1.955555-1.955556.249046-13.570226.299807-25.554702.299807-39.0843745.000007-1.0979008-.884384-1.9822917-1.982285-1.9822917h-.27309z"
     fill-opacity=".666667"
     id="path14" />
  <path
     d="m4.287321 2h39.111109c1.083378 0 1.955556.872178 1.955556 1.955556v39.111109c0 1.083378-.872178 1.955556-1.955556 1.955556h-39.111109c-1.0833781 0-1.9555561-.872178-1.9555561-1.955556v-39.111109c0-1.083378.872178-1.955556 1.9555561-1.955556z"
     fill="url(#d)"
     id="path16" />
  <path
     d="m4.3140565 2c-1.0979008 0-1.9822917.884391-1.9822917 1.9822917v39.0576383c0 1.097901.8843909 1.982292 1.9822917 1.982292h18.0831595c15.217331-1.100459 23.173758-8.998305 23.252778-23.965104.0069-.152402.01024-.303637.01146-.454513-.000374-.0679.0045-.130428.0038-.198612-.0019.01091-.0038.02156-.0057.03247-.001-.166378.0024-.334119-.0057-.498438v-15.9557333c-.00004-1.0979008-.884431-1.9822917-1.982332-1.9822917z"
     fill="url(#b)"
     id="path18"
     style="fill:url(#Strips1_1);fill-opacity:1.0" />
  <path
     d="m22.397194 45.022222c7.082158-1.763948 10.262001-5.535669 13.016592-10.934729 7.313974-2.123707 9.183364-7.652642 10.252186-13.682852.156716 15.400467-7.826599 23.500861-23.268778 24.617581z"
     fill="url(#c)"
     fill-rule="evenodd"
     opacity=".9"
     stroke-width="1.220157"
     id="path20"
     style="fill:#b3b3b3" />
  <path
     d="m35.829326 17.190685-.990883-1.21037c-.408244-.498616-1.148429-.57242-1.650992-.164621l-12.692179 10.394223-5.442879-6.648514c-.408188-.498661-1.148424-.57247-1.650941-.164616l-1.21042.990879c-.498616.408243-.572421 1.148429-.164616 1.65094l7.173486 8.762405c.205875.251478.488766.397104.7872.426861.298436.02975.608412-.05675.85604-.263013l14.809912-12.124345c.511035-.414782.584455-1.151117.176272-1.649829z"
     fill="#d7eef4"
     opacity=".7"
     id="path22"
     style="fill:#b3b3b3" />
</svg>
