<?xml version="1.0" encoding="UTF-8" standalone="no"?>
<svg
   xmlns:dc="http://purl.org/dc/elements/1.1/"
   xmlns:cc="http://creativecommons.org/ns#"
   xmlns:rdf="http://www.w3.org/1999/02/22-rdf-syntax-ns#"
   xmlns:svg="http://www.w3.org/2000/svg"
   xmlns="http://www.w3.org/2000/svg"
   xmlns:xlink="http://www.w3.org/1999/xlink"
   xmlns:sodipodi="http://sodipodi.sourceforge.net/DTD/sodipodi-0.dtd"
   xmlns:inkscape="http://www.inkscape.org/namespaces/inkscape"
   height="48"
   viewBox="0 0 48 48"
   width="48"
   version="1.1"
   id="svg23"
   sodipodi:docname="uget.svg"
   inkscape:version="0.92.3 (2405546, 2018-03-11)">
  <metadata
     id="metadata29">
    <rdf:RDF>
      <cc:Work
         rdf:about="">
        <dc:format>image/svg+xml</dc:format>
        <dc:type
           rdf:resource="http://purl.org/dc/dcmitype/StillImage" />
      </cc:Work>
    </rdf:RDF>
  </metadata>
  <defs
     id="defs27">
    <pattern
       inkscape:stockid="Stripes 1:1"
       id="Strips1_1"
       patternTransform="translate(0,0) scale(10,10)"
       height="1"
       width="2"
       patternUnits="userSpaceOnUse"
       inkscape:collect="always">
      <rect
         id="rect1552"
         height="2"
         width="1"
         y="-0.5"
         x="0"
         style="fill:black;stroke:none" />
    </pattern>
  </defs>
  <sodipodi:namedview
     pagecolor="#ffffff"
     bordercolor="#666666"
     borderopacity="1"
     objecttolerance="10"
     gridtolerance="10"
     guidetolerance="10"
     inkscape:pageopacity="0"
     inkscape:pageshadow="2"
     inkscape:window-width="711"
     inkscape:window-height="480"
     id="namedview25"
     showgrid="false"
     inkscape:zoom="4.9166667"
     inkscape:cx="17.530891"
     inkscape:cy="24"
     inkscape:window-x="0"
     inkscape:window-y="0"
     inkscape:window-maximized="0"
     inkscape:current-layer="svg23" />
  <linearGradient
     id="a">
    <stop
       offset="0"
       stop-color="#197cf1"
       id="stop2" />
    <stop
       offset="1"
       stop-color="#59d0ff"
       id="stop4" />
  </linearGradient>
  <linearGradient
     id="b"
     gradientUnits="userSpaceOnUse"
     x1="405.57144"
     x2="406.57144"
     y1="543.79797"
     y2="501.798">
    <stop
       offset="0"
       stop-color="#1673db"
       id="stop7" />
    <stop
       offset="1"
       stop-color="#42d6fc"
       id="stop9" />
  </linearGradient>
  <linearGradient
     gradientUnits="userSpaceOnUse"
     x1="408.57147"
     x2="409.57144"
     xlink:href="#a"
     y1="552.79797"
     y2="503.798"
     id="linearGradient12" />
  <linearGradient
     id="c"
     gradientUnits="userSpaceOnUse"
     x1="408.64954"
     x2="408.64954"
     xlink:href="#a"
     y1="549.92224"
     y2="500.92224" />
  <g
     stroke="url(#c)"
     transform="matrix(1.066666738597 0 0 1.066666738597 -409.001771655185 -533.402584785433)"
     id="g19"
     style="fill:url(#Strips1_1);fill-opacity:1.0">
    <path
       d="m399.57144 514.79797h18v1h-18z"
       fill="#fff"
       fill-opacity=".235294"
       stroke="url(#c)"
       stroke-opacity=".550265"
       stroke-width="2.8"
       id="path15"
       style="fill:url(#Strips1_1);fill-opacity:1.0" />
    <circle
       cx="406.01132"
       cy="522.59583"
       fill="url(#b)"
       r="21.542326"
       stroke="url(#b)"
       stroke-linecap="round"
       stroke-linejoin="round"
       stroke-width="1.915347"
       id="circle17"
       style="fill:url(#Strips1_1);fill-opacity:1.0" />
  </g>
  <path
     d="m412.38917 537.3326c-.40104-.40373-1.05169-.40373-1.45321 0l-4.05675 4.4969-4.05677-4.4969c-.40151-.40373-1.05168-.40373-1.45319 0-.40152.40373-.40152 1.05767 0 1.4614l4.71901 5.23147c.21722.21815.5065.31434.79095.29636.28395.018.57373-.0783.79093-.29636l4.71903-5.23147c.40102-.40373.40102-1.05767 0-1.4614zm-5.51601-4.35143c.93509 0 1.69313-.76131 1.69313-1.70042 0-.93912-.75804-1.70043-1.69313-1.70043s-1.69314.76131-1.69314 1.70043c0 .93911.75805 1.70042 1.69314 1.70042zm0 4.85836c.93509 0 1.69313-.76131 1.69313-1.70043s-.75804-1.70042-1.69313-1.70042-1.69314.7613-1.69314 1.70042.75805 1.70043 1.69314 1.70043z"
     fill="#fff"
     fill-opacity=".852792"
     transform="matrix(1.736332318789 0 0 1.730980544859 -682.6878401285 -905.159652413775)"
     id="path21" />
</svg>
