<?xml version="1.0" encoding="UTF-8" standalone="no"?>
<svg
   xmlns:dc="http://purl.org/dc/elements/1.1/"
   xmlns:cc="http://creativecommons.org/ns#"
   xmlns:rdf="http://www.w3.org/1999/02/22-rdf-syntax-ns#"
   xmlns:svg="http://www.w3.org/2000/svg"
   xmlns="http://www.w3.org/2000/svg"
   xmlns:xlink="http://www.w3.org/1999/xlink"
   xmlns:sodipodi="http://sodipodi.sourceforge.net/DTD/sodipodi-0.dtd"
   xmlns:inkscape="http://www.inkscape.org/namespaces/inkscape"
   height="48"
   width="48"
   version="1.1"
   id="svg35"
   sodipodi:docname="vlc.svg"
   inkscape:version="0.92.3 (2405546, 2018-03-11)">
  <metadata
     id="metadata41">
    <rdf:RDF>
      <cc:Work
         rdf:about="">
        <dc:format>image/svg+xml</dc:format>
        <dc:type
           rdf:resource="http://purl.org/dc/dcmitype/StillImage" />
      </cc:Work>
    </rdf:RDF>
  </metadata>
  <defs
     id="defs39">
    <pattern
       inkscape:stockid="Stripes 1:1"
       id="Strips1_1"
       patternTransform="translate(0,0) scale(10,10)"
       height="1"
       width="2"
       patternUnits="userSpaceOnUse"
       inkscape:collect="always">
      <rect
         id="rect1564"
         height="2"
         width="1"
         y="-0.5"
         x="0"
         style="fill:black;stroke:none" />
    </pattern>
  </defs>
  <sodipodi:namedview
     pagecolor="#ffffff"
     bordercolor="#666666"
     borderopacity="1"
     objecttolerance="10"
     gridtolerance="10"
     guidetolerance="10"
     inkscape:pageopacity="0"
     inkscape:pageshadow="2"
     inkscape:window-width="711"
     inkscape:window-height="480"
     id="namedview37"
     showgrid="false"
     inkscape:zoom="4.9166667"
     inkscape:cx="25.141607"
     inkscape:cy="24"
     inkscape:window-x="0"
     inkscape:window-y="0"
     inkscape:window-maximized="0"
     inkscape:current-layer="svg35" />
  <linearGradient
     id="a">
    <stop
       offset="0"
       stop-color="#dbd4cf"
       id="stop2" />
    <stop
       offset=".5288403"
       stop-color="#dedfe1"
       id="stop4" />
    <stop
       offset="1"
       stop-color="#dad4d1"
       id="stop6" />
  </linearGradient>
  <linearGradient
     id="b"
     gradientTransform="matrix(.07206128 0 0 .07100887 395.87444 511.68902)"
     gradientUnits="userSpaceOnUse"
     x1="104.88638"
     x2="246.86618"
     xlink:href="#a"
     y1="12.640625"
     y2=".950831" />
  <linearGradient
     id="c"
     gradientTransform="matrix(.07161878 0 0 .07100887 395.95256 511.68902)"
     gradientUnits="userSpaceOnUse"
     x1="44.103722"
     x2="278.4324"
     xlink:href="#a"
     y1="228.59993"
     y2="290.6998" />
  <linearGradient
     id="d"
     gradientUnits="userSpaceOnUse"
     x1="413.989391138965"
     x2="407.690794306216"
     y1="545.195584938115"
     y2="502.908166098662">
    <stop
       offset="0"
       stop-color="#e95c00"
       id="stop11" />
    <stop
       offset="1"
       stop-color="#ffa000"
       id="stop13" />
  </linearGradient>
  <linearGradient
     id="e"
     gradientTransform="matrix(.25160624 0 0 .25669709 396.06002 511.33087)"
     gradientUnits="userSpaceOnUse"
     x1="46.226089"
     x2="44.375881"
     y1="82.088463"
     y2="125.31633">
    <stop
       offset="0"
       stop-color="#e35600"
       id="stop16" />
    <stop
       offset="1"
       stop-color="#f69600"
       id="stop18" />
  </linearGradient>
  <g
     fill-rule="evenodd"
     transform="translate(-384.57143 -499.798)"
     id="g33">
    <path
       d="m390.06187 542.75131s-.62117.67003-.78547 1.21391c-.11482.38006-.15964.94669.0476 1.28532.15206.24847.35136.49981.64266.49985 12.66454.002 26.67029.0205 36.52448.0476.3336.00092.96641-.0576 1.22581-.42844.26441-.37796.25787-1.22045.0714-1.64235-.19636-.44427-1.11871-.64266-1.11871-.64266l-36.60778-.33323z"
       fill="#cb5600"
       id="path21" />
    <path
       d="m394.72849 529.39004c-.57863 0-1.17933.4458-1.34696 1.00093l-4.0431 13.3924c-.16763.55513.16253 1.00315.74116 1.00315h37.2844c.44086 0 .69358-.33998.56586-.76293l-4.18956-13.87062c-.12771-.42295-.58434-.76293-1.0252-.76293z"
       fill="url(#e)"
       id="path23"
       style="fill:url(#Strips1_1);fill-opacity:1.0" />
    <path
       d="m397.95229 529.3898-1.95898 6.46875s.20723 1.34982 1.49414 2.63672l6.29102 6.29101h23.58593c.44086 0 .69413-.33877.56641-.76172l-4.19141-13.87109c-.12771-.42295-.58257-.76367-1.02343-.76367z"
       fill-opacity=".078431"
       id="path25" />
    <path
       d="m408.54427 501.79882c-.96171-.01-1.5275.0618-2.09476.48818-.25892.19461-.46351.65686-.58583.98969l-9.87023 32.58197s.43402 2.81803 3.92704 4.19163c2.41783.9508 4.91349 1.07694 8.79686 1.11849 4.32479.0463 6.08656-.37808 8.91335-1.36439 1.33062-.46428 2.0204-1.06793 2.65146-1.73726.91261-.96796.88837-2.34383.88837-2.34383l-10.15204-33.05241c-.0686-.12476-.14352-.23647-.22413-.31288-.60306-.5716-1.51688-.55182-2.25009-.55919z"
       fill="url(#d)"
       id="path27"
       style="fill-opacity:1.0;fill:url(#Strips1_1)" />
    <path
       d="m399.52007 523.96468-2.17943 7.44927c2.76047 2.30669 6.71498 3.76347 11.23025 3.76347 4.53566 0 8.60157-1.46974 11.36277-3.79453l-2.2918-7.40046c-2.10988 1.66893-5.37983 2.7405-9.05082 2.7405-3.68316 0-6.96182-1.07983-9.07097-2.75825z"
       fill="url(#c)"
       id="path29" />
    <path
       d="m412.703 507.96327c-1.08083.35741-2.55773.57917-4.18856.57917-1.60428 0-3.06085-.21424-4.13676-.56141l-2.41631 7.86201c1.62422.83759 4.00253 1.36692 6.65441 1.36692 2.59947 0 4.93803-.50691 6.55983-1.31588z"
       fill="url(#b)"
       id="path31" />
  </g>
</svg>
