<?xml version="1.0" encoding="UTF-8" standalone="no"?>
<svg
   xmlns:dc="http://purl.org/dc/elements/1.1/"
   xmlns:cc="http://creativecommons.org/ns#"
   xmlns:rdf="http://www.w3.org/1999/02/22-rdf-syntax-ns#"
   xmlns:svg="http://www.w3.org/2000/svg"
   xmlns="http://www.w3.org/2000/svg"
   xmlns:xlink="http://www.w3.org/1999/xlink"
   xmlns:sodipodi="http://sodipodi.sourceforge.net/DTD/sodipodi-0.dtd"
   xmlns:inkscape="http://www.inkscape.org/namespaces/inkscape"
   height="48"
   width="48"
   version="1.1"
   id="svg38"
   sodipodi:docname="x.svg"
   inkscape:version="0.92.3 (2405546, 2018-03-11)">
  <metadata
     id="metadata44">
    <rdf:RDF>
      <cc:Work
         rdf:about="">
        <dc:format>image/svg+xml</dc:format>
        <dc:type
           rdf:resource="http://purl.org/dc/dcmitype/StillImage" />
      </cc:Work>
    </rdf:RDF>
  </metadata>
  <defs
     id="defs42">
    <pattern
       inkscape:stockid="Stripes 1:1"
       id="Strips1_1"
       patternTransform="translate(0,0) scale(10,10)"
       height="1"
       width="2"
       patternUnits="userSpaceOnUse"
       inkscape:collect="always">
      <rect
         id="rect1567"
         height="2"
         width="1"
         y="-0.5"
         x="0"
         style="fill:black;stroke:none" />
    </pattern>
  </defs>
  <sodipodi:namedview
     pagecolor="#ffffff"
     bordercolor="#666666"
     borderopacity="1"
     objecttolerance="10"
     gridtolerance="10"
     guidetolerance="10"
     inkscape:pageopacity="0"
     inkscape:pageshadow="2"
     inkscape:window-width="711"
     inkscape:window-height="480"
     id="namedview40"
     showgrid="false"
     inkscape:zoom="4.9166667"
     inkscape:cx="27.424822"
     inkscape:cy="24"
     inkscape:window-x="0"
     inkscape:window-y="0"
     inkscape:window-maximized="0"
     inkscape:current-layer="svg38" />
  <linearGradient
     id="a"
     gradientUnits="userSpaceOnUse"
     x1="13"
     x2="24.733333"
     xlink:href="#f"
     y1="23.999999"
     y2="23.999999" />
  <linearGradient
     id="b"
     gradientUnits="userSpaceOnUse"
     x1="23.266666"
     x2="35"
     xlink:href="#f"
     y1="23.999999"
     y2="23.999999" />
  <linearGradient
     id="c"
     gradientUnits="userSpaceOnUse"
     x1="13"
     x2="35"
     y1="24.752066"
     y2="24.752066">
    <stop
       offset="0"
       stop-color="#ff9300"
       id="stop4" />
    <stop
       offset="1"
       stop-color="#ffd702"
       id="stop6" />
  </linearGradient>
  <linearGradient
     id="d"
     gradientUnits="userSpaceOnUse"
     x1="24.670803"
     x2="24.699699"
     y1="46.328768"
     y2="2.052439">
    <stop
       offset="0"
       stop-color="#e1e1e1"
       id="stop9" />
    <stop
       offset="1"
       stop-color="#fff"
       id="stop11" />
  </linearGradient>
  <linearGradient
     id="e"
     gradientUnits="userSpaceOnUse"
     x1="399.57144"
     x2="399.57144"
     y1="545.79797"
     y2="517.79797">
    <stop
       offset="0"
       stop-color="#3889e9"
       id="stop14" />
    <stop
       offset="1"
       stop-color="#5ea5fb"
       id="stop16" />
  </linearGradient>
  <linearGradient
     id="f"
     gradientUnits="userSpaceOnUse"
     x1="400.55615"
     x2="400.55615"
     y1="546.92657"
     y2="516.4751">
    <stop
       offset="0"
       stop-color="#2e3e46"
       id="stop19" />
    <stop
       offset="1"
       stop-color="#47606a"
       id="stop21" />
  </linearGradient>
  <g
     transform="matrix(1.5511965 0 0 1.552208 -597.40541 -801.61944)"
     id="g28">
    <circle
       cx="400.57138"
       cy="531.79791"
       fill="url(#e)"
       r="0"
       id="circle24" />
    <circle
       cx="400.57138"
       cy="531.79791"
       fill="url(#e)"
       r="0"
       transform="matrix(1.637466545232 0 0 1.637466545232 -298.091124511564 -338.94880213054)"
       id="circle26" />
  </g>
  <circle
     cx="24"
     cy="24"
     fill="url(#d)"
     r="22"
     stroke-width="1.147508"
     id="circle30"
     style="fill:url(#Strips1_1);fill-opacity:1.0" />
  <path
     d="m35 35h-5.866667l-5.866667-8.800001 8.800001-13.199999h1.466666l-6.6 10.266666z"
     fill="url(#b)"
     id="path32" />
  <path
     d="m13 13h5.866666l5.866667 8.799999-8.8 13.200001h-1.466667l6.6-10.266667z"
     fill="url(#a)"
     id="path34" />
  <path
     d="m23.266666 15.952136-.04576.04576c-.295606.01628-.582164.0572-.870833.09167l2.0625 3.070833c.367415-.943814 1.328023-1.494562 2.429167-1.466666.242718.0059.481506.07671.733333.137426.03051.0073.06116-.0088.09167 0 .33355.09812.64881.237014.9625.366667l.733334-1.145833c-1.589075-.713094-3.410866-1.1-5.362501-1.1-.228066 0-.46288.03491-.6875.04576zm7.241667 1.741667-.6875 1.1c2.230771 1.331337 3.7125 3.497721 3.7125 5.958333 0 4.050083-3.939892 7.333334-8.8 7.333334s-8.8-3.283251-8.8-7.333334c0-1.740581.748323-3.32593 1.970833-4.583333l-1.283333-1.925c-2.224141 1.602508-3.620833 3.919094-3.620833 6.508333 0 4.860109 4.924861 8.800001 11 8.800001s11-3.939892 11-8.800001c0-2.907109-1.775327-5.455971-4.491667-7.058333z"
     fill="url(#c)"
     id="path36" />
</svg>
